<?xml version="1.0" standalone="no"?>
<!DOCTYPE svg PUBLIC "-//W3C//DTD SVG 1.1//EN" 
  "http://www.w3.org/Graphics/SVG/1.1/DTD/svg11.dtd">
<svg width="75.500mm" height="175.000mm" version="1.1"
     viewBox="0 0 75.500 175.000"
     xmlns="http://www.w3.org/2000/svg"  xmlns:xlink="http://www.w3.org/1999/xlink" 
     xmlns:fpd="http://www.schaeffer-ag.de">
  <desc>Created with the Front Panel Designer by the export of the file 'clee-2-channel-stereo-mixer.fpd'.</desc>
  <defs>
    <pattern id="revside-fill" x="1" y="1" width="1.750" height="1.750" patternUnits="userSpaceOnUse">
      <line x1="0" y1="0" x2="1.750" y2="1.750" style="stroke-width:0.175; stroke:black; stroke-dasharray:none;" />
      <line x1="0" y1="1.750" x2="1.750" y2="0" style="stroke-width:0.175; stroke:black; stroke-dasharray:none;" />
    </pattern>
    <pattern id="revside-fill-silver" x="1" y="1" width="1.750" height="1.750" patternUnits="userSpaceOnUse">
      <line x1="0" y1="0" x2="1.750" y2="1.750" style="stroke-width:0.175; stroke:#e0e0e0; stroke-dasharray:none;" />
      <line x1="0" y1="1.750" x2="1.750" y2="0" style="stroke-width:0.175; stroke:#e0e0e0; stroke-dasharray:none;" />
    </pattern>
  </defs>
<g transform="scale(1,-1) translate( -0.000, -175.000)" 
   fill-rule="evenodd"
   style="stroke-linecap:round; stroke-linejoin:round; stroke-opacity:1.0; stroke-opacity:1.0;">
<path d="
M75.000 175.000
A0.500,0.500 0 0,0 75.500,174.500
L75.500 0.500
A0.500,0.500 0 0,0 75.000,0.000
L0.500 0.000
A0.500,0.500 0 0,0 0.000,0.500
L0.000 174.500
A0.500,0.500 0 0,0 0.500,175.000
L75.000 175.000
" 
fill="#c0c0c0" fill-opacity="1.000000" vector-effect="non-scaling-stroke" stroke="#000000" stroke-width="0.100mm" stroke-opacity="1.000000" fpd:visible="front back" />
<path d="
M9.175 171.912
A1.500,1.500 0 0,1 10.675,170.412
L14.025 170.412
A1.500,1.500 0 0,1 15.525,171.912
L15.525 172.088
A1.500,1.500 0 0,1 14.025,173.588
L10.675 173.588
A1.500,1.500 0 0,1 9.175,172.088
L9.175 171.912
" 
fill="#ffffff" fill-opacity="1.000000" vector-effect="non-scaling-stroke" stroke="#000000" stroke-width="0.100mm" stroke-opacity="1.000000" fpd:visible="front back" fpd:print_element="0" />
<path d="
M59.975 171.912
A1.500,1.500 0 0,1 61.475,170.412
L64.825 170.412
A1.500,1.500 0 0,1 66.325,171.912
L66.325 172.088
A1.500,1.500 0 0,1 64.825,173.588
L61.475 173.588
A1.500,1.500 0 0,1 59.975,172.088
L59.975 171.912
" 
fill="#ffffff" fill-opacity="1.000000" vector-effect="non-scaling-stroke" stroke="#000000" stroke-width="0.100mm" stroke-opacity="1.000000" fpd:visible="front back" fpd:print_element="0" />
<path d="
M59.975 2.913
A1.500,1.500 0 0,1 61.475,1.413
L64.825 1.413
A1.500,1.500 0 0,1 66.325,2.913
L66.325 3.087
A1.500,1.500 0 0,1 64.825,4.588
L61.475 4.588
A1.500,1.500 0 0,1 59.975,3.087
L59.975 2.913
" 
fill="#ffffff" fill-opacity="1.000000" vector-effect="non-scaling-stroke" stroke="#000000" stroke-width="0.100mm" stroke-opacity="1.000000" fpd:visible="front back" fpd:print_element="0" />
<path d="
M9.175 2.913
A1.500,1.500 0 0,1 10.675,1.413
L14.025 1.413
A1.500,1.500 0 0,1 15.525,2.913
L15.525 3.087
A1.500,1.500 0 0,1 14.025,4.588
L10.675 4.588
A1.500,1.500 0 0,1 9.175,3.087
L9.175 2.913
" 
fill="#ffffff" fill-opacity="1.000000" vector-effect="non-scaling-stroke" stroke="#000000" stroke-width="0.100mm" stroke-opacity="1.000000" fpd:visible="front back" fpd:print_element="0" />
<path d="
M58.450 152.400
A4.700,4.700 0 1,0 67.850,152.400
A4.700,4.700 0 1,0 58.450,152.400
" 
fill="#ffffff" fill-opacity="1.000000" vector-effect="non-scaling-stroke" stroke="#000000" stroke-width="0.100mm" stroke-opacity="1.000000" fpd:visible="front back" fpd:print_element="0" />
<path d="
M58.450 133.350
A4.700,4.700 0 1,0 67.850,133.350
A4.700,4.700 0 1,0 58.450,133.350
" 
fill="#ffffff" fill-opacity="1.000000" vector-effect="non-scaling-stroke" stroke="#000000" stroke-width="0.100mm" stroke-opacity="1.000000" fpd:visible="front back" fpd:print_element="0" />
<path d="
M65.768 117.540
A4.166,4.166 0 0,1 60.532,117.540
A1.500,1.500 0 0,1 59.975,116.373
L59.975 112.227
A1.500,1.500 0 0,1 60.532,111.060
A4.166,4.166 0 0,1 65.768,111.060
A1.500,1.500 0 0,1 66.325,112.227
L66.325 116.373
A1.500,1.500 0 0,1 65.768,117.540
" 
fill="#ffffff" fill-opacity="1.000000" vector-effect="non-scaling-stroke" stroke="#000000" stroke-width="0.100mm" stroke-opacity="1.000000" fpd:visible="front back" fpd:print_element="0" />
<path d="
M65.768 98.490
A4.166,4.166 0 0,1 60.532,98.490
A1.500,1.500 0 0,1 59.975,97.323
L59.975 93.177
A1.500,1.500 0 0,1 60.532,92.010
A4.166,4.166 0 0,1 65.768,92.010
A1.500,1.500 0 0,1 66.325,93.177
L66.325 97.323
A1.500,1.500 0 0,1 65.768,98.490
" 
fill="#ffffff" fill-opacity="1.000000" vector-effect="non-scaling-stroke" stroke="#000000" stroke-width="0.100mm" stroke-opacity="1.000000" fpd:visible="front back" fpd:print_element="0" />
<path d="
M59.400 76.200
A3.750,3.750 0 1,0 66.900,76.200
A3.750,3.750 0 1,0 59.400,76.200
" 
fill="#ffffff" fill-opacity="1.000000" vector-effect="non-scaling-stroke" stroke="#000000" stroke-width="0.100mm" stroke-opacity="1.000000" fpd:visible="front back" fpd:print_element="0" />
<path d="
M14.968 155.640
A4.166,4.166 0 0,1 9.732,155.640
A1.500,1.500 0 0,1 9.175,154.473
L9.175 150.327
A1.500,1.500 0 0,1 9.732,149.160
A4.166,4.166 0 0,1 14.968,149.160
A1.500,1.500 0 0,1 15.525,150.327
L15.525 154.473
A1.500,1.500 0 0,1 14.968,155.640
" 
fill="#ffffff" fill-opacity="1.000000" vector-effect="non-scaling-stroke" stroke="#000000" stroke-width="0.100mm" stroke-opacity="1.000000" fpd:visible="front back" fpd:print_element="0" />
<path d="
M14.968 136.590
A4.166,4.166 0 0,1 9.732,136.590
A1.500,1.500 0 0,1 9.175,135.423
L9.175 131.277
A1.500,1.500 0 0,1 9.732,130.110
A4.166,4.166 0 0,1 14.968,130.110
A1.500,1.500 0 0,1 15.525,131.277
L15.525 135.423
A1.500,1.500 0 0,1 14.968,136.590
" 
fill="#ffffff" fill-opacity="1.000000" vector-effect="non-scaling-stroke" stroke="#000000" stroke-width="0.100mm" stroke-opacity="1.000000" fpd:visible="front back" fpd:print_element="0" />
<path d="
M8.600 114.300
A3.750,3.750 0 1,0 16.100,114.300
A3.750,3.750 0 1,0 8.600,114.300
" 
fill="#ffffff" fill-opacity="1.000000" vector-effect="non-scaling-stroke" stroke="#000000" stroke-width="0.100mm" stroke-opacity="1.000000" fpd:visible="front back" fpd:print_element="0" />
<path d="
M8.600 95.250
A3.750,3.750 0 1,0 16.100,95.250
A3.750,3.750 0 1,0 8.600,95.250
" 
fill="#ffffff" fill-opacity="1.000000" vector-effect="non-scaling-stroke" stroke="#000000" stroke-width="0.100mm" stroke-opacity="1.000000" fpd:visible="front back" fpd:print_element="0" />
<path d="
M14.968 79.440
A4.166,4.166 0 0,1 9.732,79.440
A1.500,1.500 0 0,1 9.175,78.273
L9.175 74.127
A1.500,1.500 0 0,1 9.732,72.960
A4.166,4.166 0 0,1 14.968,72.960
A1.500,1.500 0 0,1 15.525,74.127
L15.525 78.273
A1.500,1.500 0 0,1 14.968,79.440
" 
fill="#ffffff" fill-opacity="1.000000" vector-effect="non-scaling-stroke" stroke="#000000" stroke-width="0.100mm" stroke-opacity="1.000000" fpd:visible="front back" fpd:print_element="0" />
<path d="
M8.600 57.150
A3.750,3.750 0 1,0 16.100,57.150
A3.750,3.750 0 1,0 8.600,57.150
" 
fill="#ffffff" fill-opacity="1.000000" vector-effect="non-scaling-stroke" stroke="#000000" stroke-width="0.100mm" stroke-opacity="1.000000" fpd:visible="front back" fpd:print_element="0" />
<path d="
M8.600 19.050
A3.750,3.750 0 1,0 16.100,19.050
A3.750,3.750 0 1,0 8.600,19.050
" 
fill="#ffffff" fill-opacity="1.000000" vector-effect="non-scaling-stroke" stroke="#000000" stroke-width="0.100mm" stroke-opacity="1.000000" fpd:visible="front back" fpd:print_element="0" />
<path d="
M8.600 38.100
A3.750,3.750 0 1,0 16.100,38.100
A3.750,3.750 0 1,0 8.600,38.100
" 
fill="#ffffff" fill-opacity="1.000000" vector-effect="non-scaling-stroke" stroke="#000000" stroke-width="0.100mm" stroke-opacity="1.000000" fpd:visible="front back" fpd:print_element="0" />
<path d="
M40.368 155.640
A4.166,4.166 0 0,1 35.132,155.640
A1.500,1.500 0 0,1 34.575,154.473
L34.575 150.327
A1.500,1.500 0 0,1 35.132,149.160
A4.166,4.166 0 0,1 40.368,149.160
A1.500,1.500 0 0,1 40.925,150.327
L40.925 154.473
A1.500,1.500 0 0,1 40.368,155.640
" 
fill="#ffffff" fill-opacity="1.000000" vector-effect="non-scaling-stroke" stroke="#000000" stroke-width="0.100mm" stroke-opacity="1.000000" fpd:visible="front back" fpd:print_element="0" />
<path d="
M40.368 136.590
A4.166,4.166 0 0,1 35.132,136.590
A1.500,1.500 0 0,1 34.575,135.423
L34.575 131.277
A1.500,1.500 0 0,1 35.132,130.110
A4.166,4.166 0 0,1 40.368,130.110
A1.500,1.500 0 0,1 40.925,131.277
L40.925 135.423
A1.500,1.500 0 0,1 40.368,136.590
" 
fill="#ffffff" fill-opacity="1.000000" vector-effect="non-scaling-stroke" stroke="#000000" stroke-width="0.100mm" stroke-opacity="1.000000" fpd:visible="front back" fpd:print_element="0" />
<path d="
M34.000 114.300
A3.750,3.750 0 1,0 41.500,114.300
A3.750,3.750 0 1,0 34.000,114.300
" 
fill="#ffffff" fill-opacity="1.000000" vector-effect="non-scaling-stroke" stroke="#000000" stroke-width="0.100mm" stroke-opacity="1.000000" fpd:visible="front back" fpd:print_element="0" />
<path d="
M34.000 95.250
A3.750,3.750 0 1,0 41.500,95.250
A3.750,3.750 0 1,0 34.000,95.250
" 
fill="#ffffff" fill-opacity="1.000000" vector-effect="non-scaling-stroke" stroke="#000000" stroke-width="0.100mm" stroke-opacity="1.000000" fpd:visible="front back" fpd:print_element="0" />
<path d="
M40.368 79.440
A4.166,4.166 0 0,1 35.132,79.440
A1.500,1.500 0 0,1 34.575,78.273
L34.575 74.127
A1.500,1.500 0 0,1 35.132,72.960
A4.166,4.166 0 0,1 40.368,72.960
A1.500,1.500 0 0,1 40.925,74.127
L40.925 78.273
A1.500,1.500 0 0,1 40.368,79.440
" 
fill="#ffffff" fill-opacity="1.000000" vector-effect="non-scaling-stroke" stroke="#000000" stroke-width="0.100mm" stroke-opacity="1.000000" fpd:visible="front back" fpd:print_element="0" />
<path d="
M34.000 57.150
A3.750,3.750 0 1,0 41.500,57.150
A3.750,3.750 0 1,0 34.000,57.150
" 
fill="#ffffff" fill-opacity="1.000000" vector-effect="non-scaling-stroke" stroke="#000000" stroke-width="0.100mm" stroke-opacity="1.000000" fpd:visible="front back" fpd:print_element="0" />
<path d="
M34.000 19.050
A3.750,3.750 0 1,0 41.500,19.050
A3.750,3.750 0 1,0 34.000,19.050
" 
fill="#ffffff" fill-opacity="1.000000" vector-effect="non-scaling-stroke" stroke="#000000" stroke-width="0.100mm" stroke-opacity="1.000000" fpd:visible="front back" fpd:print_element="0" />
<path d="
M34.000 38.100
A3.750,3.750 0 1,0 41.500,38.100
A3.750,3.750 0 1,0 34.000,38.100
" 
fill="#ffffff" fill-opacity="1.000000" vector-effect="non-scaling-stroke" stroke="#000000" stroke-width="0.100mm" stroke-opacity="1.000000" fpd:visible="front back" fpd:print_element="0" />
<path d="
M65.768 41.340
A4.166,4.166 0 0,1 60.532,41.340
A1.500,1.500 0 0,1 59.975,40.173
L59.975 36.027
A1.500,1.500 0 0,1 60.532,34.860
A4.166,4.166 0 0,1 65.768,34.860
A1.500,1.500 0 0,1 66.325,36.027
L66.325 40.173
A1.500,1.500 0 0,1 65.768,41.340
" 
fill="#ffffff" fill-opacity="1.000000" vector-effect="non-scaling-stroke" stroke="#000000" stroke-width="0.100mm" stroke-opacity="1.000000" fpd:visible="front back" fpd:print_element="0" />
<path d="
M65.768 22.290
A4.166,4.166 0 0,1 60.532,22.290
A1.500,1.500 0 0,1 59.975,21.123
L59.975 16.977
A1.500,1.500 0 0,1 60.532,15.810
A4.166,4.166 0 0,1 65.768,15.810
A1.500,1.500 0 0,1 66.325,16.977
L66.325 21.123
A1.500,1.500 0 0,1 65.768,22.290
" 
fill="#ffffff" fill-opacity="1.000000" vector-effect="non-scaling-stroke" stroke="#000000" stroke-width="0.100mm" stroke-opacity="1.000000" fpd:visible="front back" fpd:print_element="0" />
<path d="
M75.000 175.000
A0.500,0.500 0 0,0 75.500,174.500
L75.500 0.500
A0.500,0.500 0 0,0 75.000,0.000
L0.500 0.000
A0.500,0.500 0 0,0 0.000,0.500
L0.000 174.500
A0.500,0.500 0 0,0 0.500,175.000
L75.000 175.000
" 
fill="none" vector-effect="non-scaling-stroke" stroke="#000000" stroke-width="0.100mm" stroke-opacity="1.000000" fpd:visible="front back" />
</g>
</svg>
