  0
SECTION
  2
HEADER
  9
$MEASUREMENT
  70
  0
  9
$INSUNITS
  70
  1
  0
ENDSEC
  0
SECTION
  2
TABLES
  0
TABLE
  2
LTYPE
 70
     1
  0
LTYPE
  2
CONTINUOUS
 70
    64
  3
Ausgezogene Linie
 72
    65
 73
     0
 40
0.0
  0
ENDTAB
  0
TABLE
  2
LAYER
 70
     3
  0
LAYER
  2
Contour
 70
    64
 62
     7
  6
CONTINUOUS
  0
LAYER
  2
Engraving
 70
    64
 62
     7
  6
CONTINUOUS
  0
LAYER
  2
Reference_points
 70
    64
 62
     1
  6
CONTINUOUS
  0
ENDTAB
  0
TABLE
  2
STYLE
 70
     1
  0
STYLE
  2
TXT
 70
    64
 40
0.0
 41
1.0
 50
0.0
 71
     0
 42
3.500000
  3
TXT
  0
ENDTAB
  0
ENDSEC
  0
SECTION
  2
BLOCKS
  0
ENDSEC
  0
SECTION
  2
ENTITIES
  0
ARC
  8
Contour
 62
   7
 39
0.004
  6
CONTINUOUS
 10
2.95276
 20
6.87008
 30
 0
 40
0.01969
 50
0.00000
 51
90.00000
  0
LINE
  8
Contour
 62
   7
 39
0.004
  6
CONTINUOUS
 10
2.97244
 20
6.87008
 30
 0
 11
2.97244
 21
0.01969
  0
ARC
  8
Contour
 62
   7
 39
0.004
  6
CONTINUOUS
 10
2.95276
 20
0.01969
 30
 0
 40
0.01969
 50
-90.00000
 51
0.00000
  0
LINE
  8
Contour
 62
   7
 39
0.004
  6
CONTINUOUS
 10
2.95276
 20
0.00000
 30
 0
 11
0.01969
 21
0.00000
  0
ARC
  8
Contour
 62
   7
 39
0.004
  6
CONTINUOUS
 10
0.01969
 20
0.01969
 30
 0
 40
0.01969
 50
180.00000
 51
270.00000
  0
LINE
  8
Contour
 62
   7
 39
0.004
  6
CONTINUOUS
 10
0.00000
 20
0.01969
 30
 0
 11
0.00000
 21
6.87008
  0
ARC
  8
Contour
 62
   7
 39
0.004
  6
CONTINUOUS
 10
0.01969
 20
6.87008
 30
 0
 40
0.01969
 50
90.00000
 51
180.00000
  0
LINE
  8
Contour
 62
   7
 39
0.004
  6
CONTINUOUS
 10
0.01969
 20
6.88976
 30
 0
 11
2.95276
 21
6.88976
  0
ARC
  8
Contour
 62
   7
 39
0.004
  6
CONTINUOUS
 10
0.42028
 20
6.76821
 30
 0
 40
0.05906
 50
180.00000
 51
270.00000
  0
LINE
  8
Contour
 62
   7
 39
0.004
  6
CONTINUOUS
 10
0.42028
 20
6.70915
 30
 0
 11
0.55217
 21
6.70915
  0
ARC
  8
Contour
 62
   7
 39
0.004
  6
CONTINUOUS
 10
0.55217
 20
6.76821
 30
 0
 40
0.05906
 50
270.00000
 51
360.00000
  0
LINE
  8
Contour
 62
   7
 39
0.004
  6
CONTINUOUS
 10
0.61122
 20
6.76821
 30
 0
 11
0.61122
 21
6.77510
  0
ARC
  8
Contour
 62
   7
 39
0.004
  6
CONTINUOUS
 10
0.55217
 20
6.77510
 30
 0
 40
0.05906
 50
0.00000
 51
90.00000
  0
LINE
  8
Contour
 62
   7
 39
0.004
  6
CONTINUOUS
 10
0.55217
 20
6.83415
 30
 0
 11
0.42028
 21
6.83415
  0
ARC
  8
Contour
 62
   7
 39
0.004
  6
CONTINUOUS
 10
0.42028
 20
6.77510
 30
 0
 40
0.05906
 50
90.00000
 51
180.00000
  0
LINE
  8
Contour
 62
   7
 39
0.004
  6
CONTINUOUS
 10
0.36122
 20
6.77510
 30
 0
 11
0.36122
 21
6.76821
  0
ARC
  8
Contour
 62
   7
 39
0.004
  6
CONTINUOUS
 10
2.42028
 20
6.76821
 30
 0
 40
0.05906
 50
180.00000
 51
270.00000
  0
LINE
  8
Contour
 62
   7
 39
0.004
  6
CONTINUOUS
 10
2.42028
 20
6.70915
 30
 0
 11
2.55217
 21
6.70915
  0
ARC
  8
Contour
 62
   7
 39
0.004
  6
CONTINUOUS
 10
2.55217
 20
6.76821
 30
 0
 40
0.05906
 50
270.00000
 51
360.00000
  0
LINE
  8
Contour
 62
   7
 39
0.004
  6
CONTINUOUS
 10
2.61122
 20
6.76821
 30
 0
 11
2.61122
 21
6.77510
  0
ARC
  8
Contour
 62
   7
 39
0.004
  6
CONTINUOUS
 10
2.55217
 20
6.77510
 30
 0
 40
0.05906
 50
0.00000
 51
90.00000
  0
LINE
  8
Contour
 62
   7
 39
0.004
  6
CONTINUOUS
 10
2.55217
 20
6.83415
 30
 0
 11
2.42028
 21
6.83415
  0
ARC
  8
Contour
 62
   7
 39
0.004
  6
CONTINUOUS
 10
2.42028
 20
6.77510
 30
 0
 40
0.05906
 50
90.00000
 51
180.00000
  0
LINE
  8
Contour
 62
   7
 39
0.004
  6
CONTINUOUS
 10
2.36122
 20
6.77510
 30
 0
 11
2.36122
 21
6.76821
  0
ARC
  8
Contour
 62
   7
 39
0.004
  6
CONTINUOUS
 10
2.42028
 20
0.11467
 30
 0
 40
0.05906
 50
180.00000
 51
270.00000
  0
LINE
  8
Contour
 62
   7
 39
0.004
  6
CONTINUOUS
 10
2.42028
 20
0.05561
 30
 0
 11
2.55217
 21
0.05561
  0
ARC
  8
Contour
 62
   7
 39
0.004
  6
CONTINUOUS
 10
2.55217
 20
0.11467
 30
 0
 40
0.05906
 50
270.00000
 51
360.00000
  0
LINE
  8
Contour
 62
   7
 39
0.004
  6
CONTINUOUS
 10
2.61122
 20
0.11467
 30
 0
 11
2.61122
 21
0.12156
  0
ARC
  8
Contour
 62
   7
 39
0.004
  6
CONTINUOUS
 10
2.55217
 20
0.12156
 30
 0
 40
0.05906
 50
360.00000
 51
450.00000
  0
LINE
  8
Contour
 62
   7
 39
0.004
  6
CONTINUOUS
 10
2.55217
 20
0.18061
 30
 0
 11
2.42028
 21
0.18061
  0
ARC
  8
Contour
 62
   7
 39
0.004
  6
CONTINUOUS
 10
2.42028
 20
0.12156
 30
 0
 40
0.05906
 50
90.00000
 51
180.00000
  0
LINE
  8
Contour
 62
   7
 39
0.004
  6
CONTINUOUS
 10
2.36122
 20
0.12156
 30
 0
 11
2.36122
 21
0.11467
  0
ARC
  8
Contour
 62
   7
 39
0.004
  6
CONTINUOUS
 10
0.42028
 20
0.11467
 30
 0
 40
0.05906
 50
180.00000
 51
270.00000
  0
LINE
  8
Contour
 62
   7
 39
0.004
  6
CONTINUOUS
 10
0.42028
 20
0.05561
 30
 0
 11
0.55217
 21
0.05561
  0
ARC
  8
Contour
 62
   7
 39
0.004
  6
CONTINUOUS
 10
0.55217
 20
0.11467
 30
 0
 40
0.05906
 50
270.00000
 51
360.00000
  0
LINE
  8
Contour
 62
   7
 39
0.004
  6
CONTINUOUS
 10
0.61122
 20
0.11467
 30
 0
 11
0.61122
 21
0.12156
  0
ARC
  8
Contour
 62
   7
 39
0.004
  6
CONTINUOUS
 10
0.55217
 20
0.12156
 30
 0
 40
0.05906
 50
360.00000
 51
450.00000
  0
LINE
  8
Contour
 62
   7
 39
0.004
  6
CONTINUOUS
 10
0.55217
 20
0.18061
 30
 0
 11
0.42028
 21
0.18061
  0
ARC
  8
Contour
 62
   7
 39
0.004
  6
CONTINUOUS
 10
0.42028
 20
0.12156
 30
 0
 40
0.05906
 50
90.00000
 51
180.00000
  0
LINE
  8
Contour
 62
   7
 39
0.004
  6
CONTINUOUS
 10
0.36122
 20
0.12156
 30
 0
 11
0.36122
 21
0.11467
  0
CIRCLE
  8
Contour
 62
   7
 39
0.004
  6
CONTINUOUS
 10
2.48622
 20
6.00000
 30
 0
 40
0.18504
  0
CIRCLE
  8
Contour
 62
   7
 39
0.004
  6
CONTINUOUS
 10
2.48622
 20
5.25000
 30
 0
 40
0.18504
  0
ARC
  8
Contour
 62
   7
 39
0.004
  6
CONTINUOUS
 10
2.48622
 20
4.50000
 30
 0
 40
0.16400
 50
51.06093
 51
128.93907
  0
ARC
  8
Contour
 62
   7
 39
0.004
  6
CONTINUOUS
 10
2.42028
 20
4.58163
 30
 0
 40
0.05906
 50
128.95182
 51
180.01863
  0
LINE
  8
Contour
 62
   7
 39
0.004
  6
CONTINUOUS
 10
2.36122
 20
4.58161
 30
 0
 11
2.36122
 21
4.41839
  0
ARC
  8
Contour
 62
   7
 39
0.004
  6
CONTINUOUS
 10
2.42028
 20
4.41837
 30
 0
 40
0.05906
 50
179.98137
 51
231.04818
  0
ARC
  8
Contour
 62
   7
 39
0.004
  6
CONTINUOUS
 10
2.48622
 20
4.50000
 30
 0
 40
0.16400
 50
231.06093
 51
308.93907
  0
ARC
  8
Contour
 62
   7
 39
0.004
  6
CONTINUOUS
 10
2.55217
 20
4.41837
 30
 0
 40
0.05906
 50
308.95182
 51
360.01863
  0
LINE
  8
Contour
 62
   7
 39
0.004
  6
CONTINUOUS
 10
2.61122
 20
4.41839
 30
 0
 11
2.61122
 21
4.58161
  0
ARC
  8
Contour
 62
   7
 39
0.004
  6
CONTINUOUS
 10
2.55217
 20
4.58163
 30
 0
 40
0.05906
 50
359.98137
 51
411.04818
  0
ARC
  8
Contour
 62
   7
 39
0.004
  6
CONTINUOUS
 10
2.48622
 20
3.75000
 30
 0
 40
0.16400
 50
51.06093
 51
128.93907
  0
ARC
  8
Contour
 62
   7
 39
0.004
  6
CONTINUOUS
 10
2.42028
 20
3.83163
 30
 0
 40
0.05906
 50
128.95182
 51
180.01863
  0
LINE
  8
Contour
 62
   7
 39
0.004
  6
CONTINUOUS
 10
2.36122
 20
3.83161
 30
 0
 11
2.36122
 21
3.66839
  0
ARC
  8
Contour
 62
   7
 39
0.004
  6
CONTINUOUS
 10
2.42028
 20
3.66837
 30
 0
 40
0.05906
 50
179.98137
 51
231.04818
  0
ARC
  8
Contour
 62
   7
 39
0.004
  6
CONTINUOUS
 10
2.48622
 20
3.75000
 30
 0
 40
0.16400
 50
231.06093
 51
308.93907
  0
ARC
  8
Contour
 62
   7
 39
0.004
  6
CONTINUOUS
 10
2.55217
 20
3.66837
 30
 0
 40
0.05906
 50
308.95182
 51
360.01863
  0
LINE
  8
Contour
 62
   7
 39
0.004
  6
CONTINUOUS
 10
2.61122
 20
3.66839
 30
 0
 11
2.61122
 21
3.83161
  0
ARC
  8
Contour
 62
   7
 39
0.004
  6
CONTINUOUS
 10
2.55217
 20
3.83163
 30
 0
 40
0.05906
 50
359.98137
 51
411.04818
  0
CIRCLE
  8
Contour
 62
   7
 39
0.004
  6
CONTINUOUS
 10
2.48622
 20
3.00000
 30
 0
 40
0.14764
  0
ARC
  8
Contour
 62
   7
 39
0.004
  6
CONTINUOUS
 10
0.48622
 20
6.00000
 30
 0
 40
0.16400
 50
51.06093
 51
128.93907
  0
ARC
  8
Contour
 62
   7
 39
0.004
  6
CONTINUOUS
 10
0.42028
 20
6.08163
 30
 0
 40
0.05906
 50
128.95182
 51
180.01863
  0
LINE
  8
Contour
 62
   7
 39
0.004
  6
CONTINUOUS
 10
0.36122
 20
6.08161
 30
 0
 11
0.36122
 21
5.91839
  0
ARC
  8
Contour
 62
   7
 39
0.004
  6
CONTINUOUS
 10
0.42028
 20
5.91837
 30
 0
 40
0.05906
 50
179.98137
 51
231.04818
  0
ARC
  8
Contour
 62
   7
 39
0.004
  6
CONTINUOUS
 10
0.48622
 20
6.00000
 30
 0
 40
0.16400
 50
231.06093
 51
308.93907
  0
ARC
  8
Contour
 62
   7
 39
0.004
  6
CONTINUOUS
 10
0.55217
 20
5.91837
 30
 0
 40
0.05906
 50
308.95182
 51
360.01863
  0
LINE
  8
Contour
 62
   7
 39
0.004
  6
CONTINUOUS
 10
0.61122
 20
5.91839
 30
 0
 11
0.61122
 21
6.08161
  0
ARC
  8
Contour
 62
   7
 39
0.004
  6
CONTINUOUS
 10
0.55217
 20
6.08163
 30
 0
 40
0.05906
 50
359.98137
 51
411.04818
  0
ARC
  8
Contour
 62
   7
 39
0.004
  6
CONTINUOUS
 10
0.48622
 20
5.25000
 30
 0
 40
0.16400
 50
51.06093
 51
128.93907
  0
ARC
  8
Contour
 62
   7
 39
0.004
  6
CONTINUOUS
 10
0.42028
 20
5.33163
 30
 0
 40
0.05906
 50
128.95182
 51
180.01863
  0
LINE
  8
Contour
 62
   7
 39
0.004
  6
CONTINUOUS
 10
0.36122
 20
5.33161
 30
 0
 11
0.36122
 21
5.16839
  0
ARC
  8
Contour
 62
   7
 39
0.004
  6
CONTINUOUS
 10
0.42028
 20
5.16837
 30
 0
 40
0.05906
 50
179.98137
 51
231.04818
  0
ARC
  8
Contour
 62
   7
 39
0.004
  6
CONTINUOUS
 10
0.48622
 20
5.25000
 30
 0
 40
0.16400
 50
231.06093
 51
308.93907
  0
ARC
  8
Contour
 62
   7
 39
0.004
  6
CONTINUOUS
 10
0.55217
 20
5.16837
 30
 0
 40
0.05906
 50
308.95182
 51
360.01863
  0
LINE
  8
Contour
 62
   7
 39
0.004
  6
CONTINUOUS
 10
0.61122
 20
5.16839
 30
 0
 11
0.61122
 21
5.33161
  0
ARC
  8
Contour
 62
   7
 39
0.004
  6
CONTINUOUS
 10
0.55217
 20
5.33163
 30
 0
 40
0.05906
 50
359.98137
 51
411.04818
  0
CIRCLE
  8
Contour
 62
   7
 39
0.004
  6
CONTINUOUS
 10
0.48622
 20
4.50000
 30
 0
 40
0.14764
  0
CIRCLE
  8
Contour
 62
   7
 39
0.004
  6
CONTINUOUS
 10
0.48622
 20
3.75000
 30
 0
 40
0.14764
  0
ARC
  8
Contour
 62
   7
 39
0.004
  6
CONTINUOUS
 10
0.48622
 20
3.00000
 30
 0
 40
0.16400
 50
51.06093
 51
128.93907
  0
ARC
  8
Contour
 62
   7
 39
0.004
  6
CONTINUOUS
 10
0.42028
 20
3.08163
 30
 0
 40
0.05906
 50
128.95182
 51
180.01863
  0
LINE
  8
Contour
 62
   7
 39
0.004
  6
CONTINUOUS
 10
0.36122
 20
3.08161
 30
 0
 11
0.36122
 21
2.91839
  0
ARC
  8
Contour
 62
   7
 39
0.004
  6
CONTINUOUS
 10
0.42028
 20
2.91837
 30
 0
 40
0.05906
 50
179.98137
 51
231.04818
  0
ARC
  8
Contour
 62
   7
 39
0.004
  6
CONTINUOUS
 10
0.48622
 20
3.00000
 30
 0
 40
0.16400
 50
231.06093
 51
308.93907
  0
ARC
  8
Contour
 62
   7
 39
0.004
  6
CONTINUOUS
 10
0.55217
 20
2.91837
 30
 0
 40
0.05906
 50
308.95182
 51
360.01863
  0
LINE
  8
Contour
 62
   7
 39
0.004
  6
CONTINUOUS
 10
0.61122
 20
2.91839
 30
 0
 11
0.61122
 21
3.08161
  0
ARC
  8
Contour
 62
   7
 39
0.004
  6
CONTINUOUS
 10
0.55217
 20
3.08163
 30
 0
 40
0.05906
 50
359.98137
 51
411.04818
  0
CIRCLE
  8
Contour
 62
   7
 39
0.004
  6
CONTINUOUS
 10
0.48622
 20
2.25000
 30
 0
 40
0.14764
  0
CIRCLE
  8
Contour
 62
   7
 39
0.004
  6
CONTINUOUS
 10
0.48622
 20
0.75000
 30
 0
 40
0.14764
  0
CIRCLE
  8
Contour
 62
   7
 39
0.004
  6
CONTINUOUS
 10
0.48622
 20
1.50000
 30
 0
 40
0.14764
  0
ARC
  8
Contour
 62
   7
 39
0.004
  6
CONTINUOUS
 10
1.48622
 20
6.00000
 30
 0
 40
0.16400
 50
51.06093
 51
128.93907
  0
ARC
  8
Contour
 62
   7
 39
0.004
  6
CONTINUOUS
 10
1.42028
 20
6.08163
 30
 0
 40
0.05906
 50
128.95182
 51
180.01863
  0
LINE
  8
Contour
 62
   7
 39
0.004
  6
CONTINUOUS
 10
1.36122
 20
6.08161
 30
 0
 11
1.36122
 21
5.91839
  0
ARC
  8
Contour
 62
   7
 39
0.004
  6
CONTINUOUS
 10
1.42028
 20
5.91837
 30
 0
 40
0.05906
 50
179.98137
 51
231.04818
  0
ARC
  8
Contour
 62
   7
 39
0.004
  6
CONTINUOUS
 10
1.48622
 20
6.00000
 30
 0
 40
0.16400
 50
231.06093
 51
308.93907
  0
ARC
  8
Contour
 62
   7
 39
0.004
  6
CONTINUOUS
 10
1.55217
 20
5.91837
 30
 0
 40
0.05906
 50
308.95182
 51
360.01863
  0
LINE
  8
Contour
 62
   7
 39
0.004
  6
CONTINUOUS
 10
1.61122
 20
5.91839
 30
 0
 11
1.61122
 21
6.08161
  0
ARC
  8
Contour
 62
   7
 39
0.004
  6
CONTINUOUS
 10
1.55217
 20
6.08163
 30
 0
 40
0.05906
 50
359.98137
 51
411.04818
  0
ARC
  8
Contour
 62
   7
 39
0.004
  6
CONTINUOUS
 10
1.48622
 20
5.25000
 30
 0
 40
0.16400
 50
51.06093
 51
128.93907
  0
ARC
  8
Contour
 62
   7
 39
0.004
  6
CONTINUOUS
 10
1.42028
 20
5.33163
 30
 0
 40
0.05906
 50
128.95182
 51
180.01863
  0
LINE
  8
Contour
 62
   7
 39
0.004
  6
CONTINUOUS
 10
1.36122
 20
5.33161
 30
 0
 11
1.36122
 21
5.16839
  0
ARC
  8
Contour
 62
   7
 39
0.004
  6
CONTINUOUS
 10
1.42028
 20
5.16837
 30
 0
 40
0.05906
 50
179.98137
 51
231.04818
  0
ARC
  8
Contour
 62
   7
 39
0.004
  6
CONTINUOUS
 10
1.48622
 20
5.25000
 30
 0
 40
0.16400
 50
231.06093
 51
308.93907
  0
ARC
  8
Contour
 62
   7
 39
0.004
  6
CONTINUOUS
 10
1.55217
 20
5.16837
 30
 0
 40
0.05906
 50
308.95182
 51
360.01863
  0
LINE
  8
Contour
 62
   7
 39
0.004
  6
CONTINUOUS
 10
1.61122
 20
5.16839
 30
 0
 11
1.61122
 21
5.33161
  0
ARC
  8
Contour
 62
   7
 39
0.004
  6
CONTINUOUS
 10
1.55217
 20
5.33163
 30
 0
 40
0.05906
 50
359.98137
 51
411.04818
  0
CIRCLE
  8
Contour
 62
   7
 39
0.004
  6
CONTINUOUS
 10
1.48622
 20
4.50000
 30
 0
 40
0.14764
  0
CIRCLE
  8
Contour
 62
   7
 39
0.004
  6
CONTINUOUS
 10
1.48622
 20
3.75000
 30
 0
 40
0.14764
  0
ARC
  8
Contour
 62
   7
 39
0.004
  6
CONTINUOUS
 10
1.48622
 20
3.00000
 30
 0
 40
0.16400
 50
51.06093
 51
128.93907
  0
ARC
  8
Contour
 62
   7
 39
0.004
  6
CONTINUOUS
 10
1.42028
 20
3.08163
 30
 0
 40
0.05906
 50
128.95182
 51
180.01863
  0
LINE
  8
Contour
 62
   7
 39
0.004
  6
CONTINUOUS
 10
1.36122
 20
3.08161
 30
 0
 11
1.36122
 21
2.91839
  0
ARC
  8
Contour
 62
   7
 39
0.004
  6
CONTINUOUS
 10
1.42028
 20
2.91837
 30
 0
 40
0.05906
 50
179.98137
 51
231.04818
  0
ARC
  8
Contour
 62
   7
 39
0.004
  6
CONTINUOUS
 10
1.48622
 20
3.00000
 30
 0
 40
0.16400
 50
231.06093
 51
308.93907
  0
ARC
  8
Contour
 62
   7
 39
0.004
  6
CONTINUOUS
 10
1.55217
 20
2.91837
 30
 0
 40
0.05906
 50
308.95182
 51
360.01863
  0
LINE
  8
Contour
 62
   7
 39
0.004
  6
CONTINUOUS
 10
1.61122
 20
2.91839
 30
 0
 11
1.61122
 21
3.08161
  0
ARC
  8
Contour
 62
   7
 39
0.004
  6
CONTINUOUS
 10
1.55217
 20
3.08163
 30
 0
 40
0.05906
 50
359.98137
 51
411.04818
  0
CIRCLE
  8
Contour
 62
   7
 39
0.004
  6
CONTINUOUS
 10
1.48622
 20
2.25000
 30
 0
 40
0.14764
  0
CIRCLE
  8
Contour
 62
   7
 39
0.004
  6
CONTINUOUS
 10
1.48622
 20
0.75000
 30
 0
 40
0.14764
  0
CIRCLE
  8
Contour
 62
   7
 39
0.004
  6
CONTINUOUS
 10
1.48622
 20
1.50000
 30
 0
 40
0.14764
  0
ARC
  8
Contour
 62
   7
 39
0.004
  6
CONTINUOUS
 10
2.48622
 20
1.50000
 30
 0
 40
0.16400
 50
51.06093
 51
128.93907
  0
ARC
  8
Contour
 62
   7
 39
0.004
  6
CONTINUOUS
 10
2.42028
 20
1.58163
 30
 0
 40
0.05906
 50
128.95182
 51
180.01863
  0
LINE
  8
Contour
 62
   7
 39
0.004
  6
CONTINUOUS
 10
2.36122
 20
1.58161
 30
 0
 11
2.36122
 21
1.41839
  0
ARC
  8
Contour
 62
   7
 39
0.004
  6
CONTINUOUS
 10
2.42028
 20
1.41837
 30
 0
 40
0.05906
 50
179.98137
 51
231.04818
  0
ARC
  8
Contour
 62
   7
 39
0.004
  6
CONTINUOUS
 10
2.48622
 20
1.50000
 30
 0
 40
0.16400
 50
231.06093
 51
308.93907
  0
ARC
  8
Contour
 62
   7
 39
0.004
  6
CONTINUOUS
 10
2.55217
 20
1.41837
 30
 0
 40
0.05906
 50
308.95182
 51
360.01863
  0
LINE
  8
Contour
 62
   7
 39
0.004
  6
CONTINUOUS
 10
2.61122
 20
1.41839
 30
 0
 11
2.61122
 21
1.58161
  0
ARC
  8
Contour
 62
   7
 39
0.004
  6
CONTINUOUS
 10
2.55217
 20
1.58163
 30
 0
 40
0.05906
 50
359.98137
 51
411.04818
  0
ARC
  8
Contour
 62
   7
 39
0.004
  6
CONTINUOUS
 10
2.48622
 20
0.75000
 30
 0
 40
0.16400
 50
51.06093
 51
128.93907
  0
ARC
  8
Contour
 62
   7
 39
0.004
  6
CONTINUOUS
 10
2.42028
 20
0.83163
 30
 0
 40
0.05906
 50
128.95182
 51
180.01863
  0
LINE
  8
Contour
 62
   7
 39
0.004
  6
CONTINUOUS
 10
2.36122
 20
0.83161
 30
 0
 11
2.36122
 21
0.66839
  0
ARC
  8
Contour
 62
   7
 39
0.004
  6
CONTINUOUS
 10
2.42028
 20
0.66837
 30
 0
 40
0.05906
 50
179.98137
 51
231.04818
  0
ARC
  8
Contour
 62
   7
 39
0.004
  6
CONTINUOUS
 10
2.48622
 20
0.75000
 30
 0
 40
0.16400
 50
231.06093
 51
308.93907
  0
ARC
  8
Contour
 62
   7
 39
0.004
  6
CONTINUOUS
 10
2.55217
 20
0.66837
 30
 0
 40
0.05906
 50
308.95182
 51
360.01863
  0
LINE
  8
Contour
 62
   7
 39
0.004
  6
CONTINUOUS
 10
2.61122
 20
0.66839
 30
 0
 11
2.61122
 21
0.83161
  0
ARC
  8
Contour
 62
   7
 39
0.004
  6
CONTINUOUS
 10
2.55217
 20
0.83163
 30
 0
 40
0.05906
 50
359.98137
 51
411.04818
  0
ENDSEC
  0
EOF
