  0
SECTION
  2
HEADER
  9
$MEASUREMENT
  70
  0
  9
$INSUNITS
  70
  1
  0
ENDSEC
  0
SECTION
  2
TABLES
  0
TABLE
  2
LTYPE
 70
     1
  0
LTYPE
  2
CONTINUOUS
 70
    64
  3
Ausgezogene Linie
 72
    65
 73
     0
 40
0.0
  0
ENDTAB
  0
TABLE
  2
LAYER
 70
     3
  0
LAYER
  2
Contour
 70
    64
 62
     7
  6
CONTINUOUS
  0
LAYER
  2
Engraving
 70
    64
 62
     7
  6
CONTINUOUS
  0
LAYER
  2
Reference_points
 70
    64
 62
     1
  6
CONTINUOUS
  0
ENDTAB
  0
TABLE
  2
STYLE
 70
     1
  0
STYLE
  2
TXT
 70
    64
 40
0.0
 41
1.0
 50
0.0
 71
     0
 42
3.500000
  3
TXT
  0
ENDTAB
  0
ENDSEC
  0
SECTION
  2
BLOCKS
  0
ENDSEC
  0
SECTION
  2
ENTITIES
  0
LINE
  8
Contour
 62
   7
 39
0.004
  6
CONTINUOUS
 10
16.00000
 20
0.50000
 30
 0
 11
16.00000
 21
0.00000
  0
LINE
  8
Contour
 62
   7
 39
0.004
  6
CONTINUOUS
 10
16.00000
 20
0.00000
 30
 0
 11
0.00000
 21
0.00000
  0
LINE
  8
Contour
 62
   7
 39
0.004
  6
CONTINUOUS
 10
0.00000
 20
0.00000
 30
 0
 11
0.00000
 21
0.50000
  0
LINE
  8
Contour
 62
   7
 39
0.004
  6
CONTINUOUS
 10
0.00000
 20
0.50000
 30
 0
 11
16.00000
 21
0.50000
  0
CIRCLE
  8
Contour
 62
   7
 39
0.004
  6
CONTINUOUS
 10
0.15000
 20
0.35000
 30
 0
 40
0.05906
  0
CIRCLE
  8
Contour
 62
   7
 39
0.004
  6
CONTINUOUS
 10
0.85000
 20
0.35000
 30
 0
 40
0.05906
  0
CIRCLE
  8
Contour
 62
   7
 39
0.004
  6
CONTINUOUS
 10
1.85000
 20
0.35000
 30
 0
 40
0.05906
  0
CIRCLE
  8
Contour
 62
   7
 39
0.004
  6
CONTINUOUS
 10
1.15000
 20
0.35000
 30
 0
 40
0.05906
  0
CIRCLE
  8
Contour
 62
   7
 39
0.004
  6
CONTINUOUS
 10
2.15000
 20
0.35000
 30
 0
 40
0.05906
  0
CIRCLE
  8
Contour
 62
   7
 39
0.004
  6
CONTINUOUS
 10
2.85000
 20
0.35000
 30
 0
 40
0.05906
  0
CIRCLE
  8
Contour
 62
   7
 39
0.004
  6
CONTINUOUS
 10
3.85000
 20
0.35000
 30
 0
 40
0.05906
  0
CIRCLE
  8
Contour
 62
   7
 39
0.004
  6
CONTINUOUS
 10
3.15000
 20
0.35000
 30
 0
 40
0.05906
  0
CIRCLE
  8
Contour
 62
   7
 39
0.004
  6
CONTINUOUS
 10
4.15000
 20
0.35000
 30
 0
 40
0.05906
  0
CIRCLE
  8
Contour
 62
   7
 39
0.004
  6
CONTINUOUS
 10
4.85000
 20
0.35000
 30
 0
 40
0.05906
  0
CIRCLE
  8
Contour
 62
   7
 39
0.004
  6
CONTINUOUS
 10
5.85000
 20
0.35000
 30
 0
 40
0.05906
  0
CIRCLE
  8
Contour
 62
   7
 39
0.004
  6
CONTINUOUS
 10
5.15000
 20
0.35000
 30
 0
 40
0.05906
  0
CIRCLE
  8
Contour
 62
   7
 39
0.004
  6
CONTINUOUS
 10
6.15000
 20
0.35000
 30
 0
 40
0.05906
  0
CIRCLE
  8
Contour
 62
   7
 39
0.004
  6
CONTINUOUS
 10
6.85000
 20
0.35000
 30
 0
 40
0.05906
  0
CIRCLE
  8
Contour
 62
   7
 39
0.004
  6
CONTINUOUS
 10
7.85000
 20
0.35000
 30
 0
 40
0.05906
  0
CIRCLE
  8
Contour
 62
   7
 39
0.004
  6
CONTINUOUS
 10
7.15000
 20
0.35000
 30
 0
 40
0.05906
  0
CIRCLE
  8
Contour
 62
   7
 39
0.004
  6
CONTINUOUS
 10
8.15000
 20
0.35000
 30
 0
 40
0.05906
  0
CIRCLE
  8
Contour
 62
   7
 39
0.004
  6
CONTINUOUS
 10
8.85000
 20
0.35000
 30
 0
 40
0.05906
  0
CIRCLE
  8
Contour
 62
   7
 39
0.004
  6
CONTINUOUS
 10
9.85000
 20
0.35000
 30
 0
 40
0.05906
  0
CIRCLE
  8
Contour
 62
   7
 39
0.004
  6
CONTINUOUS
 10
9.15000
 20
0.35000
 30
 0
 40
0.05906
  0
CIRCLE
  8
Contour
 62
   7
 39
0.004
  6
CONTINUOUS
 10
10.15000
 20
0.35000
 30
 0
 40
0.05906
  0
CIRCLE
  8
Contour
 62
   7
 39
0.004
  6
CONTINUOUS
 10
10.85000
 20
0.35000
 30
 0
 40
0.05906
  0
CIRCLE
  8
Contour
 62
   7
 39
0.004
  6
CONTINUOUS
 10
11.85000
 20
0.35000
 30
 0
 40
0.05906
  0
CIRCLE
  8
Contour
 62
   7
 39
0.004
  6
CONTINUOUS
 10
11.15000
 20
0.35000
 30
 0
 40
0.05906
  0
CIRCLE
  8
Contour
 62
   7
 39
0.004
  6
CONTINUOUS
 10
12.15000
 20
0.35000
 30
 0
 40
0.05906
  0
CIRCLE
  8
Contour
 62
   7
 39
0.004
  6
CONTINUOUS
 10
12.85000
 20
0.35000
 30
 0
 40
0.05906
  0
CIRCLE
  8
Contour
 62
   7
 39
0.004
  6
CONTINUOUS
 10
13.85000
 20
0.35000
 30
 0
 40
0.05906
  0
CIRCLE
  8
Contour
 62
   7
 39
0.004
  6
CONTINUOUS
 10
13.15000
 20
0.35000
 30
 0
 40
0.05906
  0
CIRCLE
  8
Contour
 62
   7
 39
0.004
  6
CONTINUOUS
 10
14.15000
 20
0.35000
 30
 0
 40
0.05906
  0
CIRCLE
  8
Contour
 62
   7
 39
0.004
  6
CONTINUOUS
 10
14.85000
 20
0.35000
 30
 0
 40
0.05906
  0
CIRCLE
  8
Contour
 62
   7
 39
0.004
  6
CONTINUOUS
 10
15.85000
 20
0.35000
 30
 0
 40
0.05906
  0
CIRCLE
  8
Contour
 62
   7
 39
0.004
  6
CONTINUOUS
 10
15.15000
 20
0.35000
 30
 0
 40
0.05906
  0
LINE
  8
Reference_points
 62
   1
 39
0.004
  6
CONTINUOUS
 10
-0.04677
 20
0.00000
 30
 0
 11
0.04677
 21
0.00000
  0
LINE
  8
Reference_points
 62
   1
 39
0.004
  6
CONTINUOUS
 10
0.00000
 20
-0.04677
 30
 0
 11
0.00000
 21
0.04677
  0
LINE
  8
Reference_points
 62
   1
 39
0.004
  6
CONTINUOUS
 10
0.10323
 20
0.35000
 30
 0
 11
0.19677
 21
0.35000
  0
LINE
  8
Reference_points
 62
   1
 39
0.004
  6
CONTINUOUS
 10
0.15000
 20
0.30323
 30
 0
 11
0.15000
 21
0.39677
  0
LINE
  8
Reference_points
 62
   1
 39
0.004
  6
CONTINUOUS
 10
0.80323
 20
0.35000
 30
 0
 11
0.89677
 21
0.35000
  0
LINE
  8
Reference_points
 62
   1
 39
0.004
  6
CONTINUOUS
 10
0.85000
 20
0.30323
 30
 0
 11
0.85000
 21
0.39677
  0
LINE
  8
Reference_points
 62
   1
 39
0.004
  6
CONTINUOUS
 10
1.80323
 20
0.35000
 30
 0
 11
1.89677
 21
0.35000
  0
LINE
  8
Reference_points
 62
   1
 39
0.004
  6
CONTINUOUS
 10
1.85000
 20
0.30323
 30
 0
 11
1.85000
 21
0.39677
  0
LINE
  8
Reference_points
 62
   1
 39
0.004
  6
CONTINUOUS
 10
1.10323
 20
0.35000
 30
 0
 11
1.19677
 21
0.35000
  0
LINE
  8
Reference_points
 62
   1
 39
0.004
  6
CONTINUOUS
 10
1.15000
 20
0.30323
 30
 0
 11
1.15000
 21
0.39677
  0
LINE
  8
Reference_points
 62
   1
 39
0.004
  6
CONTINUOUS
 10
2.10323
 20
0.35000
 30
 0
 11
2.19677
 21
0.35000
  0
LINE
  8
Reference_points
 62
   1
 39
0.004
  6
CONTINUOUS
 10
2.15000
 20
0.30323
 30
 0
 11
2.15000
 21
0.39677
  0
LINE
  8
Reference_points
 62
   1
 39
0.004
  6
CONTINUOUS
 10
2.80323
 20
0.35000
 30
 0
 11
2.89677
 21
0.35000
  0
LINE
  8
Reference_points
 62
   1
 39
0.004
  6
CONTINUOUS
 10
2.85000
 20
0.30323
 30
 0
 11
2.85000
 21
0.39677
  0
LINE
  8
Reference_points
 62
   1
 39
0.004
  6
CONTINUOUS
 10
3.80323
 20
0.35000
 30
 0
 11
3.89677
 21
0.35000
  0
LINE
  8
Reference_points
 62
   1
 39
0.004
  6
CONTINUOUS
 10
3.85000
 20
0.30323
 30
 0
 11
3.85000
 21
0.39677
  0
LINE
  8
Reference_points
 62
   1
 39
0.004
  6
CONTINUOUS
 10
3.10323
 20
0.35000
 30
 0
 11
3.19677
 21
0.35000
  0
LINE
  8
Reference_points
 62
   1
 39
0.004
  6
CONTINUOUS
 10
3.15000
 20
0.30323
 30
 0
 11
3.15000
 21
0.39677
  0
LINE
  8
Reference_points
 62
   1
 39
0.004
  6
CONTINUOUS
 10
4.10323
 20
0.35000
 30
 0
 11
4.19677
 21
0.35000
  0
LINE
  8
Reference_points
 62
   1
 39
0.004
  6
CONTINUOUS
 10
4.15000
 20
0.30323
 30
 0
 11
4.15000
 21
0.39677
  0
LINE
  8
Reference_points
 62
   1
 39
0.004
  6
CONTINUOUS
 10
4.80323
 20
0.35000
 30
 0
 11
4.89677
 21
0.35000
  0
LINE
  8
Reference_points
 62
   1
 39
0.004
  6
CONTINUOUS
 10
4.85000
 20
0.30323
 30
 0
 11
4.85000
 21
0.39677
  0
LINE
  8
Reference_points
 62
   1
 39
0.004
  6
CONTINUOUS
 10
5.80323
 20
0.35000
 30
 0
 11
5.89677
 21
0.35000
  0
LINE
  8
Reference_points
 62
   1
 39
0.004
  6
CONTINUOUS
 10
5.85000
 20
0.30323
 30
 0
 11
5.85000
 21
0.39677
  0
LINE
  8
Reference_points
 62
   1
 39
0.004
  6
CONTINUOUS
 10
5.10323
 20
0.35000
 30
 0
 11
5.19677
 21
0.35000
  0
LINE
  8
Reference_points
 62
   1
 39
0.004
  6
CONTINUOUS
 10
5.15000
 20
0.30323
 30
 0
 11
5.15000
 21
0.39677
  0
LINE
  8
Reference_points
 62
   1
 39
0.004
  6
CONTINUOUS
 10
6.10323
 20
0.35000
 30
 0
 11
6.19677
 21
0.35000
  0
LINE
  8
Reference_points
 62
   1
 39
0.004
  6
CONTINUOUS
 10
6.15000
 20
0.30323
 30
 0
 11
6.15000
 21
0.39677
  0
LINE
  8
Reference_points
 62
   1
 39
0.004
  6
CONTINUOUS
 10
6.80323
 20
0.35000
 30
 0
 11
6.89677
 21
0.35000
  0
LINE
  8
Reference_points
 62
   1
 39
0.004
  6
CONTINUOUS
 10
6.85000
 20
0.30323
 30
 0
 11
6.85000
 21
0.39677
  0
LINE
  8
Reference_points
 62
   1
 39
0.004
  6
CONTINUOUS
 10
7.80323
 20
0.35000
 30
 0
 11
7.89677
 21
0.35000
  0
LINE
  8
Reference_points
 62
   1
 39
0.004
  6
CONTINUOUS
 10
7.85000
 20
0.30323
 30
 0
 11
7.85000
 21
0.39677
  0
LINE
  8
Reference_points
 62
   1
 39
0.004
  6
CONTINUOUS
 10
7.10323
 20
0.35000
 30
 0
 11
7.19677
 21
0.35000
  0
LINE
  8
Reference_points
 62
   1
 39
0.004
  6
CONTINUOUS
 10
7.15000
 20
0.30323
 30
 0
 11
7.15000
 21
0.39677
  0
LINE
  8
Reference_points
 62
   1
 39
0.004
  6
CONTINUOUS
 10
8.10323
 20
0.35000
 30
 0
 11
8.19677
 21
0.35000
  0
LINE
  8
Reference_points
 62
   1
 39
0.004
  6
CONTINUOUS
 10
8.15000
 20
0.30323
 30
 0
 11
8.15000
 21
0.39677
  0
LINE
  8
Reference_points
 62
   1
 39
0.004
  6
CONTINUOUS
 10
8.80323
 20
0.35000
 30
 0
 11
8.89677
 21
0.35000
  0
LINE
  8
Reference_points
 62
   1
 39
0.004
  6
CONTINUOUS
 10
8.85000
 20
0.30323
 30
 0
 11
8.85000
 21
0.39677
  0
LINE
  8
Reference_points
 62
   1
 39
0.004
  6
CONTINUOUS
 10
9.80323
 20
0.35000
 30
 0
 11
9.89677
 21
0.35000
  0
LINE
  8
Reference_points
 62
   1
 39
0.004
  6
CONTINUOUS
 10
9.85000
 20
0.30323
 30
 0
 11
9.85000
 21
0.39677
  0
LINE
  8
Reference_points
 62
   1
 39
0.004
  6
CONTINUOUS
 10
9.10323
 20
0.35000
 30
 0
 11
9.19677
 21
0.35000
  0
LINE
  8
Reference_points
 62
   1
 39
0.004
  6
CONTINUOUS
 10
9.15000
 20
0.30323
 30
 0
 11
9.15000
 21
0.39677
  0
LINE
  8
Reference_points
 62
   1
 39
0.004
  6
CONTINUOUS
 10
10.10323
 20
0.35000
 30
 0
 11
10.19677
 21
0.35000
  0
LINE
  8
Reference_points
 62
   1
 39
0.004
  6
CONTINUOUS
 10
10.15000
 20
0.30323
 30
 0
 11
10.15000
 21
0.39677
  0
LINE
  8
Reference_points
 62
   1
 39
0.004
  6
CONTINUOUS
 10
10.80323
 20
0.35000
 30
 0
 11
10.89677
 21
0.35000
  0
LINE
  8
Reference_points
 62
   1
 39
0.004
  6
CONTINUOUS
 10
10.85000
 20
0.30323
 30
 0
 11
10.85000
 21
0.39677
  0
LINE
  8
Reference_points
 62
   1
 39
0.004
  6
CONTINUOUS
 10
11.80323
 20
0.35000
 30
 0
 11
11.89677
 21
0.35000
  0
LINE
  8
Reference_points
 62
   1
 39
0.004
  6
CONTINUOUS
 10
11.85000
 20
0.30323
 30
 0
 11
11.85000
 21
0.39677
  0
LINE
  8
Reference_points
 62
   1
 39
0.004
  6
CONTINUOUS
 10
11.10323
 20
0.35000
 30
 0
 11
11.19677
 21
0.35000
  0
LINE
  8
Reference_points
 62
   1
 39
0.004
  6
CONTINUOUS
 10
11.15000
 20
0.30323
 30
 0
 11
11.15000
 21
0.39677
  0
LINE
  8
Reference_points
 62
   1
 39
0.004
  6
CONTINUOUS
 10
12.10323
 20
0.35000
 30
 0
 11
12.19677
 21
0.35000
  0
LINE
  8
Reference_points
 62
   1
 39
0.004
  6
CONTINUOUS
 10
12.15000
 20
0.30323
 30
 0
 11
12.15000
 21
0.39677
  0
LINE
  8
Reference_points
 62
   1
 39
0.004
  6
CONTINUOUS
 10
12.80323
 20
0.35000
 30
 0
 11
12.89677
 21
0.35000
  0
LINE
  8
Reference_points
 62
   1
 39
0.004
  6
CONTINUOUS
 10
12.85000
 20
0.30323
 30
 0
 11
12.85000
 21
0.39677
  0
LINE
  8
Reference_points
 62
   1
 39
0.004
  6
CONTINUOUS
 10
13.80323
 20
0.35000
 30
 0
 11
13.89677
 21
0.35000
  0
LINE
  8
Reference_points
 62
   1
 39
0.004
  6
CONTINUOUS
 10
13.85000
 20
0.30323
 30
 0
 11
13.85000
 21
0.39677
  0
LINE
  8
Reference_points
 62
   1
 39
0.004
  6
CONTINUOUS
 10
13.10323
 20
0.35000
 30
 0
 11
13.19677
 21
0.35000
  0
LINE
  8
Reference_points
 62
   1
 39
0.004
  6
CONTINUOUS
 10
13.15000
 20
0.30323
 30
 0
 11
13.15000
 21
0.39677
  0
LINE
  8
Reference_points
 62
   1
 39
0.004
  6
CONTINUOUS
 10
14.10323
 20
0.35000
 30
 0
 11
14.19677
 21
0.35000
  0
LINE
  8
Reference_points
 62
   1
 39
0.004
  6
CONTINUOUS
 10
14.15000
 20
0.30323
 30
 0
 11
14.15000
 21
0.39677
  0
LINE
  8
Reference_points
 62
   1
 39
0.004
  6
CONTINUOUS
 10
14.80323
 20
0.35000
 30
 0
 11
14.89677
 21
0.35000
  0
LINE
  8
Reference_points
 62
   1
 39
0.004
  6
CONTINUOUS
 10
14.85000
 20
0.30323
 30
 0
 11
14.85000
 21
0.39677
  0
LINE
  8
Reference_points
 62
   1
 39
0.004
  6
CONTINUOUS
 10
15.80323
 20
0.35000
 30
 0
 11
15.89677
 21
0.35000
  0
LINE
  8
Reference_points
 62
   1
 39
0.004
  6
CONTINUOUS
 10
15.85000
 20
0.30323
 30
 0
 11
15.85000
 21
0.39677
  0
LINE
  8
Reference_points
 62
   1
 39
0.004
  6
CONTINUOUS
 10
15.10323
 20
0.35000
 30
 0
 11
15.19677
 21
0.35000
  0
LINE
  8
Reference_points
 62
   1
 39
0.004
  6
CONTINUOUS
 10
15.15000
 20
0.30323
 30
 0
 11
15.15000
 21
0.39677
  0
ENDSEC
  0
EOF
