  0
SECTION
  2
HEADER
  9
$MEASUREMENT
  70
  0
  9
$INSUNITS
  70
  1
  0
ENDSEC
  0
SECTION
  2
TABLES
  0
TABLE
  2
LTYPE
 70
     1
  0
LTYPE
  2
CONTINUOUS
 70
    64
  3
Ausgezogene Linie
 72
    65
 73
     0
 40
0.0
  0
ENDTAB
  0
TABLE
  2
LAYER
 70
     3
  0
LAYER
  2
Contour
 70
    64
 62
     7
  6
CONTINUOUS
  0
LAYER
  2
Engraving
 70
    64
 62
     7
  6
CONTINUOUS
  0
LAYER
  2
Reference_points
 70
    64
 62
     1
  6
CONTINUOUS
  0
ENDTAB
  0
TABLE
  2
STYLE
 70
     1
  0
STYLE
  2
TXT
 70
    64
 40
0.0
 41
1.0
 50
0.0
 71
     0
 42
3.500000
  3
TXT
  0
ENDTAB
  0
ENDSEC
  0
SECTION
  2
BLOCKS
  0
ENDSEC
  0
SECTION
  2
ENTITIES
  0
LINE
  8
Contour
 62
   7
 39
0.004
  6
CONTINUOUS
 10
0.50000
 20
6.00000
 30
 0
 11
0.50000
 21
0.00000
  0
LINE
  8
Contour
 62
   7
 39
0.004
  6
CONTINUOUS
 10
0.50000
 20
0.00000
 30
 0
 11
0.00000
 21
0.00000
  0
LINE
  8
Contour
 62
   7
 39
0.004
  6
CONTINUOUS
 10
0.00000
 20
0.00000
 30
 0
 11
0.00000
 21
6.00000
  0
LINE
  8
Contour
 62
   7
 39
0.004
  6
CONTINUOUS
 10
0.00000
 20
6.00000
 30
 0
 11
0.50000
 21
6.00000
  0
CIRCLE
  8
Contour
 62
   7
 39
0.004
  6
CONTINUOUS
 10
0.10000
 20
5.85000
 30
 0
 40
0.05906
  0
CIRCLE
  8
Contour
 62
   7
 39
0.004
  6
CONTINUOUS
 10
0.40000
 20
5.85000
 30
 0
 40
0.05906
  0
CIRCLE
  8
Contour
 62
   7
 39
0.004
  6
CONTINUOUS
 10
0.10000
 20
0.15000
 30
 0
 40
0.05906
  0
CIRCLE
  8
Contour
 62
   7
 39
0.004
  6
CONTINUOUS
 10
0.40000
 20
0.15000
 30
 0
 40
0.05906
  0
CIRCLE
  8
Contour
 62
   7
 39
0.004
  6
CONTINUOUS
 10
0.25000
 20
4.75000
 30
 0
 40
0.05906
  0
CIRCLE
  8
Contour
 62
   7
 39
0.004
  6
CONTINUOUS
 10
0.25000
 20
1.75000
 30
 0
 40
0.05906
  0
CIRCLE
  8
Contour
 62
   7
 39
0.004
  6
CONTINUOUS
 10
0.25000
 20
1.00000
 30
 0
 40
0.05906
  0
CIRCLE
  8
Contour
 62
   7
 39
0.004
  6
CONTINUOUS
 10
0.25000
 20
4.00000
 30
 0
 40
0.05906
  0
LINE
  8
Reference_points
 62
   1
 39
0.004
  6
CONTINUOUS
 10
-0.02933
 20
0.00000
 30
 0
 11
0.02933
 21
0.00000
  0
LINE
  8
Reference_points
 62
   1
 39
0.004
  6
CONTINUOUS
 10
0.00000
 20
-0.02933
 30
 0
 11
0.00000
 21
0.02933
  0
LINE
  8
Reference_points
 62
   1
 39
0.004
  6
CONTINUOUS
 10
0.07067
 20
5.85000
 30
 0
 11
0.12933
 21
5.85000
  0
LINE
  8
Reference_points
 62
   1
 39
0.004
  6
CONTINUOUS
 10
0.10000
 20
5.82067
 30
 0
 11
0.10000
 21
5.87933
  0
LINE
  8
Reference_points
 62
   1
 39
0.004
  6
CONTINUOUS
 10
0.37067
 20
5.85000
 30
 0
 11
0.42933
 21
5.85000
  0
LINE
  8
Reference_points
 62
   1
 39
0.004
  6
CONTINUOUS
 10
0.40000
 20
5.82067
 30
 0
 11
0.40000
 21
5.87933
  0
LINE
  8
Reference_points
 62
   1
 39
0.004
  6
CONTINUOUS
 10
0.07067
 20
0.15000
 30
 0
 11
0.12933
 21
0.15000
  0
LINE
  8
Reference_points
 62
   1
 39
0.004
  6
CONTINUOUS
 10
0.10000
 20
0.12067
 30
 0
 11
0.10000
 21
0.17933
  0
LINE
  8
Reference_points
 62
   1
 39
0.004
  6
CONTINUOUS
 10
0.37067
 20
0.15000
 30
 0
 11
0.42933
 21
0.15000
  0
LINE
  8
Reference_points
 62
   1
 39
0.004
  6
CONTINUOUS
 10
0.40000
 20
0.12067
 30
 0
 11
0.40000
 21
0.17933
  0
LINE
  8
Reference_points
 62
   1
 39
0.004
  6
CONTINUOUS
 10
0.22067
 20
4.75000
 30
 0
 11
0.27933
 21
4.75000
  0
LINE
  8
Reference_points
 62
   1
 39
0.004
  6
CONTINUOUS
 10
0.25000
 20
4.72067
 30
 0
 11
0.25000
 21
4.77933
  0
LINE
  8
Reference_points
 62
   1
 39
0.004
  6
CONTINUOUS
 10
0.22067
 20
1.75000
 30
 0
 11
0.27933
 21
1.75000
  0
LINE
  8
Reference_points
 62
   1
 39
0.004
  6
CONTINUOUS
 10
0.25000
 20
1.72067
 30
 0
 11
0.25000
 21
1.77933
  0
LINE
  8
Reference_points
 62
   1
 39
0.004
  6
CONTINUOUS
 10
0.22067
 20
1.00000
 30
 0
 11
0.27933
 21
1.00000
  0
LINE
  8
Reference_points
 62
   1
 39
0.004
  6
CONTINUOUS
 10
0.25000
 20
0.97067
 30
 0
 11
0.25000
 21
1.02933
  0
LINE
  8
Reference_points
 62
   1
 39
0.004
  6
CONTINUOUS
 10
0.22067
 20
4.00000
 30
 0
 11
0.27933
 21
4.00000
  0
LINE
  8
Reference_points
 62
   1
 39
0.004
  6
CONTINUOUS
 10
0.25000
 20
3.97067
 30
 0
 11
0.25000
 21
4.02933
  0
ENDSEC
  0
EOF
