  0
SECTION
  2
HEADER
  9
$MEASUREMENT
  70
  1
  9
$INSUNITS
  70
  4
  0
ENDSEC
  0
SECTION
  2
TABLES
  0
TABLE
  2
LTYPE
 70
     1
  0
LTYPE
  2
CONTINUOUS
 70
    64
  3
Ausgezogene Linie
 72
    65
 73
     0
 40
0.0
  0
ENDTAB
  0
TABLE
  2
LAYER
 70
     3
  0
LAYER
  2
Contour
 70
    64
 62
     7
  6
CONTINUOUS
  0
LAYER
  2
Engraving
 70
    64
 62
     7
  6
CONTINUOUS
  0
LAYER
  2
Reference_points
 70
    64
 62
     1
  6
CONTINUOUS
  0
ENDTAB
  0
TABLE
  2
STYLE
 70
     1
  0
STYLE
  2
TXT
 70
    64
 40
0.0
 41
1.0
 50
0.0
 71
     0
 42
3.500000
  3
TXT
  0
ENDTAB
  0
ENDSEC
  0
SECTION
  2
BLOCKS
  0
ENDSEC
  0
SECTION
  2
ENTITIES
  0
LINE
  8
Contour
 62
   7
 39
0.100
  6
CONTINUOUS
 10
170.00000
 20
170.00000
 30
 0
 11
170.00000
 21
0.00000
  0
LINE
  8
Contour
 62
   7
 39
0.100
  6
CONTINUOUS
 10
170.00000
 20
0.00000
 30
 0
 11
0.00000
 21
0.00000
  0
LINE
  8
Contour
 62
   7
 39
0.100
  6
CONTINUOUS
 10
0.00000
 20
0.00000
 30
 0
 11
0.00000
 21
170.00000
  0
LINE
  8
Contour
 62
   7
 39
0.100
  6
CONTINUOUS
 10
0.00000
 20
170.00000
 30
 0
 11
170.00000
 21
170.00000
  0
ARC
  8
Contour
 62
   7
 39
0.100
  6
CONTINUOUS
 10
27.50000
 20
130.00000
 30
 0
 40
8.00038
 50
22.61931
 51
157.38069
  0
ARC
  8
Contour
 62
   7
 39
0.100
  6
CONTINUOUS
 10
21.50000
 20
132.50100
 30
 0
 40
1.50000
 50
157.41833
 51
180.03820
  0
LINE
  8
Contour
 62
   7
 39
0.100
  6
CONTINUOUS
 10
20.00000
 20
132.50000
 30
 0
 11
20.00000
 21
127.50000
  0
ARC
  8
Contour
 62
   7
 39
0.100
  6
CONTINUOUS
 10
21.50000
 20
127.49900
 30
 0
 40
1.50000
 50
179.96180
 51
202.58167
  0
ARC
  8
Contour
 62
   7
 39
0.100
  6
CONTINUOUS
 10
27.50000
 20
130.00000
 30
 0
 40
8.00038
 50
202.61931
 51
337.38069
  0
ARC
  8
Contour
 62
   7
 39
0.100
  6
CONTINUOUS
 10
33.50000
 20
127.49900
 30
 0
 40
1.50000
 50
337.41833
 51
360.03820
  0
LINE
  8
Contour
 62
   7
 39
0.100
  6
CONTINUOUS
 10
35.00000
 20
127.50000
 30
 0
 11
35.00000
 21
132.50000
  0
ARC
  8
Contour
 62
   7
 39
0.100
  6
CONTINUOUS
 10
33.50000
 20
132.50100
 30
 0
 40
1.50000
 50
359.96180
 51
382.58167
  0
ARC
  8
Contour
 62
   7
 39
0.100
  6
CONTINUOUS
 10
60.00000
 20
147.50000
 30
 0
 40
4.16552
 50
51.06093
 51
128.93907
  0
ARC
  8
Contour
 62
   7
 39
0.100
  6
CONTINUOUS
 10
58.32500
 20
149.57349
 30
 0
 40
1.50000
 50
128.95182
 51
180.01863
  0
LINE
  8
Contour
 62
   7
 39
0.100
  6
CONTINUOUS
 10
56.82500
 20
149.57300
 30
 0
 11
56.82500
 21
145.42700
  0
ARC
  8
Contour
 62
   7
 39
0.100
  6
CONTINUOUS
 10
58.32500
 20
145.42651
 30
 0
 40
1.50000
 50
179.98137
 51
231.04818
  0
ARC
  8
Contour
 62
   7
 39
0.100
  6
CONTINUOUS
 10
60.00000
 20
147.50000
 30
 0
 40
4.16552
 50
231.06093
 51
308.93907
  0
ARC
  8
Contour
 62
   7
 39
0.100
  6
CONTINUOUS
 10
61.67500
 20
145.42651
 30
 0
 40
1.50000
 50
308.95182
 51
360.01863
  0
LINE
  8
Contour
 62
   7
 39
0.100
  6
CONTINUOUS
 10
63.17500
 20
145.42700
 30
 0
 11
63.17500
 21
149.57300
  0
ARC
  8
Contour
 62
   7
 39
0.100
  6
CONTINUOUS
 10
61.67500
 20
149.57349
 30
 0
 40
1.50000
 50
359.98137
 51
411.04818
  0
ARC
  8
Contour
 62
   7
 39
0.100
  6
CONTINUOUS
 10
60.00000
 20
127.50000
 30
 0
 40
4.16552
 50
51.06093
 51
128.93907
  0
ARC
  8
Contour
 62
   7
 39
0.100
  6
CONTINUOUS
 10
58.32500
 20
129.57349
 30
 0
 40
1.50000
 50
128.95182
 51
180.01863
  0
LINE
  8
Contour
 62
   7
 39
0.100
  6
CONTINUOUS
 10
56.82500
 20
129.57300
 30
 0
 11
56.82500
 21
125.42700
  0
ARC
  8
Contour
 62
   7
 39
0.100
  6
CONTINUOUS
 10
58.32500
 20
125.42651
 30
 0
 40
1.50000
 50
179.98137
 51
231.04818
  0
ARC
  8
Contour
 62
   7
 39
0.100
  6
CONTINUOUS
 10
60.00000
 20
127.50000
 30
 0
 40
4.16552
 50
231.06093
 51
308.93907
  0
ARC
  8
Contour
 62
   7
 39
0.100
  6
CONTINUOUS
 10
61.67500
 20
125.42651
 30
 0
 40
1.50000
 50
308.95182
 51
360.01863
  0
LINE
  8
Contour
 62
   7
 39
0.100
  6
CONTINUOUS
 10
63.17500
 20
125.42700
 30
 0
 11
63.17500
 21
129.57300
  0
ARC
  8
Contour
 62
   7
 39
0.100
  6
CONTINUOUS
 10
61.67500
 20
129.57349
 30
 0
 40
1.50000
 50
359.98137
 51
411.04818
  0
ARC
  8
Contour
 62
   7
 39
0.100
  6
CONTINUOUS
 10
60.00000
 20
67.50000
 30
 0
 40
4.16552
 50
51.06093
 51
128.93907
  0
ARC
  8
Contour
 62
   7
 39
0.100
  6
CONTINUOUS
 10
58.32500
 20
69.57349
 30
 0
 40
1.50000
 50
128.95182
 51
180.01863
  0
LINE
  8
Contour
 62
   7
 39
0.100
  6
CONTINUOUS
 10
56.82500
 20
69.57300
 30
 0
 11
56.82500
 21
65.42700
  0
ARC
  8
Contour
 62
   7
 39
0.100
  6
CONTINUOUS
 10
58.32500
 20
65.42651
 30
 0
 40
1.50000
 50
179.98137
 51
231.04818
  0
ARC
  8
Contour
 62
   7
 39
0.100
  6
CONTINUOUS
 10
60.00000
 20
67.50000
 30
 0
 40
4.16552
 50
231.06093
 51
308.93907
  0
ARC
  8
Contour
 62
   7
 39
0.100
  6
CONTINUOUS
 10
61.67500
 20
65.42651
 30
 0
 40
1.50000
 50
308.95182
 51
360.01863
  0
LINE
  8
Contour
 62
   7
 39
0.100
  6
CONTINUOUS
 10
63.17500
 20
65.42700
 30
 0
 11
63.17500
 21
69.57300
  0
ARC
  8
Contour
 62
   7
 39
0.100
  6
CONTINUOUS
 10
61.67500
 20
69.57349
 30
 0
 40
1.50000
 50
359.98137
 51
411.04818
  0
ARC
  8
Contour
 62
   7
 39
0.100
  6
CONTINUOUS
 10
60.00000
 20
42.03000
 30
 0
 40
4.16552
 50
51.06093
 51
128.93907
  0
ARC
  8
Contour
 62
   7
 39
0.100
  6
CONTINUOUS
 10
58.32500
 20
44.10349
 30
 0
 40
1.50000
 50
128.95182
 51
180.01863
  0
LINE
  8
Contour
 62
   7
 39
0.100
  6
CONTINUOUS
 10
56.82500
 20
44.10300
 30
 0
 11
56.82500
 21
39.95700
  0
ARC
  8
Contour
 62
   7
 39
0.100
  6
CONTINUOUS
 10
58.32500
 20
39.95651
 30
 0
 40
1.50000
 50
179.98137
 51
231.04818
  0
ARC
  8
Contour
 62
   7
 39
0.100
  6
CONTINUOUS
 10
60.00000
 20
42.03000
 30
 0
 40
4.16552
 50
231.06093
 51
308.93907
  0
ARC
  8
Contour
 62
   7
 39
0.100
  6
CONTINUOUS
 10
61.67500
 20
39.95651
 30
 0
 40
1.50000
 50
308.95182
 51
360.01863
  0
LINE
  8
Contour
 62
   7
 39
0.100
  6
CONTINUOUS
 10
63.17500
 20
39.95700
 30
 0
 11
63.17500
 21
44.10300
  0
ARC
  8
Contour
 62
   7
 39
0.100
  6
CONTINUOUS
 10
61.67500
 20
44.10349
 30
 0
 40
1.50000
 50
359.98137
 51
411.04818
  0
ARC
  8
Contour
 62
   7
 39
0.100
  6
CONTINUOUS
 10
60.00000
 20
22.97000
 30
 0
 40
4.16552
 50
51.06093
 51
128.93907
  0
ARC
  8
Contour
 62
   7
 39
0.100
  6
CONTINUOUS
 10
58.32500
 20
25.04349
 30
 0
 40
1.50000
 50
128.95182
 51
180.01863
  0
LINE
  8
Contour
 62
   7
 39
0.100
  6
CONTINUOUS
 10
56.82500
 20
25.04300
 30
 0
 11
56.82500
 21
20.89700
  0
ARC
  8
Contour
 62
   7
 39
0.100
  6
CONTINUOUS
 10
58.32500
 20
20.89651
 30
 0
 40
1.50000
 50
179.98137
 51
231.04818
  0
ARC
  8
Contour
 62
   7
 39
0.100
  6
CONTINUOUS
 10
60.00000
 20
22.97000
 30
 0
 40
4.16552
 50
231.06093
 51
308.93907
  0
ARC
  8
Contour
 62
   7
 39
0.100
  6
CONTINUOUS
 10
61.67500
 20
20.89651
 30
 0
 40
1.50000
 50
308.95182
 51
360.01863
  0
LINE
  8
Contour
 62
   7
 39
0.100
  6
CONTINUOUS
 10
63.17500
 20
20.89700
 30
 0
 11
63.17500
 21
25.04300
  0
ARC
  8
Contour
 62
   7
 39
0.100
  6
CONTINUOUS
 10
61.67500
 20
25.04349
 30
 0
 40
1.50000
 50
359.98137
 51
411.04818
  0
CIRCLE
  8
Contour
 62
   7
 39
0.100
  6
CONTINUOUS
 10
85.00000
 20
42.03000
 30
 0
 40
4.50000
  0
CIRCLE
  8
Contour
 62
   7
 39
0.100
  6
CONTINUOUS
 10
85.00000
 20
22.97000
 30
 0
 40
4.50000
  0
CIRCLE
  8
Contour
 62
   7
 39
0.100
  6
CONTINUOUS
 10
110.00000
 20
107.50000
 30
 0
 40
3.17500
  0
CIRCLE
  8
Contour
 62
   7
 39
0.100
  6
CONTINUOUS
 10
110.00000
 20
87.50000
 30
 0
 40
3.17500
  0
CIRCLE
  8
Contour
 62
   7
 39
0.100
  6
CONTINUOUS
 10
110.00000
 20
22.97000
 30
 0
 40
3.17500
  0
CIRCLE
  8
Contour
 62
   7
 39
0.100
  6
CONTINUOUS
 10
110.00000
 20
42.03000
 30
 0
 40
3.50000
  0
CIRCLE
  8
Contour
 62
   7
 39
0.100
  6
CONTINUOUS
 10
142.50000
 20
94.50000
 30
 0
 40
1.50000
  0
CIRCLE
  8
Contour
 62
   7
 39
0.100
  6
CONTINUOUS
 10
142.50000
 20
109.00000
 30
 0
 40
1.50000
  0
CIRCLE
  8
Contour
 62
   7
 39
0.100
  6
CONTINUOUS
 10
142.50000
 20
80.00000
 30
 0
 40
1.50000
  0
CIRCLE
  8
Contour
 62
   7
 39
0.100
  6
CONTINUOUS
 10
142.50000
 20
63.50000
 30
 0
 40
2.50000
  0
CIRCLE
  8
Contour
 62
   7
 39
0.100
  6
CONTINUOUS
 10
142.50000
 20
46.00000
 30
 0
 40
4.00000
  0
ARC
  8
Contour
 62
   7
 39
0.100
  6
CONTINUOUS
 10
140.96850
 20
122.09950
 30
 0
 40
0.49950
 50
179.94265
 51
269.94265
  0
LINE
  8
Contour
 62
   7
 39
0.100
  6
CONTINUOUS
 10
140.96800
 20
121.60000
 30
 0
 11
140.96800
 21
121.60000
  0
LINE
  8
Contour
 62
   7
 39
0.100
  6
CONTINUOUS
 10
140.96800
 20
121.60000
 30
 0
 11
143.93200
 21
121.60100
  0
ARC
  8
Contour
 62
   7
 39
0.100
  6
CONTINUOUS
 10
143.93200
 20
122.10100
 30
 0
 40
0.50000
 50
269.99994
 51
359.88535
  0
LINE
  8
Contour
 62
   7
 39
0.100
  6
CONTINUOUS
 10
144.43200
 20
122.10000
 30
 0
 11
144.43200
 21
122.10000
  0
LINE
  8
Contour
 62
   7
 39
0.100
  6
CONTINUOUS
 10
144.43200
 20
122.10000
 30
 0
 11
144.43200
 21
127.56900
  0
LINE
  8
Contour
 62
   7
 39
0.100
  6
CONTINUOUS
 10
144.43200
 20
127.56900
 30
 0
 11
147.39800
 21
127.55800
  0
ARC
  8
Contour
 62
   7
 39
0.100
  6
CONTINUOUS
 10
147.40050
 20
128.05750
 30
 0
 40
0.49950
 50
269.71346
 51
359.94311
  0
LINE
  8
Contour
 62
   7
 39
0.100
  6
CONTINUOUS
 10
147.90000
 20
128.05700
 30
 0
 11
147.90000
 21
128.05700
  0
LINE
  8
Contour
 62
   7
 39
0.100
  6
CONTINUOUS
 10
147.90000
 20
128.05700
 30
 0
 11
147.89900
 21
138.00000
  0
ARC
  8
Contour
 62
   7
 39
0.100
  6
CONTINUOUS
 10
147.40000
 20
138.00100
 30
 0
 40
0.49900
 50
359.88524
 51
450.00006
  0
LINE
  8
Contour
 62
   7
 39
0.100
  6
CONTINUOUS
 10
147.40000
 20
138.50000
 30
 0
 11
147.40000
 21
138.50000
  0
LINE
  8
Contour
 62
   7
 39
0.100
  6
CONTINUOUS
 10
147.40000
 20
138.50000
 30
 0
 11
137.50000
 21
138.49900
  0
ARC
  8
Contour
 62
   7
 39
0.100
  6
CONTINUOUS
 10
137.49950
 20
137.99950
 30
 0
 40
0.49950
 50
89.94265
 51
179.94265
  0
LINE
  8
Contour
 62
   7
 39
0.100
  6
CONTINUOUS
 10
137.00000
 20
138.00000
 30
 0
 11
137.00000
 21
138.00000
  0
LINE
  8
Contour
 62
   7
 39
0.100
  6
CONTINUOUS
 10
137.00000
 20
138.00000
 30
 0
 11
137.00100
 21
128.05700
  0
ARC
  8
Contour
 62
   7
 39
0.100
  6
CONTINUOUS
 10
137.50100
 20
128.05700
 30
 0
 40
0.50000
 50
179.99994
 51
270.11453
  0
LINE
  8
Contour
 62
   7
 39
0.100
  6
CONTINUOUS
 10
137.50200
 20
127.55700
 30
 0
 11
137.50200
 21
127.55700
  0
LINE
  8
Contour
 62
   7
 39
0.100
  6
CONTINUOUS
 10
137.50200
 20
127.55700
 30
 0
 11
140.46700
 21
127.57000
  0
LINE
  8
Contour
 62
   7
 39
0.100
  6
CONTINUOUS
 10
140.46700
 20
127.57000
 30
 0
 11
140.46900
 21
122.10000
  0
CIRCLE
  8
Contour
 62
   7
 39
0.100
  6
CONTINUOUS
 10
148.50000
 20
141.50000
 30
 0
 40
1.50000
  0
CIRCLE
  8
Contour
 62
   7
 39
0.100
  6
CONTINUOUS
 10
85.00000
 20
147.50000
 30
 0
 40
2.00000
  0
ARC
  8
Contour
 62
   7
 39
0.100
  6
CONTINUOUS
 10
85.00000
 20
127.50000
 30
 0
 40
4.16552
 50
51.06093
 51
128.93907
  0
ARC
  8
Contour
 62
   7
 39
0.100
  6
CONTINUOUS
 10
83.32500
 20
129.57349
 30
 0
 40
1.50000
 50
128.95182
 51
180.01863
  0
LINE
  8
Contour
 62
   7
 39
0.100
  6
CONTINUOUS
 10
81.82500
 20
129.57300
 30
 0
 11
81.82500
 21
125.42700
  0
ARC
  8
Contour
 62
   7
 39
0.100
  6
CONTINUOUS
 10
83.32500
 20
125.42651
 30
 0
 40
1.50000
 50
179.98137
 51
231.04818
  0
ARC
  8
Contour
 62
   7
 39
0.100
  6
CONTINUOUS
 10
85.00000
 20
127.50000
 30
 0
 40
4.16552
 50
231.06093
 51
308.93907
  0
ARC
  8
Contour
 62
   7
 39
0.100
  6
CONTINUOUS
 10
86.67500
 20
125.42651
 30
 0
 40
1.50000
 50
308.95182
 51
360.01863
  0
LINE
  8
Contour
 62
   7
 39
0.100
  6
CONTINUOUS
 10
88.17500
 20
125.42700
 30
 0
 11
88.17500
 21
129.57300
  0
ARC
  8
Contour
 62
   7
 39
0.100
  6
CONTINUOUS
 10
86.67500
 20
129.57349
 30
 0
 40
1.50000
 50
359.98137
 51
411.04818
  0
ARC
  8
Contour
 62
   7
 39
0.100
  6
CONTINUOUS
 10
110.00000
 20
127.50000
 30
 0
 40
4.16552
 50
51.06093
 51
128.93907
  0
ARC
  8
Contour
 62
   7
 39
0.100
  6
CONTINUOUS
 10
108.32500
 20
129.57349
 30
 0
 40
1.50000
 50
128.95182
 51
180.01863
  0
LINE
  8
Contour
 62
   7
 39
0.100
  6
CONTINUOUS
 10
106.82500
 20
129.57300
 30
 0
 11
106.82500
 21
125.42700
  0
ARC
  8
Contour
 62
   7
 39
0.100
  6
CONTINUOUS
 10
108.32500
 20
125.42651
 30
 0
 40
1.50000
 50
179.98137
 51
231.04818
  0
ARC
  8
Contour
 62
   7
 39
0.100
  6
CONTINUOUS
 10
110.00000
 20
127.50000
 30
 0
 40
4.16552
 50
231.06093
 51
308.93907
  0
ARC
  8
Contour
 62
   7
 39
0.100
  6
CONTINUOUS
 10
111.67500
 20
125.42651
 30
 0
 40
1.50000
 50
308.95182
 51
360.01863
  0
LINE
  8
Contour
 62
   7
 39
0.100
  6
CONTINUOUS
 10
113.17500
 20
125.42700
 30
 0
 11
113.17500
 21
129.57300
  0
ARC
  8
Contour
 62
   7
 39
0.100
  6
CONTINUOUS
 10
111.67500
 20
129.57349
 30
 0
 40
1.50000
 50
359.98137
 51
411.04818
  0
CIRCLE
  8
Contour
 62
   7
 39
0.100
  6
CONTINUOUS
 10
85.00000
 20
107.50000
 30
 0
 40
3.17500
  0
CIRCLE
  8
Contour
 62
   7
 39
0.100
  6
CONTINUOUS
 10
60.00000
 20
107.50000
 30
 0
 40
3.17500
  0
CIRCLE
  8
Contour
 62
   7
 39
0.100
  6
CONTINUOUS
 10
85.00000
 20
87.50000
 30
 0
 40
3.17500
  0
CIRCLE
  8
Contour
 62
   7
 39
0.100
  6
CONTINUOUS
 10
60.00000
 20
87.50000
 30
 0
 40
3.17500
  0
ARC
  8
Contour
 62
   7
 39
0.100
  6
CONTINUOUS
 10
85.00000
 20
67.50000
 30
 0
 40
4.16552
 50
51.06093
 51
128.93907
  0
ARC
  8
Contour
 62
   7
 39
0.100
  6
CONTINUOUS
 10
83.32500
 20
69.57349
 30
 0
 40
1.50000
 50
128.95182
 51
180.01863
  0
LINE
  8
Contour
 62
   7
 39
0.100
  6
CONTINUOUS
 10
81.82500
 20
69.57300
 30
 0
 11
81.82500
 21
65.42700
  0
ARC
  8
Contour
 62
   7
 39
0.100
  6
CONTINUOUS
 10
83.32500
 20
65.42651
 30
 0
 40
1.50000
 50
179.98137
 51
231.04818
  0
ARC
  8
Contour
 62
   7
 39
0.100
  6
CONTINUOUS
 10
85.00000
 20
67.50000
 30
 0
 40
4.16552
 50
231.06093
 51
308.93907
  0
ARC
  8
Contour
 62
   7
 39
0.100
  6
CONTINUOUS
 10
86.67500
 20
65.42651
 30
 0
 40
1.50000
 50
308.95182
 51
360.01863
  0
LINE
  8
Contour
 62
   7
 39
0.100
  6
CONTINUOUS
 10
88.17500
 20
65.42700
 30
 0
 11
88.17500
 21
69.57300
  0
ARC
  8
Contour
 62
   7
 39
0.100
  6
CONTINUOUS
 10
86.67500
 20
69.57349
 30
 0
 40
1.50000
 50
359.98137
 51
411.04818
  0
ARC
  8
Contour
 62
   7
 39
0.100
  6
CONTINUOUS
 10
110.00000
 20
67.50000
 30
 0
 40
4.16552
 50
51.06093
 51
128.93907
  0
ARC
  8
Contour
 62
   7
 39
0.100
  6
CONTINUOUS
 10
108.32500
 20
69.57349
 30
 0
 40
1.50000
 50
128.95182
 51
180.01863
  0
LINE
  8
Contour
 62
   7
 39
0.100
  6
CONTINUOUS
 10
106.82500
 20
69.57300
 30
 0
 11
106.82500
 21
65.42700
  0
ARC
  8
Contour
 62
   7
 39
0.100
  6
CONTINUOUS
 10
108.32500
 20
65.42651
 30
 0
 40
1.50000
 50
179.98137
 51
231.04818
  0
ARC
  8
Contour
 62
   7
 39
0.100
  6
CONTINUOUS
 10
110.00000
 20
67.50000
 30
 0
 40
4.16552
 50
231.06093
 51
308.93907
  0
ARC
  8
Contour
 62
   7
 39
0.100
  6
CONTINUOUS
 10
111.67500
 20
65.42651
 30
 0
 40
1.50000
 50
308.95182
 51
360.01863
  0
LINE
  8
Contour
 62
   7
 39
0.100
  6
CONTINUOUS
 10
113.17500
 20
65.42700
 30
 0
 11
113.17500
 21
69.57300
  0
ARC
  8
Contour
 62
   7
 39
0.100
  6
CONTINUOUS
 10
111.67500
 20
69.57349
 30
 0
 40
1.50000
 50
359.98137
 51
411.04818
  0
ARC
  8
Contour
 62
   7
 39
0.100
  6
CONTINUOUS
 10
27.50000
 20
105.00000
 30
 0
 40
8.00038
 50
22.61931
 51
157.38069
  0
ARC
  8
Contour
 62
   7
 39
0.100
  6
CONTINUOUS
 10
21.50000
 20
107.50100
 30
 0
 40
1.50000
 50
157.41833
 51
180.03820
  0
LINE
  8
Contour
 62
   7
 39
0.100
  6
CONTINUOUS
 10
20.00000
 20
107.50000
 30
 0
 11
20.00000
 21
102.50000
  0
ARC
  8
Contour
 62
   7
 39
0.100
  6
CONTINUOUS
 10
21.50000
 20
102.49900
 30
 0
 40
1.50000
 50
179.96180
 51
202.58167
  0
ARC
  8
Contour
 62
   7
 39
0.100
  6
CONTINUOUS
 10
27.50000
 20
105.00000
 30
 0
 40
8.00038
 50
202.61931
 51
337.38069
  0
ARC
  8
Contour
 62
   7
 39
0.100
  6
CONTINUOUS
 10
33.50000
 20
102.49900
 30
 0
 40
1.50000
 50
337.41833
 51
360.03820
  0
LINE
  8
Contour
 62
   7
 39
0.100
  6
CONTINUOUS
 10
35.00000
 20
102.50000
 30
 0
 11
35.00000
 21
107.50000
  0
ARC
  8
Contour
 62
   7
 39
0.100
  6
CONTINUOUS
 10
33.50000
 20
107.50100
 30
 0
 40
1.50000
 50
359.96180
 51
382.58167
  0
ARC
  8
Contour
 62
   7
 39
0.100
  6
CONTINUOUS
 10
27.50000
 20
80.00000
 30
 0
 40
8.00038
 50
22.61931
 51
157.38069
  0
ARC
  8
Contour
 62
   7
 39
0.100
  6
CONTINUOUS
 10
21.50000
 20
82.50100
 30
 0
 40
1.50000
 50
157.41833
 51
180.03820
  0
LINE
  8
Contour
 62
   7
 39
0.100
  6
CONTINUOUS
 10
20.00000
 20
82.50000
 30
 0
 11
20.00000
 21
77.50000
  0
ARC
  8
Contour
 62
   7
 39
0.100
  6
CONTINUOUS
 10
21.50000
 20
77.49900
 30
 0
 40
1.50000
 50
179.96180
 51
202.58167
  0
ARC
  8
Contour
 62
   7
 39
0.100
  6
CONTINUOUS
 10
27.50000
 20
80.00000
 30
 0
 40
8.00038
 50
202.61931
 51
337.38069
  0
ARC
  8
Contour
 62
   7
 39
0.100
  6
CONTINUOUS
 10
33.50000
 20
77.49900
 30
 0
 40
1.50000
 50
337.41833
 51
360.03820
  0
LINE
  8
Contour
 62
   7
 39
0.100
  6
CONTINUOUS
 10
35.00000
 20
77.50000
 30
 0
 11
35.00000
 21
82.50000
  0
ARC
  8
Contour
 62
   7
 39
0.100
  6
CONTINUOUS
 10
33.50000
 20
82.50100
 30
 0
 40
1.50000
 50
359.96180
 51
382.58167
  0
ARC
  8
Contour
 62
   7
 39
0.100
  6
CONTINUOUS
 10
27.50000
 20
55.00000
 30
 0
 40
8.00038
 50
22.61931
 51
157.38069
  0
ARC
  8
Contour
 62
   7
 39
0.100
  6
CONTINUOUS
 10
21.50000
 20
57.50100
 30
 0
 40
1.50000
 50
157.41833
 51
180.03820
  0
LINE
  8
Contour
 62
   7
 39
0.100
  6
CONTINUOUS
 10
20.00000
 20
57.50000
 30
 0
 11
20.00000
 21
52.50000
  0
ARC
  8
Contour
 62
   7
 39
0.100
  6
CONTINUOUS
 10
21.50000
 20
52.49900
 30
 0
 40
1.50000
 50
179.96180
 51
202.58167
  0
ARC
  8
Contour
 62
   7
 39
0.100
  6
CONTINUOUS
 10
27.50000
 20
55.00000
 30
 0
 40
8.00038
 50
202.61931
 51
337.38069
  0
ARC
  8
Contour
 62
   7
 39
0.100
  6
CONTINUOUS
 10
33.50000
 20
52.49900
 30
 0
 40
1.50000
 50
337.41833
 51
360.03820
  0
LINE
  8
Contour
 62
   7
 39
0.100
  6
CONTINUOUS
 10
35.00000
 20
52.50000
 30
 0
 11
35.00000
 21
57.50000
  0
ARC
  8
Contour
 62
   7
 39
0.100
  6
CONTINUOUS
 10
33.50000
 20
57.50100
 30
 0
 40
1.50000
 50
359.96180
 51
382.58167
  0
ARC
  8
Contour
 62
   7
 39
0.100
  6
CONTINUOUS
 10
27.50000
 20
30.00000
 30
 0
 40
8.00038
 50
22.61931
 51
157.38069
  0
ARC
  8
Contour
 62
   7
 39
0.100
  6
CONTINUOUS
 10
21.50000
 20
32.50100
 30
 0
 40
1.50000
 50
157.41833
 51
180.03820
  0
LINE
  8
Contour
 62
   7
 39
0.100
  6
CONTINUOUS
 10
20.00000
 20
32.50000
 30
 0
 11
20.00000
 21
27.50000
  0
ARC
  8
Contour
 62
   7
 39
0.100
  6
CONTINUOUS
 10
21.50000
 20
27.49900
 30
 0
 40
1.50000
 50
179.96180
 51
202.58167
  0
ARC
  8
Contour
 62
   7
 39
0.100
  6
CONTINUOUS
 10
27.50000
 20
30.00000
 30
 0
 40
8.00038
 50
202.61931
 51
337.38069
  0
ARC
  8
Contour
 62
   7
 39
0.100
  6
CONTINUOUS
 10
33.50000
 20
27.49900
 30
 0
 40
1.50000
 50
337.41833
 51
360.03820
  0
LINE
  8
Contour
 62
   7
 39
0.100
  6
CONTINUOUS
 10
35.00000
 20
27.50000
 30
 0
 11
35.00000
 21
32.50000
  0
ARC
  8
Contour
 62
   7
 39
0.100
  6
CONTINUOUS
 10
33.50000
 20
32.50100
 30
 0
 40
1.50000
 50
359.96180
 51
382.58167
  0
LINE
  8
Reference_points
 62
   1
 39
0.100
  6
CONTINUOUS
 10
-0.73700
 20
0.00000
 30
 0
 11
0.73700
 21
0.00000
  0
LINE
  8
Reference_points
 62
   1
 39
0.100
  6
CONTINUOUS
 10
0.00000
 20
-0.73700
 30
 0
 11
0.00000
 21
0.73700
  0
LINE
  8
Reference_points
 62
   1
 39
0.100
  6
CONTINUOUS
 10
26.76300
 20
130.00000
 30
 0
 11
28.23700
 21
130.00000
  0
LINE
  8
Reference_points
 62
   1
 39
0.100
  6
CONTINUOUS
 10
27.50000
 20
129.26300
 30
 0
 11
27.50000
 21
130.73700
  0
LINE
  8
Reference_points
 62
   1
 39
0.100
  6
CONTINUOUS
 10
59.26300
 20
147.50000
 30
 0
 11
60.73700
 21
147.50000
  0
LINE
  8
Reference_points
 62
   1
 39
0.100
  6
CONTINUOUS
 10
60.00000
 20
146.76300
 30
 0
 11
60.00000
 21
148.23700
  0
LINE
  8
Reference_points
 62
   1
 39
0.100
  6
CONTINUOUS
 10
59.26300
 20
127.50000
 30
 0
 11
60.73700
 21
127.50000
  0
LINE
  8
Reference_points
 62
   1
 39
0.100
  6
CONTINUOUS
 10
60.00000
 20
126.76300
 30
 0
 11
60.00000
 21
128.23700
  0
LINE
  8
Reference_points
 62
   1
 39
0.100
  6
CONTINUOUS
 10
59.26300
 20
67.50000
 30
 0
 11
60.73700
 21
67.50000
  0
LINE
  8
Reference_points
 62
   1
 39
0.100
  6
CONTINUOUS
 10
60.00000
 20
66.76300
 30
 0
 11
60.00000
 21
68.23700
  0
LINE
  8
Reference_points
 62
   1
 39
0.100
  6
CONTINUOUS
 10
59.26300
 20
42.03000
 30
 0
 11
60.73700
 21
42.03000
  0
LINE
  8
Reference_points
 62
   1
 39
0.100
  6
CONTINUOUS
 10
60.00000
 20
41.29300
 30
 0
 11
60.00000
 21
42.76700
  0
LINE
  8
Reference_points
 62
   1
 39
0.100
  6
CONTINUOUS
 10
59.26300
 20
22.97000
 30
 0
 11
60.73700
 21
22.97000
  0
LINE
  8
Reference_points
 62
   1
 39
0.100
  6
CONTINUOUS
 10
60.00000
 20
22.23300
 30
 0
 11
60.00000
 21
23.70700
  0
LINE
  8
Reference_points
 62
   1
 39
0.100
  6
CONTINUOUS
 10
84.26300
 20
42.03000
 30
 0
 11
85.73700
 21
42.03000
  0
LINE
  8
Reference_points
 62
   1
 39
0.100
  6
CONTINUOUS
 10
85.00000
 20
41.29300
 30
 0
 11
85.00000
 21
42.76700
  0
LINE
  8
Reference_points
 62
   1
 39
0.100
  6
CONTINUOUS
 10
84.26300
 20
22.97000
 30
 0
 11
85.73700
 21
22.97000
  0
LINE
  8
Reference_points
 62
   1
 39
0.100
  6
CONTINUOUS
 10
85.00000
 20
22.23300
 30
 0
 11
85.00000
 21
23.70700
  0
LINE
  8
Reference_points
 62
   1
 39
0.100
  6
CONTINUOUS
 10
109.26300
 20
107.50000
 30
 0
 11
110.73700
 21
107.50000
  0
LINE
  8
Reference_points
 62
   1
 39
0.100
  6
CONTINUOUS
 10
110.00000
 20
106.76300
 30
 0
 11
110.00000
 21
108.23700
  0
LINE
  8
Reference_points
 62
   1
 39
0.100
  6
CONTINUOUS
 10
109.26300
 20
87.50000
 30
 0
 11
110.73700
 21
87.50000
  0
LINE
  8
Reference_points
 62
   1
 39
0.100
  6
CONTINUOUS
 10
110.00000
 20
86.76300
 30
 0
 11
110.00000
 21
88.23700
  0
LINE
  8
Reference_points
 62
   1
 39
0.100
  6
CONTINUOUS
 10
109.26300
 20
22.97000
 30
 0
 11
110.73700
 21
22.97000
  0
LINE
  8
Reference_points
 62
   1
 39
0.100
  6
CONTINUOUS
 10
110.00000
 20
22.23300
 30
 0
 11
110.00000
 21
23.70700
  0
LINE
  8
Reference_points
 62
   1
 39
0.100
  6
CONTINUOUS
 10
109.26300
 20
42.03000
 30
 0
 11
110.73700
 21
42.03000
  0
LINE
  8
Reference_points
 62
   1
 39
0.100
  6
CONTINUOUS
 10
110.00000
 20
41.29300
 30
 0
 11
110.00000
 21
42.76700
  0
LINE
  8
Reference_points
 62
   1
 39
0.100
  6
CONTINUOUS
 10
141.76300
 20
94.50000
 30
 0
 11
143.23700
 21
94.50000
  0
LINE
  8
Reference_points
 62
   1
 39
0.100
  6
CONTINUOUS
 10
142.50000
 20
93.76300
 30
 0
 11
142.50000
 21
95.23700
  0
LINE
  8
Reference_points
 62
   1
 39
0.100
  6
CONTINUOUS
 10
141.76300
 20
109.00000
 30
 0
 11
143.23700
 21
109.00000
  0
LINE
  8
Reference_points
 62
   1
 39
0.100
  6
CONTINUOUS
 10
142.50000
 20
108.26300
 30
 0
 11
142.50000
 21
109.73700
  0
LINE
  8
Reference_points
 62
   1
 39
0.100
  6
CONTINUOUS
 10
141.76300
 20
80.00000
 30
 0
 11
143.23700
 21
80.00000
  0
LINE
  8
Reference_points
 62
   1
 39
0.100
  6
CONTINUOUS
 10
142.50000
 20
79.26300
 30
 0
 11
142.50000
 21
80.73700
  0
LINE
  8
Reference_points
 62
   1
 39
0.100
  6
CONTINUOUS
 10
141.76300
 20
63.50000
 30
 0
 11
143.23700
 21
63.50000
  0
LINE
  8
Reference_points
 62
   1
 39
0.100
  6
CONTINUOUS
 10
142.50000
 20
62.76300
 30
 0
 11
142.50000
 21
64.23700
  0
LINE
  8
Reference_points
 62
   1
 39
0.100
  6
CONTINUOUS
 10
141.76300
 20
46.00000
 30
 0
 11
143.23700
 21
46.00000
  0
LINE
  8
Reference_points
 62
   1
 39
0.100
  6
CONTINUOUS
 10
142.50000
 20
45.26300
 30
 0
 11
142.50000
 21
46.73700
  0
LINE
  8
Reference_points
 62
   1
 39
0.100
  6
CONTINUOUS
 10
136.26300
 20
138.50000
 30
 0
 11
137.73700
 21
138.50000
  0
LINE
  8
Reference_points
 62
   1
 39
0.100
  6
CONTINUOUS
 10
137.00000
 20
137.76300
 30
 0
 11
137.00000
 21
139.23700
  0
LINE
  8
Reference_points
 62
   1
 39
0.100
  6
CONTINUOUS
 10
147.76300
 20
141.50000
 30
 0
 11
149.23700
 21
141.50000
  0
LINE
  8
Reference_points
 62
   1
 39
0.100
  6
CONTINUOUS
 10
148.50000
 20
140.76300
 30
 0
 11
148.50000
 21
142.23700
  0
LINE
  8
Reference_points
 62
   1
 39
0.100
  6
CONTINUOUS
 10
84.26300
 20
147.50000
 30
 0
 11
85.73700
 21
147.50000
  0
LINE
  8
Reference_points
 62
   1
 39
0.100
  6
CONTINUOUS
 10
85.00000
 20
146.76300
 30
 0
 11
85.00000
 21
148.23700
  0
LINE
  8
Reference_points
 62
   1
 39
0.100
  6
CONTINUOUS
 10
84.26300
 20
127.50000
 30
 0
 11
85.73700
 21
127.50000
  0
LINE
  8
Reference_points
 62
   1
 39
0.100
  6
CONTINUOUS
 10
85.00000
 20
126.76300
 30
 0
 11
85.00000
 21
128.23700
  0
LINE
  8
Reference_points
 62
   1
 39
0.100
  6
CONTINUOUS
 10
109.26300
 20
127.50000
 30
 0
 11
110.73700
 21
127.50000
  0
LINE
  8
Reference_points
 62
   1
 39
0.100
  6
CONTINUOUS
 10
110.00000
 20
126.76300
 30
 0
 11
110.00000
 21
128.23700
  0
LINE
  8
Reference_points
 62
   1
 39
0.100
  6
CONTINUOUS
 10
84.26300
 20
107.50000
 30
 0
 11
85.73700
 21
107.50000
  0
LINE
  8
Reference_points
 62
   1
 39
0.100
  6
CONTINUOUS
 10
85.00000
 20
106.76300
 30
 0
 11
85.00000
 21
108.23700
  0
LINE
  8
Reference_points
 62
   1
 39
0.100
  6
CONTINUOUS
 10
59.26300
 20
107.50000
 30
 0
 11
60.73700
 21
107.50000
  0
LINE
  8
Reference_points
 62
   1
 39
0.100
  6
CONTINUOUS
 10
60.00000
 20
106.76300
 30
 0
 11
60.00000
 21
108.23700
  0
LINE
  8
Reference_points
 62
   1
 39
0.100
  6
CONTINUOUS
 10
84.26300
 20
87.50000
 30
 0
 11
85.73700
 21
87.50000
  0
LINE
  8
Reference_points
 62
   1
 39
0.100
  6
CONTINUOUS
 10
85.00000
 20
86.76300
 30
 0
 11
85.00000
 21
88.23700
  0
LINE
  8
Reference_points
 62
   1
 39
0.100
  6
CONTINUOUS
 10
59.26300
 20
87.50000
 30
 0
 11
60.73700
 21
87.50000
  0
LINE
  8
Reference_points
 62
   1
 39
0.100
  6
CONTINUOUS
 10
60.00000
 20
86.76300
 30
 0
 11
60.00000
 21
88.23700
  0
LINE
  8
Reference_points
 62
   1
 39
0.100
  6
CONTINUOUS
 10
84.26300
 20
67.50000
 30
 0
 11
85.73700
 21
67.50000
  0
LINE
  8
Reference_points
 62
   1
 39
0.100
  6
CONTINUOUS
 10
85.00000
 20
66.76300
 30
 0
 11
85.00000
 21
68.23700
  0
LINE
  8
Reference_points
 62
   1
 39
0.100
  6
CONTINUOUS
 10
109.26300
 20
67.50000
 30
 0
 11
110.73700
 21
67.50000
  0
LINE
  8
Reference_points
 62
   1
 39
0.100
  6
CONTINUOUS
 10
110.00000
 20
66.76300
 30
 0
 11
110.00000
 21
68.23700
  0
LINE
  8
Reference_points
 62
   1
 39
0.100
  6
CONTINUOUS
 10
26.76300
 20
105.00000
 30
 0
 11
28.23700
 21
105.00000
  0
LINE
  8
Reference_points
 62
   1
 39
0.100
  6
CONTINUOUS
 10
27.50000
 20
104.26300
 30
 0
 11
27.50000
 21
105.73700
  0
LINE
  8
Reference_points
 62
   1
 39
0.100
  6
CONTINUOUS
 10
26.76300
 20
80.00000
 30
 0
 11
28.23700
 21
80.00000
  0
LINE
  8
Reference_points
 62
   1
 39
0.100
  6
CONTINUOUS
 10
27.50000
 20
79.26300
 30
 0
 11
27.50000
 21
80.73700
  0
LINE
  8
Reference_points
 62
   1
 39
0.100
  6
CONTINUOUS
 10
26.76300
 20
55.00000
 30
 0
 11
28.23700
 21
55.00000
  0
LINE
  8
Reference_points
 62
   1
 39
0.100
  6
CONTINUOUS
 10
27.50000
 20
54.26300
 30
 0
 11
27.50000
 21
55.73700
  0
LINE
  8
Reference_points
 62
   1
 39
0.100
  6
CONTINUOUS
 10
26.76300
 20
30.00000
 30
 0
 11
28.23700
 21
30.00000
  0
LINE
  8
Reference_points
 62
   1
 39
0.100
  6
CONTINUOUS
 10
27.50000
 20
29.26300
 30
 0
 11
27.50000
 21
30.73700
  0
ENDSEC
  0
EOF
