<?xml version="1.0" encoding="UTF-8" standalone="no"?>
<svg
   width="50.5mm"
   height="175.0mm"
   viewBox="0 0 50.5 175.0"
   version="1.1"
   xml:space="preserve"
   style="clip-rule:evenodd;fill-rule:evenodd;stroke-linecap:round;stroke-linejoin:round"
   id="svg1179"
   sodipodi:docname="dual-pt2399-delay-design.svg"
   inkscape:version="1.1 (c4e8f9e, 2021-05-24)"
   xmlns:inkscape="http://www.inkscape.org/namespaces/inkscape"
   xmlns:sodipodi="http://sodipodi.sourceforge.net/DTD/sodipodi-0.dtd"
   xmlns="http://www.w3.org/2000/svg"
   xmlns:svg="http://www.w3.org/2000/svg"
   xmlns:serif="http://www.serif.com/"><defs
   id="defs1183">
        
        
        
    
            
            
            
            
            
            
            
            
            
            
            
            
            
            
            
            
            
            
            
            
            
            
        </defs><sodipodi:namedview
   id="namedview1181"
   pagecolor="#ffffff"
   bordercolor="#666666"
   borderopacity="1.0"
   inkscape:pageshadow="2"
   inkscape:pageopacity="0.0"
   inkscape:pagecheckerboard="0"
   showgrid="false"
   units="mm"
   inkscape:document-units="mm"
   inkscape:showpageshadow="false"
   inkscape:zoom="0.83207883"
   inkscape:cx="116.57549"
   inkscape:cy="201.90395"
   inkscape:window-width="1458"
   inkscape:window-height="1070"
   inkscape:window-x="527"
   inkscape:window-y="209"
   inkscape:window-maximized="0"
   inkscape:current-layer="g3100"
   showborder="false" />
    
<g
   inkscape:label="[fixed] BG"
   inkscape:groupmode="layer"
   id="g3096"
   sodipodi:insensitive="true"><rect
     x="0"
     y="0"
     width="50.5"
     height="175"
     style="fill:#ffffff;fill-opacity:1;stroke:none"
     id="rect3094" /></g><g
   inkscape:label="F.Cu"
   inkscape:groupmode="layer"
   id="g3098"
   style="display:inline"><g
     transform="matrix(0.13435136,-0.00100704,0.00159811,0.08466066,-67.906141,-188.46632)"
     id="g771"
     style="clip-rule:evenodd;fill-rule:evenodd;stroke-linecap:round;stroke-linejoin:round"><path
       d="m 616.839,2897.32 20.669,0.24"
       style="fill:none;stroke:#000000;stroke-width:4.69px;stroke-linecap:square;stroke-miterlimit:1.5"
       id="path769" /></g><g
     transform="matrix(0.13435136,-0.00100704,0.00159811,0.08466066,-67.906141,-187.46132)"
     id="g775"
     style="clip-rule:evenodd;fill-rule:evenodd;stroke-linecap:round;stroke-linejoin:round"><path
       d="m 616.839,2897.32 20.669,0.24"
       style="fill:none;stroke:#000000;stroke-width:4.69px;stroke-linecap:square;stroke-miterlimit:1.5"
       id="path773" /></g><g
     transform="matrix(0.08465461,-0.00100704,0.00100697,0.08466066,-36.413461,-179.8354)"
     id="g779"
     style="clip-rule:evenodd;fill-rule:evenodd;stroke-linecap:round;stroke-linejoin:round"><path
       d="m 616.839,2897.32 20.669,0.24"
       style="fill:none;stroke:#000000;stroke-width:6.25px;stroke-linecap:square;stroke-miterlimit:1.5"
       id="path777" /></g><g
     transform="matrix(0.08465461,-0.00100704,0.00100697,0.08466066,-33.636159,-179.8354)"
     id="g783"
     style="clip-rule:evenodd;fill-rule:evenodd;stroke-linecap:round;stroke-linejoin:round"><path
       d="m 616.839,2897.32 20.669,0.24"
       style="fill:none;stroke:#000000;stroke-width:6.25px;stroke-linecap:square;stroke-miterlimit:1.5"
       id="path781" /></g><g
     transform="matrix(0.08466675,0,0,0.08944187,0.06173622,-6.5844441)"
     id="g732"
     style="clip-rule:evenodd;fill-rule:evenodd;stroke-linecap:round;stroke-linejoin:round"><path
       d="m 400.797,1391.93 h -72.665 c -7.931,0 -15.537,2.98 -21.145,8.29 -5.608,5.31 -8.759,12.51 -8.759,20.02 0,18.22 0,38.52 0,38.52"
       style="fill:none;stroke:#000000;stroke-width:5.27px;stroke-miterlimit:1.5"
       id="path730" /></g><g
     transform="matrix(0.37392414,0,0,0.39687503,-105.86397,-93.267112)"
     id="g739"
     style="clip-rule:evenodd;fill-rule:evenodd;stroke-linecap:round;stroke-linejoin:round"><path
       d="m 403.156,590 c 1.863,-3.04 2.844,-6.489 2.844,-10 0,-11.038 -9.512,-20 -21.228,-20 -11.715,0 -21.227,8.962 -21.227,20 0,3.511 0.981,6.96 2.844,10"
       style="fill:none;stroke:#000000;stroke-width:1.22px;stroke-miterlimit:1.5"
       id="path737" /></g><g
     transform="matrix(0.07875504,0,0,0.08399958,26.524008,76.660928)"
     id="g743"
     style="clip-rule:evenodd;fill-rule:evenodd;stroke-linecap:round;stroke-linejoin:round"><path
       d="m 145.866,545.887 v 76.805"
       style="fill:none;stroke:#000000;stroke-width:5.63px;stroke-miterlimit:1.5"
       id="path741" /></g><g
     transform="matrix(0.37392414,0,0,0.39687503,-131.26399,-93.267959)"
     id="g747"
     style="clip-rule:evenodd;fill-rule:evenodd;stroke-linecap:round;stroke-linejoin:round"><path
       d="m 403.156,590 c 1.863,-3.04 2.844,-6.489 2.844,-10 0,-11.038 -9.512,-20 -21.228,-20 -11.715,0 -21.227,8.962 -21.227,20 0,3.511 0.981,6.96 2.844,10"
       style="fill:none;stroke:#000000;stroke-width:1.22px;stroke-miterlimit:1.5"
       id="path745" /></g><g
     transform="matrix(0.08466675,0,0,0.08412472,0.26173651,76.598613)"
     id="g751"
     style="clip-rule:evenodd;fill-rule:evenodd;stroke-linecap:round;stroke-linejoin:round"><path
       d="m 145.866,545.887 v 76.805"
       style="fill:none;stroke:#000000;stroke-width:5.43px;stroke-miterlimit:1.5"
       id="path749" /></g><g
     transform="matrix(0.08466675,0,0,0.13694072,25.661691,66.522179)"
     id="g755"
     style="clip-rule:evenodd;fill-rule:evenodd;stroke-linecap:round;stroke-linejoin:round"><path
       d="m 145.866,545.887 v 76.805"
       style="fill:none;stroke:#000000;stroke-width:4.03px;stroke-miterlimit:1.5"
       id="path753" /></g><g
     transform="matrix(0.08466675,0,0,0.13694072,0.26173651,66.530474)"
     id="g759"
     style="clip-rule:evenodd;fill-rule:evenodd;stroke-linecap:round;stroke-linejoin:round"><path
       d="m 145.866,545.887 v 76.805"
       style="fill:none;stroke:#000000;stroke-width:4.03px;stroke-miterlimit:1.5"
       id="path757" /></g><g
     transform="matrix(0.08466675,0,0,0.08607806,0.06173622,-2.5374026)"
     id="g767"
     style="clip-rule:evenodd;fill-rule:evenodd;stroke-linecap:round;stroke-linejoin:round"><path
       d="m 202.309,1841.93 h 65.906 c 16.576,0 30.013,-13.22 30.013,-29.52 0,-73.92 0,-261.09 0,-261.09"
       style="fill:none;stroke:#000000;stroke-width:5.37px;stroke-miterlimit:1.5"
       id="path765" /></g></g><g
   inkscape:label="F.Mask"
   inkscape:groupmode="layer"
   id="g3100"
   style="display:inline"><g
     transform="matrix(0.13435136,-0.00100704,0.00159811,0.08466066,-67.906141,-188.46632)"
     id="g4463"
     style="clip-rule:evenodd;fill-rule:evenodd;stroke-linecap:round;stroke-linejoin:round"><path
       d="m 616.839,2897.32 20.669,0.24"
       style="fill:none;stroke:#000000;stroke-width:4.69px;stroke-linecap:square;stroke-miterlimit:1.5"
       id="path4461" /></g><g
     transform="matrix(0.13435136,-0.00100704,0.00159811,0.08466066,-67.906141,-187.46132)"
     id="g4467"
     style="clip-rule:evenodd;fill-rule:evenodd;stroke-linecap:round;stroke-linejoin:round;paint-order:stroke fill markers"><path
       d="m 616.839,2897.32 20.669,0.24"
       style="fill:none;stroke:#000000;stroke-width:4.69px;stroke-linecap:square;stroke-miterlimit:1.5;paint-order:stroke fill markers"
       id="path4465" /></g><g
     transform="matrix(0.08465461,-0.00100704,0.00100697,0.08466066,-36.413461,-179.8354)"
     id="g4471"
     style="clip-rule:evenodd;fill-rule:evenodd;stroke-linecap:round;stroke-linejoin:round"><path
       d="m 616.839,2897.32 20.669,0.24"
       style="fill:none;stroke:#000000;stroke-width:6.25px;stroke-linecap:square;stroke-miterlimit:1.5"
       id="path4469" /></g><g
     transform="matrix(0.08465461,-0.00100704,0.00100697,0.08466066,-33.636159,-179.8354)"
     id="g4475"
     style="clip-rule:evenodd;fill-rule:evenodd;stroke-linecap:round;stroke-linejoin:round"><path
       d="m 616.839,2897.32 20.669,0.24"
       style="fill:none;stroke:#000000;stroke-width:6.25px;stroke-linecap:square;stroke-miterlimit:1.5"
       id="path4473" /></g><g
     transform="matrix(0.08466675,0,0,0.08944187,0.06173622,-6.5844441)"
     id="g4503"
     style="clip-rule:evenodd;fill-rule:evenodd;stroke-linecap:round;stroke-linejoin:round"><path
       d="m 400.797,1391.93 h -72.665 c -7.931,0 -15.537,2.98 -21.145,8.29 -5.608,5.31 -8.759,12.51 -8.759,20.02 0,18.22 0,38.52 0,38.52"
       style="fill:none;stroke:#000000;stroke-width:5.27px;stroke-miterlimit:1.5"
       id="path4501" /></g><g
     transform="matrix(0.37392414,0,0,0.39687503,-105.86397,-93.267112)"
     id="g4507"
     style="clip-rule:evenodd;fill-rule:evenodd;stroke-linecap:round;stroke-linejoin:round"><path
       d="m 403.156,590 c 1.863,-3.04 2.844,-6.489 2.844,-10 0,-11.038 -9.512,-20 -21.228,-20 -11.715,0 -21.227,8.962 -21.227,20 0,3.511 0.981,6.96 2.844,10"
       style="fill:none;stroke:#000000;stroke-width:1.22px;stroke-miterlimit:1.5"
       id="path4505" /></g><g
     transform="matrix(0.07875504,0,0,0.08399958,26.524008,76.660928)"
     id="g4511"
     style="clip-rule:evenodd;fill-rule:evenodd;stroke-linecap:round;stroke-linejoin:round"><path
       d="m 145.866,545.887 v 76.805"
       style="fill:none;stroke:#000000;stroke-width:5.63px;stroke-miterlimit:1.5"
       id="path4509" /></g><g
     transform="matrix(0.37392414,0,0,0.39687503,-131.26399,-93.267959)"
     id="g4515"
     style="clip-rule:evenodd;fill-rule:evenodd;stroke-linecap:round;stroke-linejoin:round"><path
       d="m 403.156,590 c 1.863,-3.04 2.844,-6.489 2.844,-10 0,-11.038 -9.512,-20 -21.228,-20 -11.715,0 -21.227,8.962 -21.227,20 0,3.511 0.981,6.96 2.844,10"
       style="fill:none;stroke:#000000;stroke-width:1.22px;stroke-miterlimit:1.5"
       id="path4513" /></g><g
     transform="matrix(0.08466675,0,0,0.08412472,0.26173651,76.598613)"
     id="g4519"
     style="clip-rule:evenodd;fill-rule:evenodd;stroke-linecap:round;stroke-linejoin:round"><path
       d="m 145.866,545.887 v 76.805"
       style="fill:none;stroke:#000000;stroke-width:5.43px;stroke-miterlimit:1.5"
       id="path4517" /></g><g
     transform="matrix(0.08466675,0,0,0.13694072,25.661691,66.522179)"
     id="g4523"
     style="clip-rule:evenodd;fill-rule:evenodd;stroke-linecap:round;stroke-linejoin:round"><path
       d="m 145.866,545.887 v 76.805"
       style="fill:none;stroke:#000000;stroke-width:4.03px;stroke-miterlimit:1.5"
       id="path4521" /></g><g
     transform="matrix(0.08466675,0,0,0.13694072,0.26173651,66.530474)"
     id="g4527"
     style="clip-rule:evenodd;fill-rule:evenodd;stroke-linecap:round;stroke-linejoin:round"><path
       d="m 145.866,545.887 v 76.805"
       style="fill:none;stroke:#000000;stroke-width:4.03px;stroke-miterlimit:1.5"
       id="path4525" /></g><g
     transform="matrix(0.08466675,0,0,0.08607806,0.06173622,-2.5374026)"
     id="g4531"
     style="clip-rule:evenodd;fill-rule:evenodd;stroke-linecap:round;stroke-linejoin:round"><path
       d="m 202.309,1841.93 h 65.906 c 16.576,0 30.013,-13.22 30.013,-29.52 0,-73.92 0,-261.09 0,-261.09"
       style="fill:none;stroke:#000000;stroke-width:5.37px;stroke-miterlimit:1.5"
       id="path4529" /></g></g><g
   inkscape:label="F.SilkS"
   inkscape:groupmode="layer"
   id="g3102"
   style="display:inline"><g
     id="Text"
     transform="matrix(0.17102666,0,0,0.08466667,0.06173622,0.06180494)"
     style="clip-rule:evenodd;fill-rule:evenodd;stroke-linecap:round;stroke-linejoin:round"><g
       transform="matrix(0.49505,0,0,1,-257.879,-1258.53)"
       id="g790"><g
         transform="matrix(50,0,0,50,1022.05,2968.14)"
         id="g788"><path
           d="M 0.25,-0.116 V -0.312 H 0.056 V -0.394 H 0.25 v -0.195 h 0.083 v 0.195 h 0.195 v 0.082 H 0.333 v 0.196 z"
           style="fill-rule:nonzero"
           id="path786" /></g></g><g
       transform="matrix(0.49505,0,0,1,-406.394,-1258.53)"
       id="g796"><g
         transform="matrix(50,0,0,50,1022.05,2968.14)"
         id="g794"><path
           d="M 0.25,-0.116 V -0.312 H 0.056 V -0.394 H 0.25 v -0.195 h 0.083 v 0.195 h 0.195 v 0.082 H 0.333 v 0.196 z"
           style="fill-rule:nonzero"
           id="path792" /></g></g><g
       transform="matrix(0.49505,0,0,1,-414.986,-1261.07)"
       id="g802"><g
         transform="matrix(50,0,0,50,1210.66,2966.02)"
         id="g800"><rect
           x="0.032000002"
           y="-0.303"
           width="0.27000001"
           height="0.088"
           style="fill-rule:nonzero"
           id="rect798" /></g></g><g
       transform="matrix(0.49505,0,0,1,-563.501,-1261.07)"
       id="g808"><g
         transform="matrix(50,0,0,50,1210.66,2966.02)"
         id="g806"><rect
           x="0.032000002"
           y="-0.303"
           width="0.27000001"
           height="0.088"
           style="fill-rule:nonzero"
           id="rect804" /></g></g><g
       transform="matrix(0.49505,0,0,1,23.0838,20.7975)"
       id="g874"><g
         transform="matrix(50,0,0,50,-2.47803,94.8705)"
         id="g812"><path
           d="m 0.09,0 v -0.754 h 0.159 c 0.075,0 0.135,0.008 0.179,0.023 0.047,0.014 0.09,0.039 0.129,0.074 0.077,0.071 0.116,0.164 0.116,0.28 0,0.116 -0.04,0.21 -0.121,0.281 C 0.511,-0.06 0.468,-0.035 0.424,-0.021 0.382,-0.007 0.323,0 0.247,0 Z m 0.114,-0.107 h 0.051 c 0.051,0 0.094,-0.005 0.128,-0.016 0.034,-0.011 0.064,-0.03 0.092,-0.054 0.056,-0.051 0.084,-0.118 0.084,-0.2 0,-0.083 -0.028,-0.15 -0.083,-0.201 C 0.426,-0.624 0.352,-0.647 0.255,-0.647 H 0.204 Z"
           style="fill-rule:nonzero"
           id="path810" /></g><g
         transform="matrix(50,0,0,50,33.8257,94.8705)"
         id="g816"><path
           d="M 0.204,-0.754 V -0.3 c 0,0.065 0.011,0.112 0.032,0.142 0.031,0.044 0.076,0.065 0.133,0.065 0.058,0 0.102,-0.021 0.134,-0.065 0.021,-0.029 0.032,-0.076 0.032,-0.142 v -0.454 h 0.113 v 0.485 c 0,0.08 -0.024,0.145 -0.074,0.197 C 0.519,-0.015 0.45,0.014 0.369,0.014 0.288,0.014 0.22,-0.015 0.165,-0.072 0.115,-0.124 0.09,-0.189 0.09,-0.269 v -0.485 z"
           style="fill-rule:nonzero"
           id="path814" /></g><g
         transform="matrix(50,0,0,50,69.1528,94.8705)"
         id="g820"><path
           d="M 0.533,-0.183 H 0.21 L 0.126,0 H 0.004 L 0.377,-0.801 0.737,0 H 0.612 Z M 0.487,-0.29 0.375,-0.546 0.258,-0.29 Z"
           style="fill-rule:nonzero"
           id="path818" /></g><g
         transform="matrix(50,0,0,50,106.189,94.8705)"
         id="g824"><path
           d="m 0.204,-0.754 v 0.647 H 0.426 V 0 H 0.09 v -0.754 z"
           style="fill-rule:nonzero"
           id="path822" /></g><g
         transform="matrix(50,0,0,50,143.787,94.8705)"
         id="g828"><path
           d="m 0.09,0 v -0.754 h 0.159 c 0.075,0 0.135,0.008 0.179,0.023 0.047,0.014 0.09,0.039 0.129,0.074 0.077,0.071 0.116,0.164 0.116,0.28 0,0.116 -0.04,0.21 -0.121,0.281 C 0.511,-0.06 0.468,-0.035 0.424,-0.021 0.382,-0.007 0.323,0 0.247,0 Z m 0.114,-0.107 h 0.051 c 0.051,0 0.094,-0.005 0.128,-0.016 0.034,-0.011 0.064,-0.03 0.092,-0.054 0.056,-0.051 0.084,-0.118 0.084,-0.2 0,-0.083 -0.028,-0.15 -0.083,-0.201 C 0.426,-0.624 0.352,-0.647 0.255,-0.647 H 0.204 Z"
           style="fill-rule:nonzero"
           id="path826" /></g><g
         transform="matrix(50,0,0,50,180.09,94.8705)"
         id="g832"><rect
           x="0.090000004"
           y="-0.75400001"
           width="0.114"
           height="0.75400001"
           style="fill-rule:nonzero"
           id="rect830" /></g><g
         transform="matrix(50,0,0,50,194.836,94.8705)"
         id="g836"><path
           d="M 0.478,-0.393 H 0.79 v 0.025 c 0,0.057 -0.007,0.107 -0.02,0.151 -0.013,0.04 -0.035,0.078 -0.066,0.113 C 0.634,-0.025 0.545,0.014 0.437,0.014 0.331,0.014 0.241,-0.024 0.166,-0.1 0.09,-0.177 0.053,-0.268 0.053,-0.375 c 0,-0.11 0.038,-0.203 0.114,-0.279 0.077,-0.076 0.17,-0.115 0.28,-0.115 0.059,0 0.114,0.012 0.165,0.037 0.049,0.024 0.097,0.063 0.144,0.117 L 0.675,-0.538 C 0.613,-0.62 0.538,-0.661 0.449,-0.661 c -0.08,0 -0.147,0.027 -0.201,0.082 -0.054,0.054 -0.081,0.122 -0.081,0.204 0,0.083 0.03,0.153 0.09,0.207 0.057,0.05 0.118,0.076 0.183,0.076 0.056,0 0.107,-0.019 0.151,-0.057 0.045,-0.038 0.07,-0.084 0.075,-0.137 H 0.478 Z"
           style="fill-rule:nonzero"
           id="path834" /></g><g
         transform="matrix(50,0,0,50,236.951,94.8705)"
         id="g840"><rect
           x="0.090000004"
           y="-0.75400001"
           width="0.114"
           height="0.75400001"
           style="fill-rule:nonzero"
           id="rect838" /></g><g
         transform="matrix(50,0,0,50,251.697,94.8705)"
         id="g844"><path
           d="M 0.298,-0.647 V 0 H 0.185 V -0.647 H 0.011 v -0.107 h 0.46 v 0.107 z"
           style="fill-rule:nonzero"
           id="path842" /></g><g
         transform="matrix(50,0,0,50,273.767,94.8705)"
         id="g848"><path
           d="M 0.533,-0.183 H 0.21 L 0.126,0 H 0.004 L 0.377,-0.801 0.737,0 H 0.612 Z M 0.487,-0.29 0.375,-0.546 0.258,-0.29 Z"
           style="fill-rule:nonzero"
           id="path846" /></g><g
         transform="matrix(50,0,0,50,310.803,94.8705)"
         id="g852"><path
           d="m 0.204,-0.754 v 0.647 H 0.426 V 0 H 0.09 v -0.754 z"
           style="fill-rule:nonzero"
           id="path850" /></g><g
         transform="matrix(50,0,0,50,348.401,94.8705)"
         id="g856"><path
           d="m 0.09,0 v -0.754 h 0.159 c 0.075,0 0.135,0.008 0.179,0.023 0.047,0.014 0.09,0.039 0.129,0.074 0.077,0.071 0.116,0.164 0.116,0.28 0,0.116 -0.04,0.21 -0.121,0.281 C 0.511,-0.06 0.468,-0.035 0.424,-0.021 0.382,-0.007 0.323,0 0.247,0 Z m 0.114,-0.107 h 0.051 c 0.051,0 0.094,-0.005 0.128,-0.016 0.034,-0.011 0.064,-0.03 0.092,-0.054 0.056,-0.051 0.084,-0.118 0.084,-0.2 0,-0.083 -0.028,-0.15 -0.083,-0.201 C 0.426,-0.624 0.352,-0.647 0.255,-0.647 H 0.204 Z"
           style="fill-rule:nonzero"
           id="path854" /></g><g
         transform="matrix(50,0,0,50,384.705,94.8705)"
         id="g860"><path
           d="M 0.506,-0.647 H 0.204 v 0.181 h 0.294 v 0.107 H 0.204 v 0.252 H 0.506 V 0 H 0.09 v -0.754 h 0.416 z"
           style="fill-rule:nonzero"
           id="path858" /></g><g
         transform="matrix(50,0,0,50,412.976,94.8705)"
         id="g864"><path
           d="m 0.204,-0.754 v 0.647 H 0.426 V 0 H 0.09 v -0.754 z"
           style="fill-rule:nonzero"
           id="path862" /></g><g
         transform="matrix(50,0,0,50,437.244,94.8705)"
         id="g868"><path
           d="M 0.533,-0.183 H 0.21 L 0.126,0 H 0.004 L 0.377,-0.801 0.737,0 H 0.612 Z M 0.487,-0.29 0.375,-0.546 0.258,-0.29 Z"
           style="fill-rule:nonzero"
           id="path866" /></g><g
         transform="matrix(50,0,0,50,470.984,94.8705)"
         id="g872"><path
           d="m 0.243,-0.326 -0.246,-0.428 h 0.13 L 0.3,-0.453 0.473,-0.754 H 0.604 L 0.356,-0.326 V 0 H 0.243 Z"
           style="fill-rule:nonzero"
           id="path870" /></g></g><g
       transform="matrix(0.49505,0,0,1,8.16247,54.7872)"
       id="g912"><g
         transform="matrix(33.3333,0,0,33.3333,180.991,1988.96)"
         id="g878"><path
           d="M 0.346,-0.321 0.579,0 H 0.44 L 0.225,-0.309 H 0.204 V 0 H 0.09 v -0.754 h 0.134 c 0.099,0 0.171,0.019 0.215,0.056 0.049,0.042 0.074,0.097 0.074,0.165 0,0.054 -0.016,0.1 -0.046,0.138 -0.031,0.038 -0.071,0.063 -0.121,0.074 z M 0.204,-0.408 H 0.24 c 0.108,0 0.162,-0.041 0.162,-0.123 0,-0.077 -0.053,-0.116 -0.157,-0.116 H 0.204 Z"
           style="fill-rule:nonzero"
           id="path876" /></g><g
         transform="matrix(33.3333,0,0,33.3333,200.685,1988.96)"
         id="g882"><path
           d="M 0.204,-0.754 V -0.3 c 0,0.065 0.011,0.112 0.032,0.142 0.031,0.044 0.076,0.065 0.133,0.065 0.058,0 0.102,-0.021 0.134,-0.065 0.021,-0.029 0.032,-0.076 0.032,-0.142 v -0.454 h 0.113 v 0.485 c 0,0.08 -0.024,0.145 -0.074,0.197 C 0.519,-0.015 0.45,0.014 0.369,0.014 0.288,0.014 0.22,-0.015 0.165,-0.072 0.115,-0.124 0.09,-0.189 0.09,-0.269 v -0.485 z"
           style="fill-rule:nonzero"
           id="path880" /></g><g
         transform="matrix(33.3333,0,0,33.3333,225.311,1988.96)"
         id="g886"><path
           d="M 0.064,0 0.223,-0.811 0.481,-0.225 0.75,-0.811 0.892,0 H 0.775 L 0.703,-0.455 0.479,0.035 0.263,-0.456 0.182,0 Z"
           style="fill-rule:nonzero"
           id="path884" /></g><g
         transform="matrix(33.3333,0,0,33.3333,257.359,1988.96)"
         id="g890"><path
           d="m 0.09,0 v -0.754 h 0.114 c 0.05,0 0.09,0.004 0.12,0.012 0.03,0.008 0.056,0.021 0.077,0.039 0.021,0.02 0.038,0.043 0.05,0.072 0.013,0.029 0.019,0.058 0.019,0.088 0,0.054 -0.02,0.1 -0.062,0.137 0.04,0.014 0.072,0.038 0.095,0.072 0.023,0.034 0.035,0.073 0.035,0.118 0,0.059 -0.021,0.109 -0.062,0.15 C 0.451,-0.041 0.422,-0.024 0.391,-0.014 0.357,-0.005 0.314,0 0.263,0 Z M 0.204,-0.43 H 0.24 c 0.042,0 0.073,-0.01 0.093,-0.028 0.019,-0.019 0.029,-0.047 0.029,-0.083 0,-0.035 -0.01,-0.062 -0.03,-0.081 C 0.312,-0.64 0.283,-0.649 0.244,-0.649 h -0.04 z m 0,0.323 h 0.07 c 0.052,0 0.09,-0.01 0.114,-0.03 0.025,-0.022 0.038,-0.05 0.038,-0.083 0,-0.033 -0.012,-0.06 -0.037,-0.082 C 0.365,-0.324 0.323,-0.335 0.262,-0.335 H 0.204 Z"
           style="fill-rule:nonzero"
           id="path888" /></g><g
         transform="matrix(33.3333,0,0,33.3333,277.069,1988.96)"
         id="g894"><path
           d="m 0.204,-0.754 v 0.647 H 0.426 V 0 H 0.09 v -0.754 z"
           style="fill-rule:nonzero"
           id="path892" /></g><g
         transform="matrix(33.3333,0,0,33.3333,291.848,1988.96)"
         id="g898"><path
           d="M 0.506,-0.647 H 0.204 v 0.181 h 0.294 v 0.107 H 0.204 v 0.252 H 0.506 V 0 H 0.09 v -0.754 h 0.416 z"
           style="fill-rule:nonzero"
           id="path896" /></g><g
         transform="matrix(33.3333,0,0,33.3333,310.695,1988.96)"
         id="g902"><path
           d="M 0.517,-0.642 0.424,-0.587 C 0.407,-0.617 0.391,-0.636 0.375,-0.646 0.359,-0.656 0.338,-0.661 0.312,-0.661 c -0.032,0 -0.058,0.009 -0.079,0.027 -0.02,0.017 -0.031,0.039 -0.031,0.066 0,0.037 0.027,0.067 0.082,0.089 l 0.075,0.031 c 0.062,0.024 0.106,0.055 0.135,0.09 0.028,0.036 0.042,0.08 0.042,0.131 0,0.07 -0.023,0.127 -0.069,0.172 C 0.42,-0.009 0.362,0.014 0.293,0.014 0.228,0.014 0.174,-0.006 0.131,-0.044 0.089,-0.083 0.063,-0.138 0.053,-0.208 l 0.115,-0.025 c 0.005,0.044 0.014,0.074 0.027,0.091 0.024,0.033 0.058,0.049 0.103,0.049 0.035,0 0.065,-0.012 0.088,-0.035 0.024,-0.024 0.035,-0.054 0.035,-0.091 0,-0.014 -0.002,-0.028 -0.006,-0.04 C 0.411,-0.271 0.405,-0.282 0.396,-0.293 0.388,-0.303 0.376,-0.313 0.363,-0.322 0.349,-0.33 0.333,-0.339 0.314,-0.347 L 0.241,-0.377 C 0.138,-0.421 0.086,-0.485 0.086,-0.569 c 0,-0.056 0.022,-0.104 0.065,-0.142 0.044,-0.038 0.098,-0.058 0.162,-0.058 0.087,0 0.155,0.043 0.204,0.127 z"
           style="fill-rule:nonzero"
           id="path900" /></g><g
         transform="matrix(33.3333,0,0,33.3333,329.868,1988.96)"
         id="g906"><path
           d="M 0.533,-0.183 H 0.21 L 0.126,0 H 0.004 L 0.377,-0.801 0.737,0 H 0.612 Z M 0.487,-0.29 0.375,-0.546 0.258,-0.29 Z"
           style="fill-rule:nonzero"
           id="path904" /></g><g
         transform="matrix(33.3333,0,0,33.3333,354.559,1988.96)"
         id="g910"><path
           d="m 0.09,0 v -0.805 l 0.55,0.575 v -0.524 h 0.114 v 0.8 L 0.204,-0.528 V 0 Z"
           style="fill-rule:nonzero"
           id="path908" /></g></g><g
       transform="matrix(0.49505,0,0,1,8.62289,18.8363)"
       id="g938"><g
         transform="matrix(41.6667,0,0,41.6667,40.4984,363.328)"
         id="g916"><path
           d="m 0.053,-0.38 c 0,-0.106 0.039,-0.198 0.116,-0.274 0.078,-0.076 0.171,-0.114 0.28,-0.114 0.107,0 0.199,0.038 0.276,0.115 0.077,0.077 0.116,0.169 0.116,0.277 0,0.108 -0.039,0.2 -0.116,0.276 C 0.647,-0.024 0.553,0.014 0.443,0.014 0.346,0.014 0.258,-0.02 0.181,-0.087 0.095,-0.162 0.053,-0.26 0.053,-0.38 Z m 0.114,0.001 c 0,0.083 0.028,0.152 0.084,0.206 0.056,0.053 0.12,0.08 0.193,0.08 0.079,0 0.146,-0.027 0.201,-0.082 0.054,-0.055 0.081,-0.123 0.081,-0.202 0,-0.08 -0.027,-0.148 -0.08,-0.202 -0.054,-0.055 -0.12,-0.082 -0.199,-0.082 -0.078,0 -0.144,0.027 -0.198,0.082 -0.055,0.054 -0.082,0.121 -0.082,0.2 z"
           style="fill-rule:nonzero"
           id="path914" /></g><g
         transform="matrix(41.6667,0,0,41.6667,77.7299,363.328)"
         id="g920"><path
           d="M 0.204,-0.754 V -0.3 c 0,0.065 0.011,0.112 0.032,0.142 0.031,0.044 0.076,0.065 0.133,0.065 0.058,0 0.102,-0.021 0.134,-0.065 0.021,-0.029 0.032,-0.076 0.032,-0.142 v -0.454 h 0.113 v 0.485 c 0,0.08 -0.024,0.145 -0.074,0.197 C 0.519,-0.015 0.45,0.014 0.369,0.014 0.288,0.014 0.22,-0.015 0.165,-0.072 0.115,-0.124 0.09,-0.189 0.09,-0.269 v -0.485 z"
           style="fill-rule:nonzero"
           id="path918" /></g><g
         transform="matrix(41.6667,0,0,41.6667,108.512,363.328)"
         id="g924"><path
           d="M 0.298,-0.647 V 0 H 0.185 V -0.647 H 0.011 v -0.107 h 0.46 v 0.107 z"
           style="fill-rule:nonzero"
           id="path922" /></g><g
         transform="matrix(41.6667,0,0,41.6667,141.471,363.328)"
         id="g928"><path
           d="M 0.064,0 0.223,-0.811 0.481,-0.225 0.75,-0.811 0.892,0 H 0.775 L 0.703,-0.455 0.479,0.035 0.263,-0.456 0.182,0 Z"
           style="fill-rule:nonzero"
           id="path926" /></g><g
         transform="matrix(41.6667,0,0,41.6667,181.53,363.328)"
         id="g932"><rect
           x="0.090000004"
           y="-0.75400001"
           width="0.114"
           height="0.75400001"
           style="fill-rule:nonzero"
           id="rect930" /></g><g
         transform="matrix(41.6667,0,0,41.6667,193.819,363.328)"
         id="g936"><path
           d="M 0.248,-0.394 0.041,-0.754 H 0.17 l 0.144,0.255 0.151,-0.255 H 0.596 L 0.378,-0.394 0.606,0 H 0.479 L 0.312,-0.289 0.14,0 H 0.011 Z"
           style="fill-rule:nonzero"
           id="path934" /></g></g><g
       transform="matrix(0.49505,0,0,1,11.0975,19.1765)"
       id="g956"><g
         transform="matrix(41.6667,0,0,41.6667,366.21,362.53)"
         id="g942"><path
           d="m 0.053,-0.38 c 0,-0.106 0.039,-0.198 0.116,-0.274 0.078,-0.076 0.171,-0.114 0.28,-0.114 0.107,0 0.199,0.038 0.276,0.115 0.077,0.077 0.116,0.169 0.116,0.277 0,0.108 -0.039,0.2 -0.116,0.276 C 0.647,-0.024 0.553,0.014 0.443,0.014 0.346,0.014 0.258,-0.02 0.181,-0.087 0.095,-0.162 0.053,-0.26 0.053,-0.38 Z m 0.114,0.001 c 0,0.083 0.028,0.152 0.084,0.206 0.056,0.053 0.12,0.08 0.193,0.08 0.079,0 0.146,-0.027 0.201,-0.082 0.054,-0.055 0.081,-0.123 0.081,-0.202 0,-0.08 -0.027,-0.148 -0.08,-0.202 -0.054,-0.055 -0.12,-0.082 -0.199,-0.082 -0.078,0 -0.144,0.027 -0.198,0.082 -0.055,0.054 -0.082,0.121 -0.082,0.2 z"
           style="fill-rule:nonzero"
           id="path940" /></g><g
         transform="matrix(41.6667,0,0,41.6667,403.442,362.53)"
         id="g946"><path
           d="M 0.204,-0.754 V -0.3 c 0,0.065 0.011,0.112 0.032,0.142 0.031,0.044 0.076,0.065 0.133,0.065 0.058,0 0.102,-0.021 0.134,-0.065 0.021,-0.029 0.032,-0.076 0.032,-0.142 v -0.454 h 0.113 v 0.485 c 0,0.08 -0.024,0.145 -0.074,0.197 C 0.519,-0.015 0.45,0.014 0.369,0.014 0.288,0.014 0.22,-0.015 0.165,-0.072 0.115,-0.124 0.09,-0.189 0.09,-0.269 v -0.485 z"
           style="fill-rule:nonzero"
           id="path944" /></g><g
         transform="matrix(41.6667,0,0,41.6667,434.224,362.53)"
         id="g950"><path
           d="M 0.298,-0.647 V 0 H 0.185 V -0.647 H 0.011 v -0.107 h 0.46 v 0.107 z"
           style="fill-rule:nonzero"
           id="path948" /></g><g
         transform="matrix(41.6667,0,0,41.6667,467.183,362.53)"
         id="g954"><path
           d="M 0.271,-0.647 H 0.141 L 0.203,-0.754 H 0.385 V 0 H 0.271 Z"
           style="fill-rule:nonzero"
           id="path952" /></g></g><g
       transform="matrix(0.49505,0,0,1,3.3692,23.2195)"
       id="g974"><g
         transform="matrix(41.6667,0,0,41.6667,378.77,583.497)"
         id="g960"><path
           d="m 0.053,-0.38 c 0,-0.106 0.039,-0.198 0.116,-0.274 0.078,-0.076 0.171,-0.114 0.28,-0.114 0.107,0 0.199,0.038 0.276,0.115 0.077,0.077 0.116,0.169 0.116,0.277 0,0.108 -0.039,0.2 -0.116,0.276 C 0.647,-0.024 0.553,0.014 0.443,0.014 0.346,0.014 0.258,-0.02 0.181,-0.087 0.095,-0.162 0.053,-0.26 0.053,-0.38 Z m 0.114,0.001 c 0,0.083 0.028,0.152 0.084,0.206 0.056,0.053 0.12,0.08 0.193,0.08 0.079,0 0.146,-0.027 0.201,-0.082 0.054,-0.055 0.081,-0.123 0.081,-0.202 0,-0.08 -0.027,-0.148 -0.08,-0.202 -0.054,-0.055 -0.12,-0.082 -0.199,-0.082 -0.078,0 -0.144,0.027 -0.198,0.082 -0.055,0.054 -0.082,0.121 -0.082,0.2 z"
           style="fill-rule:nonzero"
           id="path958" /></g><g
         transform="matrix(41.6667,0,0,41.6667,416.001,583.497)"
         id="g964"><path
           d="M 0.204,-0.754 V -0.3 c 0,0.065 0.011,0.112 0.032,0.142 0.031,0.044 0.076,0.065 0.133,0.065 0.058,0 0.102,-0.021 0.134,-0.065 0.021,-0.029 0.032,-0.076 0.032,-0.142 v -0.454 h 0.113 v 0.485 c 0,0.08 -0.024,0.145 -0.074,0.197 C 0.519,-0.015 0.45,0.014 0.369,0.014 0.288,0.014 0.22,-0.015 0.165,-0.072 0.115,-0.124 0.09,-0.189 0.09,-0.269 v -0.485 z"
           style="fill-rule:nonzero"
           id="path962" /></g><g
         transform="matrix(41.6667,0,0,41.6667,446.783,583.497)"
         id="g968"><path
           d="M 0.298,-0.647 V 0 H 0.185 V -0.647 H 0.011 v -0.107 h 0.46 v 0.107 z"
           style="fill-rule:nonzero"
           id="path966" /></g><g
         transform="matrix(41.6667,0,0,41.6667,479.742,583.497)"
         id="g972"><path
           d="M 0.25,-0.107 H 0.531 V 0 H 0.025 L 0.287,-0.317 C 0.312,-0.348 0.334,-0.376 0.351,-0.399 0.369,-0.422 0.382,-0.441 0.391,-0.457 0.41,-0.488 0.419,-0.515 0.419,-0.54 0.419,-0.575 0.407,-0.604 0.382,-0.628 0.357,-0.652 0.326,-0.664 0.29,-0.664 c -0.076,0 -0.12,0.046 -0.131,0.136 H 0.046 c 0.018,-0.159 0.098,-0.239 0.241,-0.239 0.068,0 0.126,0.022 0.172,0.066 0.047,0.043 0.071,0.097 0.071,0.162 0,0.041 -0.011,0.081 -0.033,0.121 -0.011,0.02 -0.027,0.044 -0.049,0.073 -0.021,0.028 -0.048,0.061 -0.08,0.099 z"
           style="fill-rule:nonzero"
           id="path970" /></g></g><g
       transform="matrix(0.49505,0,0,1,-146.304,23.9112)"
       id="g1008"><g
         transform="matrix(41.6667,0,0,41.6667,337.215,583.497)"
         id="g978"><path
           d="M 0.467,-0.647 H 0.204 v 0.181 h 0.254 v 0.107 H 0.204 V 0 H 0.09 v -0.754 h 0.377 z"
           style="fill-rule:nonzero"
           id="path976" /></g><g
         transform="matrix(41.6667,0,0,41.6667,358.394,583.497)"
         id="g982"><path
           d="M 0.506,-0.647 H 0.204 v 0.181 h 0.294 v 0.107 H 0.204 v 0.252 H 0.506 V 0 H 0.09 v -0.754 h 0.416 z"
           style="fill-rule:nonzero"
           id="path980" /></g><g
         transform="matrix(41.6667,0,0,41.6667,381.954,583.497)"
         id="g986"><path
           d="M 0.506,-0.647 H 0.204 v 0.181 h 0.294 v 0.107 H 0.204 v 0.252 H 0.506 V 0 H 0.09 v -0.754 h 0.416 z"
           style="fill-rule:nonzero"
           id="path984" /></g><g
         transform="matrix(41.6667,0,0,41.6667,405.514,583.497)"
         id="g990"><path
           d="m 0.09,0 v -0.754 h 0.159 c 0.075,0 0.135,0.008 0.179,0.023 0.047,0.014 0.09,0.039 0.129,0.074 0.077,0.071 0.116,0.164 0.116,0.28 0,0.116 -0.04,0.21 -0.121,0.281 C 0.511,-0.06 0.468,-0.035 0.424,-0.021 0.382,-0.007 0.323,0 0.247,0 Z m 0.114,-0.107 h 0.051 c 0.051,0 0.094,-0.005 0.128,-0.016 0.034,-0.011 0.064,-0.03 0.092,-0.054 0.056,-0.051 0.084,-0.118 0.084,-0.2 0,-0.083 -0.028,-0.15 -0.083,-0.201 C 0.426,-0.624 0.352,-0.647 0.255,-0.647 H 0.204 Z"
           style="fill-rule:nonzero"
           id="path988" /></g><g
         transform="matrix(41.6667,0,0,41.6667,435.767,583.497)"
         id="g994"><path
           d="m 0.09,0 v -0.754 h 0.114 c 0.05,0 0.09,0.004 0.12,0.012 0.03,0.008 0.056,0.021 0.077,0.039 0.021,0.02 0.038,0.043 0.05,0.072 0.013,0.029 0.019,0.058 0.019,0.088 0,0.054 -0.02,0.1 -0.062,0.137 0.04,0.014 0.072,0.038 0.095,0.072 0.023,0.034 0.035,0.073 0.035,0.118 0,0.059 -0.021,0.109 -0.062,0.15 C 0.451,-0.041 0.422,-0.024 0.391,-0.014 0.357,-0.005 0.314,0 0.263,0 Z M 0.204,-0.43 H 0.24 c 0.042,0 0.073,-0.01 0.093,-0.028 0.019,-0.019 0.029,-0.047 0.029,-0.083 0,-0.035 -0.01,-0.062 -0.03,-0.081 C 0.312,-0.64 0.283,-0.649 0.244,-0.649 h -0.04 z m 0,0.323 h 0.07 c 0.052,0 0.09,-0.01 0.114,-0.03 0.025,-0.022 0.038,-0.05 0.038,-0.083 0,-0.033 -0.012,-0.06 -0.037,-0.082 C 0.365,-0.324 0.323,-0.335 0.262,-0.335 H 0.204 Z"
           style="fill-rule:nonzero"
           id="path992" /></g><g
         transform="matrix(41.6667,0,0,41.6667,459.937,583.497)"
         id="g998"><path
           d="M 0.533,-0.183 H 0.21 L 0.126,0 H 0.004 L 0.377,-0.801 0.737,0 H 0.612 Z M 0.487,-0.29 0.375,-0.546 0.258,-0.29 Z"
           style="fill-rule:nonzero"
           id="path996" /></g><g
         transform="matrix(41.6667,0,0,41.6667,489.335,583.497)"
         id="g1002"><path
           d="m 0.647,-0.713 v 0.134 C 0.582,-0.634 0.514,-0.661 0.443,-0.661 c -0.077,0 -0.142,0.028 -0.195,0.083 -0.054,0.056 -0.081,0.123 -0.081,0.203 0,0.08 0.027,0.146 0.081,0.201 0.053,0.054 0.118,0.081 0.196,0.081 0.04,0 0.074,-0.006 0.102,-0.019 0.016,-0.007 0.032,-0.016 0.048,-0.027 0.017,-0.011 0.035,-0.024 0.053,-0.04 v 0.137 C 0.582,-0.005 0.514,0.014 0.442,0.014 0.335,0.014 0.243,-0.024 0.167,-0.099 0.091,-0.175 0.053,-0.266 0.053,-0.374 c 0,-0.096 0.031,-0.181 0.095,-0.256 0.078,-0.092 0.179,-0.139 0.303,-0.139 0.068,0 0.133,0.019 0.196,0.056 z"
           style="fill-rule:nonzero"
           id="path1000" /></g><g
         transform="matrix(41.6667,0,0,41.6667,519.405,583.497)"
         id="g1006"><path
           d="M 0.204,-0.453 0.498,-0.754 H 0.649 L 0.309,-0.413 0.651,0 H 0.499 L 0.228,-0.335 0.204,-0.312 V 0 H 0.09 v -0.754 h 0.114 z"
           style="fill-rule:nonzero"
           id="path1004" /></g></g><g
       transform="matrix(0.49505,0,0,1,-0.837985,20.8156)"
       id="g1034"><g
         transform="matrix(41.6667,0,0,41.6667,377.472,809.711)"
         id="g1012"><path
           d="m 0.204,-0.754 v 0.647 H 0.426 V 0 H 0.09 v -0.754 z"
           style="fill-rule:nonzero"
           id="path1010" /></g><g
         transform="matrix(41.6667,0,0,41.6667,395.946,809.711)"
         id="g1016"><path
           d="M 0.506,-0.647 H 0.204 v 0.181 h 0.294 v 0.107 H 0.204 v 0.252 H 0.506 V 0 H 0.09 v -0.754 h 0.416 z"
           style="fill-rule:nonzero"
           id="path1014" /></g><g
         transform="matrix(41.6667,0,0,41.6667,419.505,809.711)"
         id="g1020"><path
           d="m 0.128,-0.754 0.209,0.523 0.211,-0.523 H 0.673 L 0.334,0.057 0.004,-0.754 Z"
           style="fill-rule:nonzero"
           id="path1018" /></g><g
         transform="matrix(41.6667,0,0,41.6667,447.683,809.711)"
         id="g1024"><path
           d="M 0.506,-0.647 H 0.204 v 0.181 h 0.294 v 0.107 H 0.204 v 0.252 H 0.506 V 0 H 0.09 v -0.754 h 0.416 z"
           style="fill-rule:nonzero"
           id="path1022" /></g><g
         transform="matrix(41.6667,0,0,41.6667,471.243,809.711)"
         id="g1028"><path
           d="m 0.204,-0.754 v 0.647 H 0.426 V 0 H 0.09 v -0.754 z"
           style="fill-rule:nonzero"
           id="path1026" /></g><g
         transform="matrix(41.6667,0,0,41.6667,502.574,809.711)"
         id="g1032"><path
           d="M 0.271,-0.647 H 0.141 L 0.203,-0.754 H 0.385 V 0 H 0.271 Z"
           style="fill-rule:nonzero"
           id="path1030" /></g></g><g
       transform="matrix(0.49505,0,0,1,11.7108,24.7973)"
       id="g1060"><g
         transform="matrix(41.6667,0,0,41.6667,349.072,1030.99)"
         id="g1038"><path
           d="m 0.204,-0.754 v 0.647 H 0.426 V 0 H 0.09 v -0.754 z"
           style="fill-rule:nonzero"
           id="path1036" /></g><g
         transform="matrix(41.6667,0,0,41.6667,367.545,1030.99)"
         id="g1042"><path
           d="M 0.506,-0.647 H 0.204 v 0.181 h 0.294 v 0.107 H 0.204 v 0.252 H 0.506 V 0 H 0.09 v -0.754 h 0.416 z"
           style="fill-rule:nonzero"
           id="path1040" /></g><g
         transform="matrix(41.6667,0,0,41.6667,391.105,1030.99)"
         id="g1046"><path
           d="m 0.128,-0.754 0.209,0.523 0.211,-0.523 H 0.673 L 0.334,0.057 0.004,-0.754 Z"
           style="fill-rule:nonzero"
           id="path1044" /></g><g
         transform="matrix(41.6667,0,0,41.6667,419.283,1030.99)"
         id="g1050"><path
           d="M 0.506,-0.647 H 0.204 v 0.181 h 0.294 v 0.107 H 0.204 v 0.252 H 0.506 V 0 H 0.09 v -0.754 h 0.416 z"
           style="fill-rule:nonzero"
           id="path1048" /></g><g
         transform="matrix(41.6667,0,0,41.6667,442.842,1030.99)"
         id="g1054"><path
           d="m 0.204,-0.754 v 0.647 H 0.426 V 0 H 0.09 v -0.754 z"
           style="fill-rule:nonzero"
           id="path1052" /></g><g
         transform="matrix(41.6667,0,0,41.6667,474.174,1030.99)"
         id="g1058"><path
           d="M 0.25,-0.107 H 0.531 V 0 H 0.025 L 0.287,-0.317 C 0.312,-0.348 0.334,-0.376 0.351,-0.399 0.369,-0.422 0.382,-0.441 0.391,-0.457 0.41,-0.488 0.419,-0.515 0.419,-0.54 0.419,-0.575 0.407,-0.604 0.382,-0.628 0.357,-0.652 0.326,-0.664 0.29,-0.664 c -0.076,0 -0.12,0.046 -0.131,0.136 H 0.046 c 0.018,-0.159 0.098,-0.239 0.241,-0.239 0.068,0 0.126,0.022 0.172,0.066 0.047,0.043 0.071,0.097 0.071,0.162 0,0.041 -0.011,0.081 -0.033,0.121 -0.011,0.02 -0.027,0.044 -0.049,0.073 -0.021,0.028 -0.048,0.061 -0.08,0.099 z"
           style="fill-rule:nonzero"
           id="path1056" /></g></g><g
       transform="matrix(0.49505,0,0,1,5.8741,237.119)"
       id="g1086"><g
         transform="matrix(41.6667,0,0,41.6667,56.4575,1720.57)"
         id="g1064"><path
           d="m 0.09,0 v -0.754 h 0.159 c 0.075,0 0.135,0.008 0.179,0.023 0.047,0.014 0.09,0.039 0.129,0.074 0.077,0.071 0.116,0.164 0.116,0.28 0,0.116 -0.04,0.21 -0.121,0.281 C 0.511,-0.06 0.468,-0.035 0.424,-0.021 0.382,-0.007 0.323,0 0.247,0 Z m 0.114,-0.107 h 0.051 c 0.051,0 0.094,-0.005 0.128,-0.016 0.034,-0.011 0.064,-0.03 0.092,-0.054 0.056,-0.051 0.084,-0.118 0.084,-0.2 0,-0.083 -0.028,-0.15 -0.083,-0.201 C 0.426,-0.624 0.352,-0.647 0.255,-0.647 H 0.204 Z"
           style="fill-rule:nonzero"
           id="path1062" /></g><g
         transform="matrix(41.6667,0,0,41.6667,86.7106,1720.57)"
         id="g1068"><path
           d="M 0.506,-0.647 H 0.204 v 0.181 h 0.294 v 0.107 H 0.204 v 0.252 H 0.506 V 0 H 0.09 v -0.754 h 0.416 z"
           style="fill-rule:nonzero"
           id="path1066" /></g><g
         transform="matrix(41.6667,0,0,41.6667,110.27,1720.57)"
         id="g1072"><path
           d="m 0.204,-0.754 v 0.647 H 0.426 V 0 H 0.09 v -0.754 z"
           style="fill-rule:nonzero"
           id="path1070" /></g><g
         transform="matrix(41.6667,0,0,41.6667,130.493,1720.57)"
         id="g1076"><path
           d="M 0.533,-0.183 H 0.21 L 0.126,0 H 0.004 L 0.377,-0.801 0.737,0 H 0.612 Z M 0.487,-0.29 0.375,-0.546 0.258,-0.29 Z"
           style="fill-rule:nonzero"
           id="path1074" /></g><g
         transform="matrix(41.6667,0,0,41.6667,158.61,1720.57)"
         id="g1080"><path
           d="m 0.243,-0.326 -0.246,-0.428 h 0.13 L 0.3,-0.453 0.473,-0.754 H 0.604 L 0.356,-0.326 V 0 H 0.243 Z"
           style="fill-rule:nonzero"
           id="path1078" /></g><g
         transform="matrix(41.6667,0,0,41.6667,196.472,1720.57)"
         id="g1084"><path
           d="M 0.271,-0.647 H 0.141 L 0.203,-0.754 H 0.385 V 0 H 0.271 Z"
           style="fill-rule:nonzero"
           id="path1082" /></g></g><g
       transform="matrix(0.49505,0,0,1,6.6135,19.2364)"
       id="g1112"><g
         transform="matrix(41.6667,0,0,41.6667,351.912,1938.46)"
         id="g1090"><path
           d="m 0.09,0 v -0.754 h 0.159 c 0.075,0 0.135,0.008 0.179,0.023 0.047,0.014 0.09,0.039 0.129,0.074 0.077,0.071 0.116,0.164 0.116,0.28 0,0.116 -0.04,0.21 -0.121,0.281 C 0.511,-0.06 0.468,-0.035 0.424,-0.021 0.382,-0.007 0.323,0 0.247,0 Z m 0.114,-0.107 h 0.051 c 0.051,0 0.094,-0.005 0.128,-0.016 0.034,-0.011 0.064,-0.03 0.092,-0.054 0.056,-0.051 0.084,-0.118 0.084,-0.2 0,-0.083 -0.028,-0.15 -0.083,-0.201 C 0.426,-0.624 0.352,-0.647 0.255,-0.647 H 0.204 Z"
           style="fill-rule:nonzero"
           id="path1088" /></g><g
         transform="matrix(41.6667,0,0,41.6667,382.165,1938.46)"
         id="g1094"><path
           d="M 0.506,-0.647 H 0.204 v 0.181 h 0.294 v 0.107 H 0.204 v 0.252 H 0.506 V 0 H 0.09 v -0.754 h 0.416 z"
           style="fill-rule:nonzero"
           id="path1092" /></g><g
         transform="matrix(41.6667,0,0,41.6667,405.725,1938.46)"
         id="g1098"><path
           d="m 0.204,-0.754 v 0.647 H 0.426 V 0 H 0.09 v -0.754 z"
           style="fill-rule:nonzero"
           id="path1096" /></g><g
         transform="matrix(41.6667,0,0,41.6667,425.948,1938.46)"
         id="g1102"><path
           d="M 0.533,-0.183 H 0.21 L 0.126,0 H 0.004 L 0.377,-0.801 0.737,0 H 0.612 Z M 0.487,-0.29 0.375,-0.546 0.258,-0.29 Z"
           style="fill-rule:nonzero"
           id="path1100" /></g><g
         transform="matrix(41.6667,0,0,41.6667,454.065,1938.46)"
         id="g1106"><path
           d="m 0.243,-0.326 -0.246,-0.428 h 0.13 L 0.3,-0.453 0.473,-0.754 H 0.604 L 0.356,-0.326 V 0 H 0.243 Z"
           style="fill-rule:nonzero"
           id="path1104" /></g><g
         transform="matrix(41.6667,0,0,41.6667,491.927,1938.46)"
         id="g1110"><path
           d="M 0.25,-0.107 H 0.531 V 0 H 0.025 L 0.287,-0.317 C 0.312,-0.348 0.334,-0.376 0.351,-0.399 0.369,-0.422 0.382,-0.441 0.391,-0.457 0.41,-0.488 0.419,-0.515 0.419,-0.54 0.419,-0.575 0.407,-0.604 0.382,-0.628 0.357,-0.652 0.326,-0.664 0.29,-0.664 c -0.076,0 -0.12,0.046 -0.131,0.136 H 0.046 c 0.018,-0.159 0.098,-0.239 0.241,-0.239 0.068,0 0.126,0.022 0.172,0.066 0.047,0.043 0.071,0.097 0.071,0.162 0,0.041 -0.011,0.081 -0.033,0.121 -0.011,0.02 -0.027,0.044 -0.049,0.073 -0.021,0.028 -0.048,0.061 -0.08,0.099 z"
           style="fill-rule:nonzero"
           id="path1108" /></g></g><g
       transform="matrix(0.49505,0,0,1,12.1395,12.2484)"
       id="g1146"><g
         transform="matrix(41.6667,0,0,41.6667,319.723,1268.28)"
         id="g1116"><path
           d="m 0.204,-0.754 v 0.647 H 0.426 V 0 H 0.09 v -0.754 z"
           style="fill-rule:nonzero"
           id="path1114" /></g><g
         transform="matrix(41.6667,0,0,41.6667,338.196,1268.28)"
         id="g1120"><path
           d="M 0.506,-0.647 H 0.204 v 0.181 h 0.294 v 0.107 H 0.204 v 0.252 H 0.506 V 0 H 0.09 v -0.754 h 0.416 z"
           style="fill-rule:nonzero"
           id="path1118" /></g><g
         transform="matrix(41.6667,0,0,41.6667,361.756,1268.28)"
         id="g1124"><path
           d="m 0.128,-0.754 0.209,0.523 0.211,-0.523 H 0.673 L 0.334,0.057 0.004,-0.754 Z"
           style="fill-rule:nonzero"
           id="path1122" /></g><g
         transform="matrix(41.6667,0,0,41.6667,389.934,1268.28)"
         id="g1128"><path
           d="M 0.506,-0.647 H 0.204 v 0.181 h 0.294 v 0.107 H 0.204 v 0.252 H 0.506 V 0 H 0.09 v -0.754 h 0.416 z"
           style="fill-rule:nonzero"
           id="path1126" /></g><g
         transform="matrix(41.6667,0,0,41.6667,413.493,1268.28)"
         id="g1132"><path
           d="m 0.204,-0.754 v 0.647 H 0.426 V 0 H 0.09 v -0.754 z"
           style="fill-rule:nonzero"
           id="path1130" /></g><g
         transform="matrix(41.6667,0,0,41.6667,444.825,1268.28)"
         id="g1136"><path
           d="m 0.09,0 v -0.754 h 0.159 c 0.075,0 0.135,0.008 0.179,0.023 0.047,0.014 0.09,0.039 0.129,0.074 0.077,0.071 0.116,0.164 0.116,0.28 0,0.116 -0.04,0.21 -0.121,0.281 C 0.511,-0.06 0.468,-0.035 0.424,-0.021 0.382,-0.007 0.323,0 0.247,0 Z m 0.114,-0.107 h 0.051 c 0.051,0 0.094,-0.005 0.128,-0.016 0.034,-0.011 0.064,-0.03 0.092,-0.054 0.056,-0.051 0.084,-0.118 0.084,-0.2 0,-0.083 -0.028,-0.15 -0.083,-0.201 C 0.426,-0.624 0.352,-0.647 0.255,-0.647 H 0.204 Z"
           style="fill-rule:nonzero"
           id="path1134" /></g><g
         transform="matrix(41.6667,0,0,41.6667,475.078,1268.28)"
         id="g1140"><path
           d="M 0.346,-0.321 0.579,0 H 0.44 L 0.225,-0.309 H 0.204 V 0 H 0.09 v -0.754 h 0.134 c 0.099,0 0.171,0.019 0.215,0.056 0.049,0.042 0.074,0.097 0.074,0.165 0,0.054 -0.016,0.1 -0.046,0.138 -0.031,0.038 -0.071,0.063 -0.121,0.074 z M 0.204,-0.408 H 0.24 c 0.108,0 0.162,-0.041 0.162,-0.123 0,-0.077 -0.053,-0.116 -0.157,-0.116 H 0.204 Z"
           style="fill-rule:nonzero"
           id="path1138" /></g><g
         transform="matrix(41.6667,0,0,41.6667,498.78,1268.28)"
         id="g1144"><path
           d="m 0.243,-0.326 -0.246,-0.428 h 0.13 L 0.3,-0.453 0.473,-0.754 H 0.604 L 0.356,-0.326 V 0 H 0.243 Z"
           style="fill-rule:nonzero"
           id="path1142" /></g></g><g
       transform="matrix(0.49505,0,0,1,-135.021,-211.46)"
       id="g1164"><g
         transform="matrix(41.6667,0,0,41.6667,365.754,1268.28)"
         id="g1150"><path
           d="M 0.478,-0.393 H 0.79 v 0.025 c 0,0.057 -0.007,0.107 -0.02,0.151 -0.013,0.04 -0.035,0.078 -0.066,0.113 C 0.634,-0.025 0.545,0.014 0.437,0.014 0.331,0.014 0.241,-0.024 0.166,-0.1 0.09,-0.177 0.053,-0.268 0.053,-0.375 c 0,-0.11 0.038,-0.203 0.114,-0.279 0.077,-0.076 0.17,-0.115 0.28,-0.115 0.059,0 0.114,0.012 0.165,0.037 0.049,0.024 0.097,0.063 0.144,0.117 L 0.675,-0.538 C 0.613,-0.62 0.538,-0.661 0.449,-0.661 c -0.08,0 -0.147,0.027 -0.201,0.082 -0.054,0.054 -0.081,0.122 -0.081,0.204 0,0.083 0.03,0.153 0.09,0.207 0.057,0.05 0.118,0.076 0.183,0.076 0.056,0 0.107,-0.019 0.151,-0.057 0.045,-0.038 0.07,-0.084 0.075,-0.137 H 0.478 Z"
           style="fill-rule:nonzero"
           id="path1148" /></g><g
         transform="matrix(41.6667,0,0,41.6667,399.425,1268.28)"
         id="g1154"><path
           d="M 0.533,-0.183 H 0.21 L 0.126,0 H 0.004 L 0.377,-0.801 0.737,0 H 0.612 Z M 0.487,-0.29 0.375,-0.546 0.258,-0.29 Z"
           style="fill-rule:nonzero"
           id="path1152" /></g><g
         transform="matrix(41.6667,0,0,41.6667,430.288,1268.28)"
         id="g1158"><rect
           x="0.090000004"
           y="-0.75400001"
           width="0.114"
           height="0.75400001"
           style="fill-rule:nonzero"
           id="rect1156" /></g><g
         transform="matrix(41.6667,0,0,41.6667,442.577,1268.28)"
         id="g1162"><path
           d="m 0.09,0 v -0.805 l 0.55,0.575 v -0.524 h 0.114 v 0.8 L 0.204,-0.528 V 0 Z"
           style="fill-rule:nonzero"
           id="path1160" /></g></g><g
       transform="matrix(0.49505,0,0,1,14.9452,231.232)"
       id="g1174"><g
         transform="matrix(41.6667,0,0,41.6667,94.3065,1050.59)"
         id="g1168"><rect
           x="0.090000004"
           y="-0.75400001"
           width="0.114"
           height="0.75400001"
           style="fill-rule:nonzero"
           id="rect1166" /></g><g
         transform="matrix(41.6667,0,0,41.6667,106.595,1050.59)"
         id="g1172"><path
           d="m 0.09,0 v -0.805 l 0.55,0.575 v -0.524 h 0.114 v 0.8 L 0.204,-0.528 V 0 Z"
           style="fill-rule:nonzero"
           id="path1170" /></g></g></g><g
     id="Footer-Line"
     serif:id="Footer Line"
     transform="matrix(0.17102592,-2.4869219e-4,5.0235908e-4,0.0846663,0.01996893,155.04328)"
     style="clip-rule:evenodd;fill-rule:evenodd;stroke-linecap:round;stroke-linejoin:round"><path
       d="m 0,149.51 295.276,0.867"
       style="fill:none;stroke:#000000;stroke-width:7.83px;stroke-linecap:butt;stroke-miterlimit:1.5"
       id="path727" /></g><g
     id="Header-Line"
     serif:id="Header Line"
     transform="matrix(0.17102592,-2.4869219e-4,5.0235908e-4,0.0846663,-0.01347112,0.10339253)"
     style="clip-rule:evenodd;fill-rule:evenodd;stroke-linecap:round;stroke-linejoin:round"><path
       d="m 0,149.51 295.276,0.867"
       style="fill:none;stroke:#000000;stroke-width:7.83px;stroke-linecap:butt;stroke-miterlimit:1.5"
       id="path734" /></g><g
     transform="matrix(0.08466675,0,0,0.08466667,0.06173622,-38.038196)"
     id="g763"
     style="clip-rule:evenodd;fill-rule:evenodd;stroke-linecap:round;stroke-linejoin:round"><path
       d="m 0,855 h 268.219 c 16.574,0 30.011,13.436 30.011,30.011 0,43.085 0,122.009 0,165.049 0,16.54 13.403,29.94 29.938,29.94 h 268.289"
       style="fill:none;stroke:#000000;stroke-width:6.25px;stroke-linecap:butt;stroke-miterlimit:1.5"
       id="path761" /></g></g><g
   inkscape:label="Edge.Cuts"
   inkscape:groupmode="layer"
   id="g5152"
   style="display:inline"><g
     transform="matrix(0.3527784,0,0,-0.35277806,0.06173622,175.06188)"
     id="g640"
     style="clip-rule:evenodd;fill:none;fill-rule:evenodd;stroke-linecap:round;stroke-linejoin:round"><path
       d="m 141.732,496.063 0.284,-0.029 0.266,-0.083 0.241,-0.131 0.21,-0.174 0.173,-0.21 0.132,-0.241 0.083,-0.265 0.029,-0.284 V 1.417 l -0.029,-0.28397 -0.083,-0.265233 -0.132,-0.2406 -0.173,-0.210072 -0.21,-0.17365 L 142.282,0.112141 142.016,0.0290176 141.732,0 H 1.417 L 1.13303,0.0290176 0.867797,0.112141 0.627197,0.243475 0.417125,0.417125 0.243475,0.627197 0.112141,0.867797 0.0290176,1.13303 0,1.417 v 493.229 l 0.0290176,0.284 0.0831234,0.265 0.131334,0.241 0.17365,0.21 0.210072,0.174 0.2406,0.131 0.265233,0.083 0.28397,0.029 h 140.315"
       style="fill:none;stroke:#000000;stroke-width:0.35px"
       id="path638" /></g><g
     transform="matrix(0.3527784,0,0,-0.35277806,0.06173622,175.06188)"
     id="g644"
     style="clip-rule:evenodd;fill-rule:evenodd;stroke-linecap:round;stroke-linejoin:round"><path
       d="m 26.575,487.31 0.0221,-0.432 0.0649,-0.421 0.1055,-0.406 0.1438,-0.39 0.18,-0.371 0.2139,-0.351 0.2457,-0.327 0.2752,-0.303 0.3026,-0.275 0.3277,-0.246 0.3506,-0.214 0.3714,-0.18 0.3899,-0.144 0.4062,-0.105 0.4203,-0.065 0.4322,-0.022 h 9.496 l 0.4321,0.022 0.4201,0.065 0.4062,0.105 0.3898,0.144 0.3713,0.18 0.3507,0.214 0.3277,0.246 0.3026,0.275 0.2753,0.303 0.2457,0.327 0.214,0.351 0.1801,0.371 0.1438,0.39 0.1055,0.406 0.065,0.421 0.0221,0.432 v 0.499 l -0.0221,0.432 -0.065,0.42 -0.1055,0.406 -0.1438,0.39 -0.1801,0.371 -0.214,0.351 -0.2457,0.327 -0.2753,0.303 -0.3026,0.275 -0.3277,0.246 -0.3507,0.214 -0.3713,0.18 -0.3898,0.144 -0.4062,0.105 -0.4201,0.065 -0.4321,0.022 h -9.496 l -0.4322,-0.022 -0.4203,-0.065 -0.4062,-0.105 -0.3899,-0.144 -0.3714,-0.18 -0.3506,-0.214 -0.3277,-0.246 -0.3026,-0.275 -0.2752,-0.303 -0.2457,-0.327 -0.2139,-0.351 -0.18,-0.371 -0.1438,-0.39 -0.1055,-0.406 -0.0649,-0.42 -0.0221,-0.432 v -0.499"
       style="fill:#ffffff;stroke:#000000;stroke-width:0.35px"
       id="path642" /></g><g
     transform="matrix(0.3527784,0,0,-0.35277806,0.06173622,175.06188)"
     id="g648"
     style="clip-rule:evenodd;fill-rule:evenodd;stroke-linecap:round;stroke-linejoin:round"><path
       d="m 98.575,487.31 0.0221,-0.432 0.0649,-0.421 0.1055,-0.406 0.1438,-0.39 0.18,-0.371 0.2139,-0.351 0.2457,-0.327 0.2752,-0.303 0.3029,-0.275 0.327,-0.246 0.351,-0.214 0.371,-0.18 0.39,-0.144 0.406,-0.105 0.421,-0.065 0.432,-0.022 h 9.496 l 0.432,0.022 0.42,0.065 0.406,0.105 0.39,0.144 0.372,0.18 0.35,0.214 0.328,0.246 0.302,0.275 0.276,0.303 0.246,0.327 0.214,0.351 0.18,0.371 0.143,0.39 0.106,0.406 0.065,0.421 0.022,0.432 v 0.499 l -0.022,0.432 -0.065,0.42 -0.106,0.406 -0.143,0.39 -0.18,0.371 -0.214,0.351 -0.246,0.327 -0.276,0.303 -0.302,0.275 -0.328,0.246 -0.35,0.214 -0.372,0.18 -0.39,0.144 -0.406,0.105 -0.42,0.065 -0.432,0.022 h -9.496 l -0.432,-0.022 -0.421,-0.065 -0.406,-0.105 -0.39,-0.144 -0.371,-0.18 -0.351,-0.214 -0.327,-0.246 -0.3029,-0.275 -0.2752,-0.303 -0.2457,-0.327 -0.2139,-0.351 -0.18,-0.371 -0.1438,-0.39 -0.1055,-0.406 -0.0649,-0.42 -0.0221,-0.432 v -0.499"
       style="fill:#ffffff;stroke:#000000;stroke-width:0.35px"
       id="path646" /></g><g
     transform="matrix(0.3527784,0,0,-0.35277806,0.06173622,175.06188)"
     id="g652"
     style="clip-rule:evenodd;fill-rule:evenodd;stroke-linecap:round;stroke-linejoin:round"><path
       d="m 98.575,8.257 0.0221,-0.43205 0.0649,-0.42019 0.1055,-0.40612 0.1438,-0.38983 0.18,-0.37134 0.2139,-0.35063 0.2457,-0.32773 0.2752,-0.30261 0.3029,-0.27528 0.327,-0.24574 0.351,-0.214 0.371,-0.18004 0.39,-0.14388 0.406,-0.10551 0.421,-0.06492 0.432,-0.02213 h 9.496 l 0.432,0.02213 0.42,0.06492 0.406,0.10551 0.39,0.14388 0.372,0.18004 0.35,0.214 0.328,0.24574 0.302,0.27528 0.276,0.30261 0.246,0.32773 0.214,0.35063 0.18,0.37134 0.143,0.38983 0.106,0.40612 0.065,0.42019 0.022,0.43205 v 0.496 l -0.022,0.43222 -0.065,0.42031 -0.106,0.40617 -0.143,0.3899 -0.18,0.3714 -0.214,0.3506 -0.246,0.3277 -0.276,0.3026 -0.302,0.2752 -0.328,0.2457 -0.35,0.2139 -0.372,0.18 -0.39,0.1438 -0.406,0.1055 -0.42,0.0649 -0.432,0.0221 h -9.496 l -0.432,-0.0221 -0.421,-0.0649 -0.406,-0.1055 -0.39,-0.1438 -0.371,-0.18 -0.351,-0.2139 -0.327,-0.2457 -0.3029,-0.2752 -0.2752,-0.3026 -0.2457,-0.3277 -0.2139,-0.3506 -0.18,-0.3714 L 98.7675,10.0117 98.662,9.60553 98.5971,9.18522 98.575,8.753 V 8.257"
       style="fill:#ffffff;stroke:#000000;stroke-width:0.35px"
       id="path650" /></g><g
     transform="matrix(0.3527784,0,0,-0.35277806,0.06173622,175.06188)"
     id="g656"
     style="clip-rule:evenodd;fill-rule:evenodd;stroke-linecap:round;stroke-linejoin:round"><path
       d="M 26.575,8.257 26.5971,7.82495 26.662,7.40476 26.7675,6.99864 26.9113,6.60881 27.0913,6.23747 27.3052,5.88684 27.5509,5.55911 27.8261,5.2565 28.1287,4.98122 28.4564,4.73548 28.807,4.52148 29.1784,4.34144 29.5683,4.19756 29.9745,4.09205 30.3948,4.02713 30.827,4.005 h 9.496 l 0.4321,0.02213 0.4201,0.06492 0.4062,0.10551 0.3898,0.14388 0.3713,0.18004 0.3507,0.214 0.3277,0.24574 0.3026,0.27528 0.2753,0.30261 0.2457,0.32773 0.214,0.35063 0.1801,0.37134 0.1438,0.38983 0.1055,0.40612 0.065,0.42019 0.0221,0.43205 v 0.496 l -0.0221,0.43222 -0.065,0.42031 -0.1055,0.40617 -0.1438,0.3899 -0.1801,0.3714 -0.214,0.3506 -0.2457,0.3277 -0.2753,0.3026 -0.3026,0.2752 -0.3277,0.2457 -0.3507,0.2139 -0.3713,0.18 -0.3898,0.1438 -0.4062,0.1055 -0.4201,0.0649 -0.4321,0.0221 H 30.827 L 30.3948,12.9829 29.9745,12.918 29.5683,12.8125 29.1784,12.6687 28.807,12.4887 28.4564,12.2748 28.1287,12.0291 27.8261,11.7539 27.5509,11.4513 27.3052,11.1236 27.0913,10.773 26.9113,10.4016 26.7675,10.0117 26.662,9.60553 26.5971,9.18522 26.575,8.753 V 8.257"
       style="fill:#ffffff;stroke:#000000;stroke-width:0.35px"
       id="path654" /></g><g
     transform="matrix(0.3527784,0,0,-0.35277806,0.06173622,175.06188)"
     id="g660"
     style="clip-rule:evenodd;fill-rule:evenodd;stroke-linecap:round;stroke-linejoin:round"><path
       d="m 42.996,279.184 -0.4099,0.317 -0.4203,0.296 -0.4301,0.275 -0.4391,0.256 -0.4475,0.234 -0.4552,0.215 -0.4621,0.194 -0.4683,0.173 -0.4739,0.153 -0.4789,0.133 -0.4829,0.113 -0.4865,0.091 -0.4892,0.072 -0.4914,0.051 -0.4927,0.031 -0.4934,0.01 -0.4934,-0.01 -0.4927,-0.031 -0.4913,-0.051 -0.4892,-0.072 -0.4864,-0.091 -0.483,-0.113 -0.4788,-0.133 -0.4738,-0.153 -0.4684,-0.173 -0.462,-0.194 -0.4551,-0.215 -0.4474,-0.234 -0.4391,-0.256 -0.43,-0.275 -0.4202,-0.296 -0.4098,-0.317 -0.3547,-0.321 -0.3136,-0.356 -0.2706,-0.386 -0.2256,-0.412 -0.1787,-0.435 -0.13,-0.453 -0.0792,-0.467 -0.0266,-0.478 v -11.752 l 0.0266,-0.478 0.0792,-0.467 0.13,-0.453 0.1787,-0.435 0.2256,-0.412 0.2706,-0.386 0.3136,-0.356 0.3547,-0.321 0.4098,-0.317 0.4202,-0.296 0.43,-0.275 0.4391,-0.256 0.4474,-0.234 0.4551,-0.215 0.462,-0.194 0.4684,-0.173 0.4738,-0.153 0.4788,-0.133 0.483,-0.113 0.4864,-0.091 0.4892,-0.072 0.4913,-0.051 0.4927,-0.031 0.4934,-0.01 0.4934,0.01 0.4927,0.031 0.4914,0.051 0.4892,0.072 0.4865,0.091 0.4829,0.113 0.4789,0.133 0.4739,0.153 0.4683,0.173 0.4621,0.194 0.4552,0.215 0.4475,0.234 0.4391,0.256 0.4301,0.275 0.4203,0.296 0.4099,0.317 0.3544,0.321 0.3134,0.356 0.2704,0.386 0.2256,0.412 0.1787,0.435 0.1301,0.453 0.0795,0.467 0.0269,0.478 v 11.752 l -0.0269,0.478 -0.0795,0.467 -0.1301,0.453 -0.1787,0.435 -0.2256,0.412 -0.2704,0.386 -0.3134,0.356 -0.3544,0.321"
       style="fill:#ffffff;stroke:#000000;stroke-width:0.35px"
       id="path658" /></g><g
     transform="matrix(0.3527784,0,0,-0.35277806,0.06173622,175.06188)"
     id="g664"
     style="clip-rule:evenodd;fill-rule:evenodd;stroke-linecap:round;stroke-linejoin:round"><path
       d="m 96.945,54 0.0139,0.5435 0.0414,0.5368 0.0681,0.5294 0.0942,0.5212 0.1195,0.5124 0.1441,0.503 0.1682,0.4927 0.1914,0.4819 0.214,0.4703 0.236,0.4581 0.2572,0.4451 0.2777,0.4314 0.2975,0.4172 0.3167,0.4021 0.3352,0.3865 0.3529,0.37 0.37,0.353 0.386,0.3352 0.403,0.3167 0.417,0.2976 0.431,0.2777 0.445,0.2572 0.458,0.236 0.471,0.214 0.482,0.1915 0.492,0.1682 0.503,0.1442 0.513,0.1195 0.521,0.0942 0.53,0.0681 0.536,0.0414 0.544,0.0139 0.544,-0.0139 0.536,-0.0414 0.53,-0.0681 0.521,-0.0942 0.512,-0.1195 0.503,-0.1442 0.493,-0.1682 0.482,-0.1915 0.47,-0.214 0.458,-0.236 0.445,-0.2572 0.432,-0.2777 0.417,-0.2976 0.402,-0.3167 0.387,-0.3352 0.37,-0.353 0.353,-0.37 0.335,-0.3865 0.316,-0.4021 0.298,-0.4172 0.278,-0.4314 0.257,-0.4451 0.236,-0.4581 0.214,-0.4703 0.192,-0.4819 0.168,-0.4927 0.144,-0.503 0.119,-0.5124 0.095,-0.5212 0.068,-0.5294 0.041,-0.5368 0.014,-0.5435 -0.014,-0.5435 -0.041,-0.5368 -0.068,-0.5294 -0.095,-0.5212 -0.119,-0.5124 -0.144,-0.503 -0.168,-0.4927 -0.192,-0.4819 -0.214,-0.4703 -0.236,-0.4581 -0.257,-0.4451 -0.278,-0.4314 -0.298,-0.4172 -0.316,-0.4021 -0.335,-0.3865 -0.353,-0.37 -0.37,-0.353 -0.387,-0.3352 -0.402,-0.3167 -0.417,-0.2976 -0.432,-0.2777 -0.445,-0.2572 -0.458,-0.236 -0.47,-0.214 -0.482,-0.1915 -0.493,-0.1682 -0.503,-0.1442 -0.512,-0.1195 -0.521,-0.0942 -0.53,-0.0681 -0.536,-0.0414 -0.544,-0.0139 -0.544,0.0139 -0.536,0.0414 -0.53,0.0681 -0.521,0.0942 -0.513,0.1195 -0.503,0.1442 -0.492,0.1682 -0.482,0.1915 -0.471,0.214 -0.458,0.236 -0.445,0.2572 -0.431,0.2777 -0.417,0.2976 -0.403,0.3167 -0.386,0.3352 -0.37,0.353 -0.3529,0.37 -0.3352,0.3865 -0.3167,0.4021 -0.2975,0.4172 -0.2777,0.4314 -0.2572,0.4451 -0.236,0.4581 -0.214,0.4703 -0.1914,0.4819 -0.1682,0.4927 -0.1441,0.503 -0.1195,0.5124 -0.0942,0.5212 -0.0681,0.5294 -0.0414,0.5368 L 96.945,54"
       style="fill:#ffffff;stroke:#000000;stroke-width:0.35px"
       id="path662" /></g><g
     transform="matrix(0.3527784,0,0,-0.35277806,0.06173622,175.06188)"
     id="g668"
     style="clip-rule:evenodd;fill-rule:evenodd;stroke-linecap:round;stroke-linejoin:round"><path
       d="m 24.945,54 0.0139,0.5435 0.0414,0.5368 0.0681,0.5294 0.0942,0.5212 0.1195,0.5124 0.1441,0.503 0.1682,0.4927 0.1914,0.4819 0.214,0.4703 0.236,0.4581 0.2572,0.4451 0.2777,0.4314 0.2975,0.4172 0.3167,0.4021 0.3352,0.3865 0.3529,0.37 0.37,0.353 0.3864,0.3352 0.4022,0.3167 0.4171,0.2976 0.4315,0.2777 0.4451,0.2572 0.4581,0.236 0.4703,0.214 0.4819,0.1915 0.4928,0.1682 0.5029,0.1442 0.5125,0.1195 0.5213,0.0942 0.5294,0.0681 0.5369,0.0414 0.5436,0.0139 0.5435,-0.0139 0.5368,-0.0414 0.5294,-0.0681 0.5212,-0.0942 0.5124,-0.1195 0.503,-0.1442 0.4927,-0.1682 0.4819,-0.1915 0.4703,-0.214 0.4581,-0.236 0.4451,-0.2572 0.4314,-0.2777 0.4172,-0.2976 0.4021,-0.3167 0.3865,-0.3352 0.37,-0.353 0.353,-0.37 0.3352,-0.3865 0.3167,-0.4021 0.2976,-0.4172 0.2777,-0.4314 0.2572,-0.4451 0.236,-0.4581 0.214,-0.4703 0.1915,-0.4819 0.1682,-0.4927 0.1442,-0.503 0.1195,-0.5124 0.0942,-0.5212 0.0681,-0.5294 0.0414,-0.5368 L 46.205,54 46.1911,53.4565 46.1497,52.9197 46.0816,52.3903 45.9874,51.8691 45.8679,51.3567 45.7237,50.8537 45.5555,50.361 45.364,49.8791 45.15,49.4088 44.914,48.9507 44.6568,48.5056 44.3791,48.0742 44.0815,47.657 l -0.3167,-0.4021 -0.3352,-0.3865 -0.353,-0.37 -0.37,-0.353 L 42.3201,45.8102 41.918,45.4935 41.5008,45.1959 41.0694,44.9182 40.6243,44.661 40.1662,44.425 39.6959,44.211 39.214,44.0195 38.7213,43.8513 38.2183,43.7071 37.7059,43.5876 37.1847,43.4934 36.6553,43.4253 36.1185,43.3839 35.575,43.37 l -0.5436,0.0139 -0.5369,0.0414 -0.5294,0.0681 -0.5213,0.0942 -0.5125,0.1195 -0.5029,0.1442 -0.4928,0.1682 -0.4819,0.1915 -0.4703,0.214 -0.4581,0.236 -0.4451,0.2572 -0.4315,0.2777 -0.4171,0.2976 -0.4022,0.3167 -0.3864,0.3352 -0.37,0.353 -0.3529,0.37 -0.3352,0.3865 -0.3167,0.4021 -0.2975,0.4172 -0.2777,0.4314 -0.2572,0.4451 -0.236,0.4581 -0.214,0.4703 -0.1914,0.4819 -0.1682,0.4927 -0.1441,0.503 -0.1195,0.5124 -0.0942,0.5212 -0.0681,0.5294 -0.0414,0.5368 L 24.945,54"
       style="fill:#ffffff;stroke:#000000;stroke-width:0.35px"
       id="path666" /></g><g
     transform="matrix(0.3527784,0,0,-0.35277806,0.06173622,175.06188)"
     id="g672"
     style="clip-rule:evenodd;fill-rule:evenodd;stroke-linecap:round;stroke-linejoin:round"><path
       d="m 24.945,108 0.0139,0.544 0.0414,0.536 0.0681,0.53 0.0942,0.521 0.1195,0.512 0.1441,0.503 0.1682,0.493 0.1914,0.482 0.214,0.47 0.236,0.458 0.2572,0.445 0.2777,0.432 0.2975,0.417 0.3167,0.402 0.3352,0.387 0.3529,0.37 0.37,0.353 0.3864,0.335 0.4022,0.316 0.4171,0.298 0.4315,0.278 0.4451,0.257 0.4581,0.236 0.4703,0.214 0.4819,0.192 0.4928,0.168 0.5029,0.144 0.5125,0.119 0.5213,0.095 0.5294,0.068 0.5369,0.041 0.5436,0.014 0.5435,-0.014 0.5368,-0.041 0.5294,-0.068 0.5212,-0.095 0.5124,-0.119 0.503,-0.144 0.4927,-0.168 0.4819,-0.192 0.4703,-0.214 0.4581,-0.236 0.4451,-0.257 0.4314,-0.278 0.4172,-0.298 0.4021,-0.316 0.3865,-0.335 0.37,-0.353 0.353,-0.37 0.3352,-0.387 0.3167,-0.402 0.2976,-0.417 0.2777,-0.432 0.2572,-0.445 0.236,-0.458 0.214,-0.47 0.1915,-0.482 0.1682,-0.493 0.1442,-0.503 0.1195,-0.512 0.0942,-0.521 0.0681,-0.53 0.0414,-0.536 0.0139,-0.544 -0.0139,-0.544 -0.0414,-0.536 -0.0681,-0.53 -0.0942,-0.521 -0.1195,-0.512 -0.1442,-0.503 -0.1682,-0.493 -0.1915,-0.482 -0.214,-0.47 -0.236,-0.458 -0.2572,-0.445 -0.2777,-0.432 -0.2976,-0.417 -0.3167,-0.402 -0.3352,-0.387 -0.353,-0.37 -0.37,-0.353 L 42.3201,99.8102 41.918,99.4935 41.5008,99.1959 41.0694,98.9182 40.6243,98.661 40.1662,98.425 39.6959,98.211 39.214,98.0195 38.7213,97.8513 38.2183,97.7071 37.7059,97.5876 37.1847,97.4934 36.6553,97.4253 36.1185,97.3839 35.575,97.37 l -0.5436,0.0139 -0.5369,0.0414 -0.5294,0.0681 -0.5213,0.0942 -0.5125,0.1195 -0.5029,0.1442 -0.4928,0.1682 -0.4819,0.1915 -0.4703,0.214 -0.4581,0.236 -0.4451,0.2572 -0.4315,0.2777 -0.4171,0.2976 -0.4022,0.3167 -0.3864,0.3348 -0.37,0.353 -0.3529,0.37 -0.3352,0.387 -0.3167,0.402 -0.2975,0.417 -0.2777,0.432 -0.2572,0.445 -0.236,0.458 -0.214,0.47 -0.1914,0.482 -0.1682,0.493 -0.1441,0.503 -0.1195,0.512 -0.0942,0.521 -0.0681,0.53 -0.0414,0.536 L 24.945,108"
       style="fill:#ffffff;stroke:#000000;stroke-width:0.35px"
       id="path670" /></g><g
     transform="matrix(0.3527784,0,0,-0.35277806,0.06173622,175.06188)"
     id="g676"
     style="clip-rule:evenodd;fill-rule:evenodd;stroke-linecap:round;stroke-linejoin:round"><path
       d="m 96.945,108 0.0139,0.544 0.0414,0.536 0.0681,0.53 0.0942,0.521 0.1195,0.512 0.1441,0.503 0.1682,0.493 0.1914,0.482 0.214,0.47 0.236,0.458 0.2572,0.445 0.2777,0.432 0.2975,0.417 0.3167,0.402 0.3352,0.387 0.3529,0.37 0.37,0.353 0.386,0.335 0.403,0.316 0.417,0.298 0.431,0.278 0.445,0.257 0.458,0.236 0.471,0.214 0.482,0.192 0.492,0.168 0.503,0.144 0.513,0.119 0.521,0.095 0.53,0.068 0.536,0.041 0.544,0.014 0.544,-0.014 0.536,-0.041 0.53,-0.068 0.521,-0.095 0.512,-0.119 0.503,-0.144 0.493,-0.168 0.482,-0.192 0.47,-0.214 0.458,-0.236 0.445,-0.257 0.432,-0.278 0.417,-0.298 0.402,-0.316 0.387,-0.335 0.37,-0.353 0.353,-0.37 0.335,-0.387 0.316,-0.402 0.298,-0.417 0.278,-0.432 0.257,-0.445 0.236,-0.458 0.214,-0.47 0.192,-0.482 0.168,-0.493 0.144,-0.503 0.119,-0.512 0.095,-0.521 0.068,-0.53 0.041,-0.536 0.014,-0.544 -0.014,-0.544 -0.041,-0.536 -0.068,-0.53 -0.095,-0.521 -0.119,-0.512 -0.144,-0.503 -0.168,-0.493 -0.192,-0.482 -0.214,-0.47 -0.236,-0.458 -0.257,-0.445 -0.278,-0.432 -0.298,-0.417 -0.316,-0.402 -0.335,-0.387 -0.353,-0.37 -0.37,-0.353 -0.387,-0.3348 -0.402,-0.3167 -0.417,-0.2976 -0.432,-0.2777 -0.445,-0.2572 -0.458,-0.236 -0.47,-0.214 -0.482,-0.1915 -0.493,-0.1682 -0.503,-0.1442 -0.512,-0.1195 -0.521,-0.0942 -0.53,-0.0681 -0.536,-0.0414 -0.544,-0.0139 -0.544,0.0139 -0.536,0.0414 -0.53,0.0681 -0.521,0.0942 -0.513,0.1195 -0.503,0.1442 -0.492,0.1682 -0.482,0.1915 -0.471,0.214 -0.458,0.236 -0.445,0.2572 -0.431,0.2777 -0.417,0.2976 -0.403,0.3167 -0.386,0.3348 -0.37,0.353 -0.3529,0.37 -0.3352,0.387 -0.3167,0.402 -0.2975,0.417 -0.2777,0.432 -0.2572,0.445 -0.236,0.458 -0.214,0.47 -0.1914,0.482 -0.1682,0.493 -0.1441,0.503 -0.1195,0.512 -0.0942,0.521 -0.0681,0.53 -0.0414,0.536 L 96.945,108"
       style="fill:#ffffff;stroke:#000000;stroke-width:0.35px"
       id="path674" /></g><g
     transform="matrix(0.3527784,0,0,-0.35277806,0.06173622,175.06188)"
     id="g680"
     style="clip-rule:evenodd;fill-rule:evenodd;stroke-linecap:round;stroke-linejoin:round"><path
       d="m 42.996,171.184 -0.4099,0.317 -0.4203,0.296 -0.4301,0.275 -0.4391,0.256 -0.4475,0.234 -0.4552,0.215 -0.4621,0.194 -0.4683,0.173 -0.4739,0.153 -0.4789,0.133 -0.4829,0.113 -0.4865,0.091 -0.4892,0.072 -0.4914,0.051 -0.4927,0.031 -0.4934,0.01 -0.4934,-0.01 -0.4927,-0.031 -0.4913,-0.051 -0.4892,-0.072 -0.4864,-0.091 -0.483,-0.113 -0.4788,-0.133 -0.4738,-0.153 -0.4684,-0.173 -0.462,-0.194 -0.4551,-0.215 -0.4474,-0.234 -0.4391,-0.256 -0.43,-0.275 -0.4202,-0.296 -0.4098,-0.317 -0.3547,-0.321 -0.3136,-0.356 -0.2706,-0.386 -0.2256,-0.412 -0.1787,-0.435 -0.13,-0.453 -0.0792,-0.467 -0.0266,-0.478 v -11.752 l 0.0266,-0.478 0.0792,-0.467 0.13,-0.453 0.1787,-0.435 0.2256,-0.412 0.2706,-0.386 0.3136,-0.356 0.3547,-0.321 0.4098,-0.317 0.4202,-0.296 0.43,-0.275 0.4391,-0.256 0.4474,-0.234 0.4551,-0.215 0.462,-0.194 0.4684,-0.173 0.4738,-0.153 0.4788,-0.133 0.483,-0.113 0.4864,-0.091 0.4892,-0.072 0.4913,-0.051 0.4927,-0.031 0.4934,-0.01 0.4934,0.01 0.4927,0.031 0.4914,0.051 0.4892,0.072 0.4865,0.091 0.4829,0.113 0.4789,0.133 0.4739,0.153 0.4683,0.173 0.4621,0.194 0.4552,0.215 0.4475,0.234 0.4391,0.256 0.4301,0.275 0.4203,0.296 0.4099,0.317 0.3544,0.321 0.3134,0.356 0.2704,0.386 0.2256,0.412 0.1787,0.435 0.1301,0.453 0.0795,0.467 0.0269,0.478 v 11.752 l -0.0269,0.478 -0.0795,0.467 -0.1301,0.453 -0.1787,0.435 -0.2256,0.412 -0.2704,0.386 -0.3134,0.356 -0.3544,0.321"
       style="fill:#ffffff;stroke:#000000;stroke-width:0.35px"
       id="path678" /></g><g
     transform="matrix(0.3527784,0,0,-0.35277806,0.06173622,175.06188)"
     id="g684"
     style="clip-rule:evenodd;fill-rule:evenodd;stroke-linecap:round;stroke-linejoin:round"><path
       d="m 114.996,171.184 -0.41,0.317 -0.42,0.296 -0.43,0.275 -0.439,0.256 -0.448,0.234 -0.455,0.215 -0.462,0.194 -0.469,0.173 -0.473,0.153 -0.479,0.133 -0.483,0.113 -0.487,0.091 -0.489,0.072 -0.491,0.051 -0.493,0.031 -0.493,0.01 -0.494,-0.01 -0.492,-0.031 -0.492,-0.051 -0.489,-0.072 -0.486,-0.091 -0.483,-0.113 -0.479,-0.133 -0.474,-0.153 -0.468,-0.173 -0.462,-0.194 -0.455,-0.215 -0.448,-0.234 -0.439,-0.256 -0.43,-0.275 -0.42,-0.296 -0.41,-0.317 -0.3547,-0.321 -0.3136,-0.356 -0.2706,-0.386 -0.2256,-0.412 -0.1787,-0.435 -0.13,-0.453 -0.0792,-0.467 -0.0266,-0.478 v -11.752 l 0.0266,-0.478 0.0792,-0.467 0.13,-0.453 0.1787,-0.435 0.2256,-0.412 0.2706,-0.386 0.3136,-0.356 0.3547,-0.321 0.41,-0.317 0.42,-0.296 0.43,-0.275 0.439,-0.256 0.448,-0.234 0.455,-0.215 0.462,-0.194 0.468,-0.173 0.474,-0.153 0.479,-0.133 0.483,-0.113 0.486,-0.091 0.489,-0.072 0.492,-0.051 0.492,-0.031 0.494,-0.01 0.493,0.01 0.493,0.031 0.491,0.051 0.489,0.072 0.487,0.091 0.483,0.113 0.479,0.133 0.473,0.153 0.469,0.173 0.462,0.194 0.455,0.215 0.448,0.234 0.439,0.256 0.43,0.275 0.42,0.296 0.41,0.317 0.354,0.321 0.314,0.356 0.27,0.386 0.226,0.412 0.179,0.435 0.13,0.453 0.079,0.467 0.027,0.478 v 11.752 l -0.027,0.478 -0.079,0.467 -0.13,0.453 -0.179,0.435 -0.226,0.412 -0.27,0.386 -0.314,0.356 -0.354,0.321"
       style="fill:#ffffff;stroke:#000000;stroke-width:0.35px"
       id="path682" /></g><g
     transform="matrix(0.3527784,0,0,-0.35277806,0.06173622,175.06188)"
     id="g688"
     style="clip-rule:evenodd;fill-rule:evenodd;stroke-linecap:round;stroke-linejoin:round"><path
       d="m 24.945,216 0.0139,0.544 0.0414,0.536 0.0681,0.53 0.0942,0.521 0.1195,0.512 0.1441,0.503 0.1682,0.493 0.1914,0.482 0.214,0.47 0.236,0.458 0.2572,0.445 0.2777,0.432 0.2975,0.417 0.3167,0.402 0.3352,0.387 0.3529,0.37 0.37,0.353 0.3864,0.335 0.4022,0.316 0.4171,0.298 0.4315,0.278 0.4451,0.257 0.4581,0.236 0.4703,0.214 0.4819,0.192 0.4928,0.168 0.5029,0.144 0.5125,0.119 0.5213,0.095 0.5294,0.068 0.5369,0.041 0.5436,0.014 0.5435,-0.014 0.5368,-0.041 0.5294,-0.068 0.5212,-0.095 0.5124,-0.119 0.503,-0.144 0.4927,-0.168 0.4819,-0.192 0.4703,-0.214 0.4581,-0.236 0.4451,-0.257 0.4314,-0.278 0.4172,-0.298 0.4021,-0.316 0.3865,-0.335 0.37,-0.353 0.353,-0.37 0.3352,-0.387 0.3167,-0.402 0.2976,-0.417 0.2777,-0.432 0.2572,-0.445 0.236,-0.458 0.214,-0.47 0.1915,-0.482 0.1682,-0.493 0.1442,-0.503 0.1195,-0.512 0.0942,-0.521 0.0681,-0.53 0.0414,-0.536 0.0139,-0.544 -0.0139,-0.544 -0.0414,-0.536 -0.0681,-0.53 -0.0942,-0.521 -0.1195,-0.512 -0.1442,-0.503 -0.1682,-0.493 -0.1915,-0.482 -0.214,-0.47 -0.236,-0.458 -0.2572,-0.445 -0.2777,-0.432 -0.2976,-0.417 -0.3167,-0.402 -0.3352,-0.387 -0.353,-0.37 -0.37,-0.353 -0.3865,-0.335 -0.4021,-0.316 -0.4172,-0.298 -0.4314,-0.278 -0.4451,-0.257 -0.4581,-0.236 -0.4703,-0.214 -0.4819,-0.192 -0.4927,-0.168 -0.503,-0.144 -0.5124,-0.119 -0.5212,-0.095 -0.5294,-0.068 -0.5368,-0.041 -0.5435,-0.014 -0.5436,0.014 -0.5369,0.041 -0.5294,0.068 -0.5213,0.095 -0.5125,0.119 -0.5029,0.144 -0.4928,0.168 -0.4819,0.192 -0.4703,0.214 -0.4581,0.236 -0.4451,0.257 -0.4315,0.278 -0.4171,0.298 -0.4022,0.316 -0.3864,0.335 -0.37,0.353 -0.3529,0.37 -0.3352,0.387 -0.3167,0.402 -0.2975,0.417 -0.2777,0.432 -0.2572,0.445 -0.236,0.458 -0.214,0.47 -0.1914,0.482 -0.1682,0.493 -0.1441,0.503 -0.1195,0.512 -0.0942,0.521 -0.0681,0.53 -0.0414,0.536 L 24.945,216"
       style="fill:#ffffff;stroke:#000000;stroke-width:0.35px"
       id="path686" /></g><g
     transform="matrix(0.3527784,0,0,-0.35277806,0.06173622,175.06188)"
     id="g692"
     style="clip-rule:evenodd;fill-rule:evenodd;stroke-linecap:round;stroke-linejoin:round"><path
       d="m 96.945,216 0.0139,0.544 0.0414,0.536 0.0681,0.53 0.0942,0.521 0.1195,0.512 0.1441,0.503 0.1682,0.493 0.1914,0.482 0.214,0.47 0.236,0.458 0.2572,0.445 0.2777,0.432 0.2975,0.417 0.3167,0.402 0.3352,0.387 0.3529,0.37 0.37,0.353 0.386,0.335 0.403,0.316 0.417,0.298 0.431,0.278 0.445,0.257 0.458,0.236 0.471,0.214 0.482,0.192 0.492,0.168 0.503,0.144 0.513,0.119 0.521,0.095 0.53,0.068 0.536,0.041 0.544,0.014 0.544,-0.014 0.536,-0.041 0.53,-0.068 0.521,-0.095 0.512,-0.119 0.503,-0.144 0.493,-0.168 0.482,-0.192 0.47,-0.214 0.458,-0.236 0.445,-0.257 0.432,-0.278 0.417,-0.298 0.402,-0.316 0.387,-0.335 0.37,-0.353 0.353,-0.37 0.335,-0.387 0.316,-0.402 0.298,-0.417 0.278,-0.432 0.257,-0.445 0.236,-0.458 0.214,-0.47 0.192,-0.482 0.168,-0.493 0.144,-0.503 0.119,-0.512 0.095,-0.521 0.068,-0.53 0.041,-0.536 0.014,-0.544 -0.014,-0.544 -0.041,-0.536 -0.068,-0.53 -0.095,-0.521 -0.119,-0.512 -0.144,-0.503 -0.168,-0.493 -0.192,-0.482 -0.214,-0.47 -0.236,-0.458 -0.257,-0.445 -0.278,-0.432 -0.298,-0.417 -0.316,-0.402 -0.335,-0.387 -0.353,-0.37 -0.37,-0.353 -0.387,-0.335 -0.402,-0.316 -0.417,-0.298 -0.432,-0.278 -0.445,-0.257 -0.458,-0.236 -0.47,-0.214 -0.482,-0.192 -0.493,-0.168 -0.503,-0.144 -0.512,-0.119 -0.521,-0.095 -0.53,-0.068 -0.536,-0.041 -0.544,-0.014 -0.544,0.014 -0.536,0.041 -0.53,0.068 -0.521,0.095 -0.513,0.119 -0.503,0.144 -0.492,0.168 -0.482,0.192 -0.471,0.214 -0.458,0.236 -0.445,0.257 -0.431,0.278 -0.417,0.298 -0.403,0.316 -0.386,0.335 -0.37,0.353 -0.3529,0.37 -0.3352,0.387 -0.3167,0.402 -0.2975,0.417 -0.2777,0.432 -0.2572,0.445 -0.236,0.458 -0.214,0.47 -0.1914,0.482 -0.1682,0.493 -0.1441,0.503 -0.1195,0.512 -0.0942,0.521 -0.0681,0.53 -0.0414,0.536 L 96.945,216"
       style="fill:#ffffff;stroke:#000000;stroke-width:0.35px"
       id="path690" /></g><path
     d="m 34.2618,79.8118 0.0049,-0.1919 0.0146,-0.1891 0.0241,-0.187 0.0332,-0.1838 0.0421,-0.1806 0.0509,-0.1774 0.0593,-0.174 0.0675,-0.17 0.0755,-0.1658 0.0833,-0.1616 0.0907,-0.157 0.098,-0.1524 0.1049,-0.1471 0.1118,-0.1418 0.1182,-0.1365 0.1245,-0.1305 0.1305,-0.1246 0.1362,-0.1181 0.1422,-0.1115 0.1471,-0.1052 0.152,-0.098 0.157,-0.0907 0.1616,-0.0832 0.1662,-0.0755 0.17,-0.0678 0.1736,-0.0592 0.1774,-0.0508 0.181,-0.042 0.1838,-0.0335 0.187,-0.024 0.1891,-0.0145 0.1919,-0.0049 0.1919,0.0049 0.1891,0.0145 0.1869,0.024 0.1838,0.0335 0.1807,0.042 0.1774,0.0508 0.1739,0.0592 0.1701,0.0678 0.1658,0.0755 0.1615,0.0832 0.157,0.0907 0.1524,0.098 0.1471,0.1052 0.1419,0.1115 0.1365,0.1181 0.1305,0.1246 0.1245,0.1305 0.1182,0.1365 0.1115,0.1418 0.1051,0.1471 0.0981,0.1524 0.0907,0.157 0.0832,0.1616 0.0755,0.1658 0.0677,0.17 0.0593,0.174 0.0508,0.1774 0.042,0.1806 0.0335,0.1838 0.024,0.187 0.0144,0.1891 0.0049,0.1919 -0.0049,0.1919 -0.0144,0.1891 -0.024,0.187 -0.0335,0.1838 -0.042,0.1806 -0.0508,0.1774 -0.0593,0.174 -0.0677,0.17 -0.0755,0.1658 -0.0832,0.1616 -0.0907,0.157 -0.0981,0.1524 -0.1051,0.1471 -0.1115,0.1418 -0.1182,0.1365 -0.1245,0.1305 -0.1305,0.1246 -0.1365,0.1182 -0.1419,0.1114 -0.1471,0.1052 -0.1524,0.098 -0.157,0.0907 -0.1615,0.0833 -0.1658,0.0754 -0.1701,0.0678 -0.1739,0.0592 -0.1774,0.0508 -0.1807,0.042 -0.1838,0.0335 -0.1869,0.024 -0.1891,0.0145 -0.1919,0.0049 -0.1919,-0.0049 -0.1891,-0.0145 -0.187,-0.024 -0.1838,-0.0335 -0.181,-0.042 -0.1774,-0.0508 -0.1736,-0.0592 -0.17,-0.0678 -0.1662,-0.0754 -0.1616,-0.0833 -0.157,-0.0907 -0.152,-0.098 -0.1471,-0.1052 -0.1422,-0.1114 -0.1362,-0.1182 -0.1305,-0.1246 -0.1245,-0.1305 -0.1182,-0.1365 -0.1118,-0.1418 -0.1049,-0.1471 -0.098,-0.1524 -0.0907,-0.157 -0.0833,-0.1616 -0.0755,-0.1658 -0.0675,-0.17 -0.0593,-0.174 -0.0509,-0.1774 -0.0421,-0.1806 -0.0332,-0.1838 -0.0241,-0.187 -0.0146,-0.1891 -0.0049,-0.1919"
     style="clip-rule:evenodd;fill:#ffffff;fill-rule:evenodd;stroke:#000000;stroke-width:0.123472px;stroke-linecap:round;stroke-linejoin:round"
     id="path694" /><g
     transform="matrix(0.3527784,0,0,-0.35277806,0.06173622,175.06188)"
     id="g700"
     style="clip-rule:evenodd;fill-rule:evenodd;stroke-linecap:round;stroke-linejoin:round"><path
       d="m 96.945,324 0.0139,0.544 0.0414,0.536 0.0681,0.53 0.0942,0.521 0.1195,0.512 0.1441,0.503 0.1682,0.493 0.1914,0.482 0.214,0.47 0.236,0.458 0.2572,0.445 0.2777,0.432 0.2975,0.417 0.3167,0.402 0.3352,0.387 0.3529,0.37 0.37,0.353 0.386,0.335 0.403,0.316 0.417,0.298 0.431,0.278 0.445,0.257 0.458,0.236 0.471,0.214 0.482,0.192 0.492,0.168 0.503,0.144 0.513,0.119 0.521,0.095 0.53,0.068 0.536,0.041 0.544,0.014 0.544,-0.014 0.536,-0.041 0.53,-0.068 0.521,-0.095 0.512,-0.119 0.503,-0.144 0.493,-0.168 0.482,-0.192 0.47,-0.214 0.458,-0.236 0.445,-0.257 0.432,-0.278 0.417,-0.298 0.402,-0.316 0.387,-0.335 0.37,-0.353 0.353,-0.37 0.335,-0.387 0.316,-0.402 0.298,-0.417 0.278,-0.432 0.257,-0.445 0.236,-0.458 0.214,-0.47 0.192,-0.482 0.168,-0.493 0.144,-0.503 0.119,-0.512 0.095,-0.521 0.068,-0.53 0.041,-0.536 0.014,-0.544 -0.014,-0.544 -0.041,-0.536 -0.068,-0.53 -0.095,-0.521 -0.119,-0.512 -0.144,-0.503 -0.168,-0.493 -0.192,-0.482 -0.214,-0.47 -0.236,-0.458 -0.257,-0.445 -0.278,-0.432 -0.298,-0.417 -0.316,-0.402 -0.335,-0.387 -0.353,-0.37 -0.37,-0.353 -0.387,-0.335 -0.402,-0.316 -0.417,-0.298 -0.432,-0.278 -0.445,-0.257 -0.458,-0.236 -0.47,-0.214 -0.482,-0.192 -0.493,-0.168 -0.503,-0.144 -0.512,-0.119 -0.521,-0.095 -0.53,-0.068 -0.536,-0.041 -0.544,-0.014 -0.544,0.014 -0.536,0.041 -0.53,0.068 -0.521,0.095 -0.513,0.119 -0.503,0.144 -0.492,0.168 -0.482,0.192 -0.471,0.214 -0.458,0.236 -0.445,0.257 -0.431,0.278 -0.417,0.298 -0.403,0.316 -0.386,0.335 -0.37,0.353 -0.3529,0.37 -0.3352,0.387 -0.3167,0.402 -0.2975,0.417 -0.2777,0.432 -0.2572,0.445 -0.236,0.458 -0.214,0.47 -0.1914,0.482 -0.1682,0.493 -0.1441,0.503 -0.1195,0.512 -0.0942,0.521 -0.0681,0.53 -0.0414,0.536 L 96.945,324"
       style="fill:#ffffff;stroke:#000000;stroke-width:0.35px"
       id="path698" /></g><g
     transform="matrix(0.3527784,0,0,-0.35277806,0.06173622,175.06188)"
     id="g704"
     style="clip-rule:evenodd;fill-rule:evenodd;stroke-linecap:round;stroke-linejoin:round"><path
       d="m 114.996,387.184 -0.41,0.317 -0.42,0.296 -0.43,0.275 -0.439,0.256 -0.448,0.234 -0.455,0.215 -0.462,0.194 -0.469,0.173 -0.473,0.153 -0.479,0.133 -0.483,0.113 -0.487,0.091 -0.489,0.072 -0.491,0.051 -0.493,0.031 -0.493,0.01 -0.494,-0.01 -0.492,-0.031 -0.492,-0.051 -0.489,-0.072 -0.486,-0.091 -0.483,-0.113 -0.479,-0.133 -0.474,-0.153 -0.468,-0.173 -0.462,-0.194 -0.455,-0.215 -0.448,-0.234 -0.439,-0.256 -0.43,-0.275 -0.42,-0.296 -0.41,-0.317 -0.3547,-0.321 -0.3136,-0.356 -0.2706,-0.386 -0.2256,-0.412 -0.1787,-0.435 -0.13,-0.453 -0.0792,-0.467 -0.0266,-0.478 v -11.752 l 0.0266,-0.478 0.0792,-0.467 0.13,-0.453 0.1787,-0.435 0.2256,-0.412 0.2706,-0.386 0.3136,-0.356 0.3547,-0.321 0.41,-0.317 0.42,-0.296 0.43,-0.275 0.439,-0.256 0.448,-0.234 0.455,-0.215 0.462,-0.194 0.468,-0.173 0.474,-0.153 0.479,-0.133 0.483,-0.113 0.486,-0.091 0.489,-0.072 0.492,-0.051 0.492,-0.031 0.494,-0.01 0.493,0.01 0.493,0.031 0.491,0.051 0.489,0.072 0.487,0.091 0.483,0.113 0.479,0.133 0.473,0.153 0.469,0.173 0.462,0.194 0.455,0.215 0.448,0.234 0.439,0.256 0.43,0.275 0.42,0.296 0.41,0.317 0.354,0.321 0.314,0.356 0.27,0.386 0.226,0.412 0.179,0.435 0.13,0.453 0.079,0.467 0.027,0.478 v 11.752 l -0.027,0.478 -0.079,0.467 -0.13,0.453 -0.179,0.435 -0.226,0.412 -0.27,0.386 -0.314,0.356 -0.354,0.321"
       style="fill:#ffffff;stroke:#000000;stroke-width:0.35px"
       id="path702" /></g><g
     transform="matrix(0.3527784,0,0,-0.35277806,0.06173622,175.06188)"
     id="g708"
     style="clip-rule:evenodd;fill-rule:evenodd;stroke-linecap:round;stroke-linejoin:round"><path
       id="path706"
       style="fill:#ffffff;stroke:#000000;stroke-width:0.35px"
       d="m 114.996,441.184 -0.41,0.317 -0.42,0.296 -0.43,0.275 -0.439,0.256 -0.448,0.234 -0.455,0.215 -0.462,0.194 -0.469,0.173 -0.473,0.153 -0.479,0.133 -0.483,0.113 -0.487,0.091 -0.489,0.072 -0.491,0.051 -0.493,0.031 -0.493,0.01 -0.494,-0.01 -0.492,-0.031 -0.492,-0.051 -0.489,-0.072 -0.486,-0.091 -0.483,-0.113 -0.479,-0.133 -0.474,-0.153 -0.468,-0.173 -0.462,-0.194 -0.455,-0.215 -0.448,-0.234 -0.439,-0.256 -0.43,-0.275 -0.42,-0.296 -0.41,-0.317 -0.3547,-0.321 -0.3136,-0.356 -0.2706,-0.386 -0.2256,-0.412 -0.1787,-0.435 -0.13,-0.453 -0.0792,-0.467 -0.0266,-0.478 v -11.752 l 0.0266,-0.478 0.0792,-0.467 0.13,-0.453 0.1787,-0.435 0.2256,-0.412 0.2706,-0.386 0.3136,-0.356 0.3547,-0.321 0.41,-0.317 0.42,-0.296 0.43,-0.275 0.439,-0.256 0.448,-0.234 0.455,-0.215 0.462,-0.194 0.468,-0.173 0.474,-0.153 0.479,-0.133 0.483,-0.113 0.486,-0.091 0.489,-0.072 0.492,-0.051 0.492,-0.031 0.494,-0.01 0.493,0.01 0.493,0.031 0.491,0.051 0.489,0.072 0.487,0.091 0.483,0.113 0.479,0.133 0.473,0.153 0.469,0.173 0.462,0.194 0.455,0.215 0.448,0.234 0.439,0.256 0.43,0.275 0.42,0.296 0.41,0.317 0.354,0.321 0.314,0.356 0.27,0.386 0.226,0.412 0.179,0.435 0.13,0.453 0.079,0.467 0.027,0.478 v 11.752 l -0.027,0.478 -0.079,0.467 -0.13,0.453 -0.179,0.435 -0.226,0.412 -0.27,0.386 -0.314,0.356 -0.354,0.321" /></g><g
     transform="matrix(0.3527784,0,0,-0.35277806,0.06173622,175.06188)"
     id="g712"
     style="clip-rule:evenodd;fill-rule:evenodd;stroke-linecap:round;stroke-linejoin:round"><path
       id="path710"
       style="fill:#ffffff;stroke:#000000;stroke-width:0.35px"
       d="m 42.996,441.184 -0.4099,0.317 -0.4203,0.296 -0.4301,0.275 -0.4391,0.256 -0.4475,0.234 -0.4552,0.215 -0.4621,0.194 -0.4683,0.173 -0.4739,0.153 -0.4789,0.133 -0.4829,0.113 -0.4865,0.091 -0.4892,0.072 -0.4914,0.051 -0.4927,0.031 -0.4934,0.01 -0.4934,-0.01 -0.4927,-0.031 -0.4913,-0.051 -0.4892,-0.072 -0.4864,-0.091 -0.483,-0.113 -0.4788,-0.133 -0.4738,-0.153 -0.4684,-0.173 -0.462,-0.194 -0.4551,-0.215 -0.4474,-0.234 -0.4391,-0.256 -0.43,-0.275 -0.4202,-0.296 -0.4098,-0.317 -0.3547,-0.321 -0.3136,-0.356 -0.2706,-0.386 -0.2256,-0.412 -0.1787,-0.435 -0.13,-0.453 -0.0792,-0.467 -0.0266,-0.478 v -11.752 l 0.0266,-0.478 0.0792,-0.467 0.13,-0.453 0.1787,-0.435 0.2256,-0.412 0.2706,-0.386 0.3136,-0.356 0.3547,-0.321 0.4098,-0.317 0.4202,-0.296 0.43,-0.275 0.4391,-0.256 0.4474,-0.234 0.4551,-0.215 0.462,-0.194 0.4684,-0.173 0.4738,-0.153 0.4788,-0.133 0.483,-0.113 0.4864,-0.091 0.4892,-0.072 0.4913,-0.051 0.4927,-0.031 0.4934,-0.01 0.4934,0.01 0.4927,0.031 0.4914,0.051 0.4892,0.072 0.4865,0.091 0.4829,0.113 0.4789,0.133 0.4739,0.153 0.4683,0.173 0.4621,0.194 0.4552,0.215 0.4475,0.234 0.4391,0.256 0.4301,0.275 0.4203,0.296 0.4099,0.317 0.3544,0.321 0.3134,0.356 0.2704,0.386 0.2256,0.412 0.1787,0.435 0.1301,0.453 0.0795,0.467 0.0269,0.478 v 11.752 l -0.0269,0.478 -0.0795,0.467 -0.1301,0.453 -0.1787,0.435 -0.2256,0.412 -0.2704,0.386 -0.3134,0.356 -0.3544,0.321" /></g><g
     transform="matrix(0.3527784,0,0,-0.35277806,0.06173622,175.06188)"
     id="g716"
     style="clip-rule:evenodd;fill-rule:evenodd;stroke-linecap:round;stroke-linejoin:round"><path
       d="m 24.945,378 0.0139,0.544 0.0414,0.536 0.0681,0.53 0.0942,0.521 0.1195,0.512 0.1441,0.503 0.1682,0.493 0.1914,0.482 0.214,0.47 0.236,0.458 0.2572,0.445 0.2777,0.432 0.2975,0.417 0.3167,0.402 0.3352,0.387 0.3529,0.37 0.37,0.353 0.3864,0.335 0.4022,0.316 0.4171,0.298 0.4315,0.278 0.4451,0.257 0.4581,0.236 0.4703,0.214 0.4819,0.192 0.4928,0.168 0.5029,0.144 0.5125,0.119 0.5213,0.095 0.5294,0.068 0.5369,0.041 0.5436,0.014 0.5435,-0.014 0.5368,-0.041 0.5294,-0.068 0.5212,-0.095 0.5124,-0.119 0.503,-0.144 0.4927,-0.168 0.4819,-0.192 0.4703,-0.214 0.4581,-0.236 0.4451,-0.257 0.4314,-0.278 0.4172,-0.298 0.4021,-0.316 0.3865,-0.335 0.37,-0.353 0.353,-0.37 0.3352,-0.387 0.3167,-0.402 0.2976,-0.417 0.2777,-0.432 0.2572,-0.445 0.236,-0.458 0.214,-0.47 0.1915,-0.482 0.1682,-0.493 0.1442,-0.503 0.1195,-0.512 0.0942,-0.521 0.0681,-0.53 0.0414,-0.536 0.0139,-0.544 -0.0139,-0.544 -0.0414,-0.536 -0.0681,-0.53 -0.0942,-0.521 -0.1195,-0.512 -0.1442,-0.503 -0.1682,-0.493 -0.1915,-0.482 -0.214,-0.47 -0.236,-0.458 -0.2572,-0.445 -0.2777,-0.432 -0.2976,-0.417 -0.3167,-0.402 -0.3352,-0.387 -0.353,-0.37 -0.37,-0.353 -0.3865,-0.335 -0.4021,-0.316 -0.4172,-0.298 -0.4314,-0.278 -0.4451,-0.257 -0.4581,-0.236 -0.4703,-0.214 -0.4819,-0.192 -0.4927,-0.168 -0.503,-0.144 -0.5124,-0.119 -0.5212,-0.095 -0.5294,-0.068 -0.5368,-0.041 -0.5435,-0.014 -0.5436,0.014 -0.5369,0.041 -0.5294,0.068 -0.5213,0.095 -0.5125,0.119 -0.5029,0.144 -0.4928,0.168 -0.4819,0.192 -0.4703,0.214 -0.4581,0.236 -0.4451,0.257 -0.4315,0.278 -0.4171,0.298 -0.4022,0.316 -0.3864,0.335 -0.37,0.353 -0.3529,0.37 -0.3352,0.387 -0.3167,0.402 -0.2975,0.417 -0.2777,0.432 -0.2572,0.445 -0.236,0.458 -0.214,0.47 -0.1914,0.482 -0.1682,0.493 -0.1441,0.503 -0.1195,0.512 -0.0942,0.521 -0.0681,0.53 -0.0414,0.536 L 24.945,378"
       style="fill:#ffffff;stroke:#000000;stroke-width:0.35px"
       id="path714" /></g><g
     transform="matrix(0.3527784,0,0,-0.35277806,0.06173622,175.06188)"
     id="g720"
     style="clip-rule:evenodd;fill-rule:evenodd;stroke-linecap:round;stroke-linejoin:round"><path
       d="m 26.575,324 0.0118,0.46 0.035,0.455 0.0577,0.448 0.0797,0.441 0.1012,0.434 0.1221,0.426 0.1424,0.417 0.1621,0.408 0.1812,0.398 0.1998,0.388 0.2178,0.377 0.2351,0.365 0.2519,0.353 0.2682,0.341 0.2838,0.327 0.2988,0.313 0.3133,0.299 0.3272,0.284 0.3405,0.268 0.3532,0.252 0.3653,0.235 0.3768,0.218 0.3879,0.2 0.3982,0.181 0.4079,0.162 0.4172,0.143 0.4259,0.122 0.4338,0.101 0.4413,0.079 0.4482,0.058 0.4545,0.035 0.4602,0.012 0.4602,-0.012 0.4545,-0.035 0.4482,-0.058 0.4413,-0.079 0.4338,-0.101 0.4259,-0.122 0.4172,-0.143 0.4079,-0.162 0.3982,-0.181 0.3879,-0.2 0.3768,-0.218 0.3653,-0.235 0.3532,-0.252 0.3405,-0.268 0.3272,-0.284 0.3133,-0.299 0.2988,-0.313 0.2838,-0.327 0.2682,-0.341 0.2519,-0.353 0.2351,-0.365 0.2178,-0.377 0.1998,-0.388 0.1812,-0.398 0.1621,-0.408 0.1424,-0.417 0.1221,-0.426 0.1012,-0.434 0.0797,-0.441 0.0577,-0.448 0.035,-0.455 0.0118,-0.46 -0.0118,-0.46 -0.035,-0.455 -0.0577,-0.448 -0.0797,-0.441 -0.1012,-0.434 -0.1221,-0.426 -0.1424,-0.417 -0.1621,-0.408 -0.1812,-0.398 -0.1998,-0.388 -0.2178,-0.377 -0.2351,-0.365 -0.2519,-0.353 -0.2682,-0.341 -0.2838,-0.327 -0.2988,-0.313 -0.3133,-0.299 -0.3272,-0.284 -0.3405,-0.268 -0.3532,-0.252 -0.3653,-0.235 -0.3768,-0.218 -0.3879,-0.2 -0.3982,-0.181 -0.4079,-0.162 -0.4172,-0.143 -0.4259,-0.122 -0.4338,-0.101 -0.4413,-0.079 -0.4482,-0.058 -0.4545,-0.035 -0.4602,-0.012 -0.4602,0.012 -0.4545,0.035 -0.4482,0.058 -0.4413,0.079 -0.4338,0.101 -0.4259,0.122 -0.4172,0.143 -0.4079,0.162 -0.3982,0.181 -0.3879,0.2 -0.3768,0.218 -0.3653,0.235 -0.3532,0.252 -0.3405,0.268 -0.3272,0.284 -0.3133,0.299 -0.2988,0.313 -0.2838,0.327 -0.2682,0.341 -0.2519,0.353 -0.2351,0.365 -0.2178,0.377 -0.1998,0.388 -0.1812,0.398 -0.1621,0.408 -0.1424,0.417 -0.1221,0.426 -0.1012,0.434 -0.0797,0.441 -0.0577,0.448 -0.035,0.455 -0.0118,0.46"
       style="fill:#ffffff;stroke:#000000;stroke-width:0.35px"
       id="path718" /></g><g
     transform="matrix(0.3527784,0,0,-0.35277806,0.06173622,156.0178)"
     id="g724"
     style="clip-rule:evenodd;fill-rule:evenodd;stroke-linecap:round;stroke-linejoin:round"><path
       d="m 62.575,81 0.0118,0.4602 0.035,0.4545 0.0577,0.4482 0.0797,0.4413 0.1012,0.4338 0.1221,0.4259 0.1424,0.4172 0.1621,0.4079 0.1812,0.3982 0.1998,0.3879 0.2178,0.3768 0.2351,0.3653 0.2519,0.3532 0.2682,0.3405 0.2838,0.3272 0.2988,0.3133 0.3133,0.2988 0.3272,0.2838 0.3405,0.2682 0.3532,0.2519 0.3653,0.2351 0.3768,0.2178 0.3879,0.1998 0.3982,0.1812 0.4079,0.1621 0.4172,0.1424 0.4259,0.1221 0.4338,0.1012 0.4413,0.0797 0.4482,0.0577 0.4545,0.035 0.4602,0.0118 0.4602,-0.0118 0.4545,-0.035 0.4482,-0.0577 0.4413,-0.0797 0.4338,-0.1012 0.4259,-0.1221 0.4172,-0.1424 0.4079,-0.1621 0.3982,-0.1812 0.3879,-0.1998 0.3768,-0.2178 0.3653,-0.2351 0.3532,-0.2519 0.3405,-0.2682 0.3272,-0.2838 0.3133,-0.2988 0.2988,-0.3133 0.2838,-0.3272 0.2682,-0.3405 0.2519,-0.3532 0.2351,-0.3653 0.2178,-0.3768 0.1998,-0.3879 0.1812,-0.3982 0.1621,-0.4079 0.1424,-0.4172 0.1221,-0.4259 0.1012,-0.4338 0.0797,-0.4413 0.0577,-0.4482 0.035,-0.4545 L 80.575,81 80.5632,80.5398 80.5282,80.0853 80.4705,79.6371 80.3908,79.1958 80.2896,78.762 80.1675,78.3361 80.0251,77.9189 79.863,77.511 79.6818,77.1128 79.482,76.7249 79.2642,76.3481 79.0291,75.9828 78.7772,75.6296 78.509,75.2891 78.2252,74.9619 77.9264,74.6486 77.6131,74.3498 77.2859,74.066 76.9454,73.7978 76.5922,73.5459 76.2269,73.3108 75.8501,73.093 75.4622,72.8932 75.064,72.712 74.6561,72.5499 74.2389,72.4075 73.813,72.2854 73.3792,72.1842 72.9379,72.1045 72.4897,72.0468 72.0352,72.0118 71.575,72 l -0.4602,0.0118 -0.4545,0.035 -0.4482,0.0577 -0.4413,0.0797 -0.4338,0.1012 -0.4259,0.1221 -0.4172,0.1424 -0.4079,0.1621 -0.3982,0.1812 -0.3879,0.1998 -0.3768,0.2178 -0.3653,0.2351 -0.3532,0.2519 -0.3405,0.2682 -0.3272,0.2838 -0.3133,0.2988 -0.2988,0.3133 -0.2838,0.3272 -0.2682,0.3405 -0.2519,0.3532 -0.2351,0.3653 -0.2178,0.3768 -0.1998,0.3879 -0.1812,0.3982 -0.1621,0.4079 -0.1424,0.4172 -0.1221,0.4259 -0.1012,0.4338 -0.0797,0.4413 -0.0577,0.4482 -0.035,0.4545 L 62.575,81"
       style="fill:#ffffff;stroke:#000000;stroke-width:0.35px"
       id="path722" /></g></g></svg>
