<?xml version="1.0" standalone="no"?>
<!DOCTYPE svg PUBLIC "-//W3C//DTD SVG 1.1//EN" 
  "http://www.w3.org/Graphics/SVG/1.1/DTD/svg11.dtd">
<svg width="50.500mm" height="175.000mm" version="1.1"
     viewBox="0 0 50.500 175.000"
     xmlns="http://www.w3.org/2000/svg"  xmlns:xlink="http://www.w3.org/1999/xlink" 
     xmlns:fpd="http://www.schaeffer-ag.de">
  <desc>Created with the Front Panel Designer by the export of the file 'dual-pt2399-delay.fpd'.</desc>
  <defs>
    <pattern id="revside-fill" x="1" y="1" width="1.750" height="1.750" patternUnits="userSpaceOnUse">
      <line x1="0" y1="0" x2="1.750" y2="1.750" style="stroke-width:0.175; stroke:black; stroke-dasharray:none;" />
      <line x1="0" y1="1.750" x2="1.750" y2="0" style="stroke-width:0.175; stroke:black; stroke-dasharray:none;" />
    </pattern>
    <pattern id="revside-fill-silver" x="1" y="1" width="1.750" height="1.750" patternUnits="userSpaceOnUse">
      <line x1="0" y1="0" x2="1.750" y2="1.750" style="stroke-width:0.175; stroke:#e0e0e0; stroke-dasharray:none;" />
      <line x1="0" y1="1.750" x2="1.750" y2="0" style="stroke-width:0.175; stroke:#e0e0e0; stroke-dasharray:none;" />
    </pattern>
  </defs>
<g transform="scale(1,-1) translate( -0.000, -175.000)" 
   fill-rule="evenodd"
   style="stroke-linecap:round; stroke-linejoin:round; stroke-opacity:1.0; stroke-opacity:1.0;">
<path d="
M50.000 175.000
A0.500,0.500 0 0,0 50.500,174.500
L50.500 0.500
A0.500,0.500 0 0,0 50.000,0.000
L0.500 0.000
A0.500,0.500 0 0,0 0.000,0.500
L0.000 174.500
A0.500,0.500 0 0,0 0.500,175.000
L50.000 175.000
" 
fill="#c0c0c0" fill-opacity="1.000000" vector-effect="non-scaling-stroke" stroke="#000000" stroke-width="0.100mm" stroke-opacity="1.000000" fpd:visible="front back" />
<path d="
M9.375 171.912
A1.500,1.500 0 0,1 10.875,170.412
L14.225 170.412
A1.500,1.500 0 0,1 15.725,171.912
L15.725 172.088
A1.500,1.500 0 0,1 14.225,173.588
L10.875 173.588
A1.500,1.500 0 0,1 9.375,172.088
L9.375 171.912
" 
fill="#ffffff" fill-opacity="1.000000" vector-effect="non-scaling-stroke" stroke="#000000" stroke-width="0.100mm" stroke-opacity="1.000000" fpd:visible="front back" fpd:print_element="0" />
<path d="
M34.775 171.912
A1.500,1.500 0 0,1 36.275,170.412
L39.625 170.412
A1.500,1.500 0 0,1 41.125,171.912
L41.125 172.088
A1.500,1.500 0 0,1 39.625,173.588
L36.275 173.588
A1.500,1.500 0 0,1 34.775,172.088
L34.775 171.912
" 
fill="#ffffff" fill-opacity="1.000000" vector-effect="non-scaling-stroke" stroke="#000000" stroke-width="0.100mm" stroke-opacity="1.000000" fpd:visible="front back" fpd:print_element="0" />
<path d="
M34.775 2.913
A1.500,1.500 0 0,1 36.275,1.413
L39.625 1.413
A1.500,1.500 0 0,1 41.125,2.913
L41.125 3.087
A1.500,1.500 0 0,1 39.625,4.588
L36.275 4.588
A1.500,1.500 0 0,1 34.775,3.087
L34.775 2.913
" 
fill="#ffffff" fill-opacity="1.000000" vector-effect="non-scaling-stroke" stroke="#000000" stroke-width="0.100mm" stroke-opacity="1.000000" fpd:visible="front back" fpd:print_element="0" />
<path d="
M9.375 2.913
A1.500,1.500 0 0,1 10.875,1.413
L14.225 1.413
A1.500,1.500 0 0,1 15.725,2.913
L15.725 3.087
A1.500,1.500 0 0,1 14.225,4.588
L10.875 4.588
A1.500,1.500 0 0,1 9.375,3.087
L9.375 2.913
" 
fill="#ffffff" fill-opacity="1.000000" vector-effect="non-scaling-stroke" stroke="#000000" stroke-width="0.100mm" stroke-opacity="1.000000" fpd:visible="front back" fpd:print_element="0" />
<path d="
M15.168 98.490
A4.166,4.166 0 0,1 9.932,98.490
A1.500,1.500 0 0,1 9.375,97.323
L9.375 93.177
A1.500,1.500 0 0,1 9.932,92.010
A4.166,4.166 0 0,1 15.168,92.010
A1.500,1.500 0 0,1 15.725,93.177
L15.725 97.323
A1.500,1.500 0 0,1 15.168,98.490
" 
fill="#ffffff" fill-opacity="1.000000" vector-effect="non-scaling-stroke" stroke="#000000" stroke-width="0.100mm" stroke-opacity="1.000000" fpd:visible="front back" fpd:print_element="0" />
<path d="
M34.200 19.050
A3.750,3.750 0 1,0 41.700,19.050
A3.750,3.750 0 1,0 34.200,19.050
" 
fill="#ffffff" fill-opacity="1.000000" vector-effect="non-scaling-stroke" stroke="#000000" stroke-width="0.100mm" stroke-opacity="1.000000" fpd:visible="front back" fpd:print_element="0" />
<path d="
M8.800 19.050
A3.750,3.750 0 1,0 16.300,19.050
A3.750,3.750 0 1,0 8.800,19.050
" 
fill="#ffffff" fill-opacity="1.000000" vector-effect="non-scaling-stroke" stroke="#000000" stroke-width="0.100mm" stroke-opacity="1.000000" fpd:visible="front back" fpd:print_element="0" />
<path d="
M8.800 38.100
A3.750,3.750 0 1,0 16.300,38.100
A3.750,3.750 0 1,0 8.800,38.100
" 
fill="#ffffff" fill-opacity="1.000000" vector-effect="non-scaling-stroke" stroke="#000000" stroke-width="0.100mm" stroke-opacity="1.000000" fpd:visible="front back" fpd:print_element="0" />
<path d="
M34.200 38.100
A3.750,3.750 0 1,0 41.700,38.100
A3.750,3.750 0 1,0 34.200,38.100
" 
fill="#ffffff" fill-opacity="1.000000" vector-effect="non-scaling-stroke" stroke="#000000" stroke-width="0.100mm" stroke-opacity="1.000000" fpd:visible="front back" fpd:print_element="0" />
<path d="
M15.168 60.390
A4.166,4.166 0 0,1 9.932,60.390
A1.500,1.500 0 0,1 9.375,59.223
L9.375 55.077
A1.500,1.500 0 0,1 9.932,53.910
A4.166,4.166 0 0,1 15.168,53.910
A1.500,1.500 0 0,1 15.725,55.077
L15.725 59.223
A1.500,1.500 0 0,1 15.168,60.390
" 
fill="#ffffff" fill-opacity="1.000000" vector-effect="non-scaling-stroke" stroke="#000000" stroke-width="0.100mm" stroke-opacity="1.000000" fpd:visible="front back" fpd:print_element="0" />
<path d="
M40.568 60.390
A4.166,4.166 0 0,1 35.332,60.390
A1.500,1.500 0 0,1 34.775,59.223
L34.775 55.077
A1.500,1.500 0 0,1 35.332,53.910
A4.166,4.166 0 0,1 40.568,53.910
A1.500,1.500 0 0,1 41.125,55.077
L41.125 59.223
A1.500,1.500 0 0,1 40.568,60.390
" 
fill="#ffffff" fill-opacity="1.000000" vector-effect="non-scaling-stroke" stroke="#000000" stroke-width="0.100mm" stroke-opacity="1.000000" fpd:visible="front back" fpd:print_element="0" />
<path d="
M8.800 76.200
A3.750,3.750 0 1,0 16.300,76.200
A3.750,3.750 0 1,0 8.800,76.200
" 
fill="#ffffff" fill-opacity="1.000000" vector-effect="non-scaling-stroke" stroke="#000000" stroke-width="0.100mm" stroke-opacity="1.000000" fpd:visible="front back" fpd:print_element="0" />
<path d="
M34.200 76.200
A3.750,3.750 0 1,0 41.700,76.200
A3.750,3.750 0 1,0 34.200,76.200
" 
fill="#ffffff" fill-opacity="1.000000" vector-effect="non-scaling-stroke" stroke="#000000" stroke-width="0.100mm" stroke-opacity="1.000000" fpd:visible="front back" fpd:print_element="0" />
<path d="
M34.200 95.250
A3.750,3.750 0 1,0 41.700,95.250
A3.750,3.750 0 1,0 34.200,95.250
" 
fill="#ffffff" fill-opacity="1.000000" vector-effect="non-scaling-stroke" stroke="#000000" stroke-width="0.100mm" stroke-opacity="1.000000" fpd:visible="front back" fpd:print_element="0" />
<path d="
M34.200 114.300
A3.750,3.750 0 1,0 41.700,114.300
A3.750,3.750 0 1,0 34.200,114.300
" 
fill="#ffffff" fill-opacity="1.000000" vector-effect="non-scaling-stroke" stroke="#000000" stroke-width="0.100mm" stroke-opacity="1.000000" fpd:visible="front back" fpd:print_element="0" />
<path d="
M40.568 136.590
A4.166,4.166 0 0,1 35.332,136.590
A1.500,1.500 0 0,1 34.775,135.423
L34.775 131.277
A1.500,1.500 0 0,1 35.332,130.110
A4.166,4.166 0 0,1 40.568,130.110
A1.500,1.500 0 0,1 41.125,131.277
L41.125 135.423
A1.500,1.500 0 0,1 40.568,136.590
" 
fill="#ffffff" fill-opacity="1.000000" vector-effect="non-scaling-stroke" stroke="#000000" stroke-width="0.100mm" stroke-opacity="1.000000" fpd:visible="front back" fpd:print_element="0" />
<path d="
M40.568 155.640
A4.166,4.166 0 0,1 35.332,155.640
A1.500,1.500 0 0,1 34.775,154.473
L34.775 150.327
A1.500,1.500 0 0,1 35.332,149.160
A4.166,4.166 0 0,1 40.568,149.160
A1.500,1.500 0 0,1 41.125,150.327
L41.125 154.473
A1.500,1.500 0 0,1 40.568,155.640
" 
fill="#ffffff" fill-opacity="1.000000" vector-effect="non-scaling-stroke" stroke="#000000" stroke-width="0.100mm" stroke-opacity="1.000000" fpd:visible="front back" fpd:print_element="0" />
<path d="
M15.168 155.640
A4.166,4.166 0 0,1 9.932,155.640
A1.500,1.500 0 0,1 9.375,154.473
L9.375 150.327
A1.500,1.500 0 0,1 9.932,149.160
A4.166,4.166 0 0,1 15.168,149.160
A1.500,1.500 0 0,1 15.725,150.327
L15.725 154.473
A1.500,1.500 0 0,1 15.168,155.640
" 
fill="#ffffff" fill-opacity="1.000000" vector-effect="non-scaling-stroke" stroke="#000000" stroke-width="0.100mm" stroke-opacity="1.000000" fpd:visible="front back" fpd:print_element="0" />
<path d="
M8.800 133.350
A3.750,3.750 0 1,0 16.300,133.350
A3.750,3.750 0 1,0 8.800,133.350
" 
fill="#ffffff" fill-opacity="1.000000" vector-effect="non-scaling-stroke" stroke="#000000" stroke-width="0.100mm" stroke-opacity="1.000000" fpd:visible="front back" fpd:print_element="0" />
<path d="
M9.375 114.300
A3.175,3.175 0 1,0 15.725,114.300
A3.175,3.175 0 1,0 9.375,114.300
" 
fill="#ffffff" fill-opacity="1.000000" vector-effect="non-scaling-stroke" stroke="#000000" stroke-width="0.100mm" stroke-opacity="1.000000" fpd:visible="front back" fpd:print_element="0" />
<path d="
M22.075 28.575
A3.175,3.175 0 1,0 28.425,28.575
A3.175,3.175 0 1,0 22.075,28.575
" 
fill="#ffffff" fill-opacity="1.000000" vector-effect="non-scaling-stroke" stroke="#000000" stroke-width="0.100mm" stroke-opacity="1.000000" fpd:visible="front back" fpd:print_element="0" />
<path d="
M50.000 175.000
A0.500,0.500 0 0,0 50.500,174.500
L50.500 0.500
A0.500,0.500 0 0,0 50.000,0.000
L0.500 0.000
A0.500,0.500 0 0,0 0.000,0.500
L0.000 174.500
A0.500,0.500 0 0,0 0.500,175.000
L50.000 175.000
" 
fill="none" vector-effect="non-scaling-stroke" stroke="#000000" stroke-width="0.100mm" stroke-opacity="1.000000" fpd:visible="front back" />
</g>
</svg>
