  0
SECTION
  2
HEADER
  9
$MEASUREMENT
  70
  0
  9
$INSUNITS
  70
  1
  0
ENDSEC
  0
SECTION
  2
TABLES
  0
TABLE
  2
LTYPE
 70
     1
  0
LTYPE
  2
CONTINUOUS
 70
    64
  3
Ausgezogene Linie
 72
    65
 73
     0
 40
0.0
  0
ENDTAB
  0
TABLE
  2
LAYER
 70
     3
  0
LAYER
  2
Contour
 70
    64
 62
     7
  6
CONTINUOUS
  0
LAYER
  2
Engraving
 70
    64
 62
     7
  6
CONTINUOUS
  0
LAYER
  2
Reference_points
 70
    64
 62
     1
  6
CONTINUOUS
  0
ENDTAB
  0
TABLE
  2
STYLE
 70
     1
  0
STYLE
  2
TXT
 70
    64
 40
0.0
 41
1.0
 50
0.0
 71
     0
 42
3.500000
  3
TXT
  0
ENDTAB
  0
ENDSEC
  0
SECTION
  2
BLOCKS
  0
ENDSEC
  0
SECTION
  2
ENTITIES
  0
ARC
  8
Contour
 62
   7
 39
0.004
  6
CONTINUOUS
 10
1.96850
 20
6.87008
 30
 0
 40
0.01969
 50
0.00000
 51
90.00000
  0
LINE
  8
Contour
 62
   7
 39
0.004
  6
CONTINUOUS
 10
1.98819
 20
6.87008
 30
 0
 11
1.98819
 21
0.01969
  0
ARC
  8
Contour
 62
   7
 39
0.004
  6
CONTINUOUS
 10
1.96850
 20
0.01969
 30
 0
 40
0.01969
 50
-90.00000
 51
0.00000
  0
LINE
  8
Contour
 62
   7
 39
0.004
  6
CONTINUOUS
 10
1.96850
 20
0.00000
 30
 0
 11
0.01969
 21
0.00000
  0
ARC
  8
Contour
 62
   7
 39
0.004
  6
CONTINUOUS
 10
0.01969
 20
0.01969
 30
 0
 40
0.01969
 50
180.00000
 51
270.00000
  0
LINE
  8
Contour
 62
   7
 39
0.004
  6
CONTINUOUS
 10
0.00000
 20
0.01969
 30
 0
 11
0.00000
 21
6.87008
  0
ARC
  8
Contour
 62
   7
 39
0.004
  6
CONTINUOUS
 10
0.01969
 20
6.87008
 30
 0
 40
0.01969
 50
90.00000
 51
180.00000
  0
LINE
  8
Contour
 62
   7
 39
0.004
  6
CONTINUOUS
 10
0.01969
 20
6.88976
 30
 0
 11
1.96850
 21
6.88976
  0
ARC
  8
Contour
 62
   7
 39
0.004
  6
CONTINUOUS
 10
0.42815
 20
6.76821
 30
 0
 40
0.05906
 50
180.00000
 51
270.00000
  0
LINE
  8
Contour
 62
   7
 39
0.004
  6
CONTINUOUS
 10
0.42815
 20
6.70915
 30
 0
 11
0.56004
 21
6.70915
  0
ARC
  8
Contour
 62
   7
 39
0.004
  6
CONTINUOUS
 10
0.56004
 20
6.76821
 30
 0
 40
0.05906
 50
270.00000
 51
360.00000
  0
LINE
  8
Contour
 62
   7
 39
0.004
  6
CONTINUOUS
 10
0.61909
 20
6.76821
 30
 0
 11
0.61909
 21
6.77510
  0
ARC
  8
Contour
 62
   7
 39
0.004
  6
CONTINUOUS
 10
0.56004
 20
6.77510
 30
 0
 40
0.05906
 50
0.00000
 51
90.00000
  0
LINE
  8
Contour
 62
   7
 39
0.004
  6
CONTINUOUS
 10
0.56004
 20
6.83415
 30
 0
 11
0.42815
 21
6.83415
  0
ARC
  8
Contour
 62
   7
 39
0.004
  6
CONTINUOUS
 10
0.42815
 20
6.77510
 30
 0
 40
0.05906
 50
90.00000
 51
180.00000
  0
LINE
  8
Contour
 62
   7
 39
0.004
  6
CONTINUOUS
 10
0.36909
 20
6.77510
 30
 0
 11
0.36909
 21
6.76821
  0
ARC
  8
Contour
 62
   7
 39
0.004
  6
CONTINUOUS
 10
1.42815
 20
6.76821
 30
 0
 40
0.05906
 50
180.00000
 51
270.00000
  0
LINE
  8
Contour
 62
   7
 39
0.004
  6
CONTINUOUS
 10
1.42815
 20
6.70915
 30
 0
 11
1.56004
 21
6.70915
  0
ARC
  8
Contour
 62
   7
 39
0.004
  6
CONTINUOUS
 10
1.56004
 20
6.76821
 30
 0
 40
0.05906
 50
270.00000
 51
360.00000
  0
LINE
  8
Contour
 62
   7
 39
0.004
  6
CONTINUOUS
 10
1.61909
 20
6.76821
 30
 0
 11
1.61909
 21
6.77510
  0
ARC
  8
Contour
 62
   7
 39
0.004
  6
CONTINUOUS
 10
1.56004
 20
6.77510
 30
 0
 40
0.05906
 50
0.00000
 51
90.00000
  0
LINE
  8
Contour
 62
   7
 39
0.004
  6
CONTINUOUS
 10
1.56004
 20
6.83415
 30
 0
 11
1.42815
 21
6.83415
  0
ARC
  8
Contour
 62
   7
 39
0.004
  6
CONTINUOUS
 10
1.42815
 20
6.77510
 30
 0
 40
0.05906
 50
90.00000
 51
180.00000
  0
LINE
  8
Contour
 62
   7
 39
0.004
  6
CONTINUOUS
 10
1.36909
 20
6.77510
 30
 0
 11
1.36909
 21
6.76821
  0
ARC
  8
Contour
 62
   7
 39
0.004
  6
CONTINUOUS
 10
1.42815
 20
0.11467
 30
 0
 40
0.05906
 50
180.00000
 51
270.00000
  0
LINE
  8
Contour
 62
   7
 39
0.004
  6
CONTINUOUS
 10
1.42815
 20
0.05561
 30
 0
 11
1.56004
 21
0.05561
  0
ARC
  8
Contour
 62
   7
 39
0.004
  6
CONTINUOUS
 10
1.56004
 20
0.11467
 30
 0
 40
0.05906
 50
270.00000
 51
360.00000
  0
LINE
  8
Contour
 62
   7
 39
0.004
  6
CONTINUOUS
 10
1.61909
 20
0.11467
 30
 0
 11
1.61909
 21
0.12156
  0
ARC
  8
Contour
 62
   7
 39
0.004
  6
CONTINUOUS
 10
1.56004
 20
0.12156
 30
 0
 40
0.05906
 50
360.00000
 51
450.00000
  0
LINE
  8
Contour
 62
   7
 39
0.004
  6
CONTINUOUS
 10
1.56004
 20
0.18061
 30
 0
 11
1.42815
 21
0.18061
  0
ARC
  8
Contour
 62
   7
 39
0.004
  6
CONTINUOUS
 10
1.42815
 20
0.12156
 30
 0
 40
0.05906
 50
90.00000
 51
180.00000
  0
LINE
  8
Contour
 62
   7
 39
0.004
  6
CONTINUOUS
 10
1.36909
 20
0.12156
 30
 0
 11
1.36909
 21
0.11467
  0
ARC
  8
Contour
 62
   7
 39
0.004
  6
CONTINUOUS
 10
0.42815
 20
0.11467
 30
 0
 40
0.05906
 50
180.00000
 51
270.00000
  0
LINE
  8
Contour
 62
   7
 39
0.004
  6
CONTINUOUS
 10
0.42815
 20
0.05561
 30
 0
 11
0.56004
 21
0.05561
  0
ARC
  8
Contour
 62
   7
 39
0.004
  6
CONTINUOUS
 10
0.56004
 20
0.11467
 30
 0
 40
0.05906
 50
270.00000
 51
360.00000
  0
LINE
  8
Contour
 62
   7
 39
0.004
  6
CONTINUOUS
 10
0.61909
 20
0.11467
 30
 0
 11
0.61909
 21
0.12156
  0
ARC
  8
Contour
 62
   7
 39
0.004
  6
CONTINUOUS
 10
0.56004
 20
0.12156
 30
 0
 40
0.05906
 50
360.00000
 51
450.00000
  0
LINE
  8
Contour
 62
   7
 39
0.004
  6
CONTINUOUS
 10
0.56004
 20
0.18061
 30
 0
 11
0.42815
 21
0.18061
  0
ARC
  8
Contour
 62
   7
 39
0.004
  6
CONTINUOUS
 10
0.42815
 20
0.12156
 30
 0
 40
0.05906
 50
90.00000
 51
180.00000
  0
LINE
  8
Contour
 62
   7
 39
0.004
  6
CONTINUOUS
 10
0.36909
 20
0.12156
 30
 0
 11
0.36909
 21
0.11467
  0
ARC
  8
Contour
 62
   7
 39
0.004
  6
CONTINUOUS
 10
0.49409
 20
3.00000
 30
 0
 40
0.16400
 50
51.06093
 51
128.93907
  0
ARC
  8
Contour
 62
   7
 39
0.004
  6
CONTINUOUS
 10
0.42815
 20
3.08163
 30
 0
 40
0.05906
 50
128.95182
 51
180.01863
  0
LINE
  8
Contour
 62
   7
 39
0.004
  6
CONTINUOUS
 10
0.36909
 20
3.08161
 30
 0
 11
0.36909
 21
2.91839
  0
ARC
  8
Contour
 62
   7
 39
0.004
  6
CONTINUOUS
 10
0.42815
 20
2.91837
 30
 0
 40
0.05906
 50
179.98137
 51
231.04818
  0
ARC
  8
Contour
 62
   7
 39
0.004
  6
CONTINUOUS
 10
0.49409
 20
3.00000
 30
 0
 40
0.16400
 50
231.06093
 51
308.93907
  0
ARC
  8
Contour
 62
   7
 39
0.004
  6
CONTINUOUS
 10
0.56004
 20
2.91837
 30
 0
 40
0.05906
 50
308.95182
 51
360.01863
  0
LINE
  8
Contour
 62
   7
 39
0.004
  6
CONTINUOUS
 10
0.61909
 20
2.91839
 30
 0
 11
0.61909
 21
3.08161
  0
ARC
  8
Contour
 62
   7
 39
0.004
  6
CONTINUOUS
 10
0.56004
 20
3.08163
 30
 0
 40
0.05906
 50
359.98137
 51
411.04818
  0
CIRCLE
  8
Contour
 62
   7
 39
0.004
  6
CONTINUOUS
 10
1.49409
 20
0.75000
 30
 0
 40
0.14764
  0
CIRCLE
  8
Contour
 62
   7
 39
0.004
  6
CONTINUOUS
 10
0.49409
 20
0.75000
 30
 0
 40
0.14764
  0
CIRCLE
  8
Contour
 62
   7
 39
0.004
  6
CONTINUOUS
 10
0.49409
 20
1.50000
 30
 0
 40
0.14764
  0
CIRCLE
  8
Contour
 62
   7
 39
0.004
  6
CONTINUOUS
 10
1.49409
 20
1.50000
 30
 0
 40
0.14764
  0
ARC
  8
Contour
 62
   7
 39
0.004
  6
CONTINUOUS
 10
0.49409
 20
2.25000
 30
 0
 40
0.16400
 50
51.06093
 51
128.93907
  0
ARC
  8
Contour
 62
   7
 39
0.004
  6
CONTINUOUS
 10
0.42815
 20
2.33163
 30
 0
 40
0.05906
 50
128.95182
 51
180.01863
  0
LINE
  8
Contour
 62
   7
 39
0.004
  6
CONTINUOUS
 10
0.36909
 20
2.33161
 30
 0
 11
0.36909
 21
2.16839
  0
ARC
  8
Contour
 62
   7
 39
0.004
  6
CONTINUOUS
 10
0.42815
 20
2.16837
 30
 0
 40
0.05906
 50
179.98137
 51
231.04818
  0
ARC
  8
Contour
 62
   7
 39
0.004
  6
CONTINUOUS
 10
0.49409
 20
2.25000
 30
 0
 40
0.16400
 50
231.06093
 51
308.93907
  0
ARC
  8
Contour
 62
   7
 39
0.004
  6
CONTINUOUS
 10
0.56004
 20
2.16837
 30
 0
 40
0.05906
 50
308.95182
 51
360.01863
  0
LINE
  8
Contour
 62
   7
 39
0.004
  6
CONTINUOUS
 10
0.61909
 20
2.16839
 30
 0
 11
0.61909
 21
2.33161
  0
ARC
  8
Contour
 62
   7
 39
0.004
  6
CONTINUOUS
 10
0.56004
 20
2.33163
 30
 0
 40
0.05906
 50
359.98137
 51
411.04818
  0
ARC
  8
Contour
 62
   7
 39
0.004
  6
CONTINUOUS
 10
1.49409
 20
2.25000
 30
 0
 40
0.16400
 50
51.06093
 51
128.93907
  0
ARC
  8
Contour
 62
   7
 39
0.004
  6
CONTINUOUS
 10
1.42815
 20
2.33163
 30
 0
 40
0.05906
 50
128.95182
 51
180.01863
  0
LINE
  8
Contour
 62
   7
 39
0.004
  6
CONTINUOUS
 10
1.36909
 20
2.33161
 30
 0
 11
1.36909
 21
2.16839
  0
ARC
  8
Contour
 62
   7
 39
0.004
  6
CONTINUOUS
 10
1.42815
 20
2.16837
 30
 0
 40
0.05906
 50
179.98137
 51
231.04818
  0
ARC
  8
Contour
 62
   7
 39
0.004
  6
CONTINUOUS
 10
1.49409
 20
2.25000
 30
 0
 40
0.16400
 50
231.06093
 51
308.93907
  0
ARC
  8
Contour
 62
   7
 39
0.004
  6
CONTINUOUS
 10
1.56004
 20
2.16837
 30
 0
 40
0.05906
 50
308.95182
 51
360.01863
  0
LINE
  8
Contour
 62
   7
 39
0.004
  6
CONTINUOUS
 10
1.61909
 20
2.16839
 30
 0
 11
1.61909
 21
2.33161
  0
ARC
  8
Contour
 62
   7
 39
0.004
  6
CONTINUOUS
 10
1.56004
 20
2.33163
 30
 0
 40
0.05906
 50
359.98137
 51
411.04818
  0
CIRCLE
  8
Contour
 62
   7
 39
0.004
  6
CONTINUOUS
 10
0.49409
 20
3.75000
 30
 0
 40
0.14764
  0
CIRCLE
  8
Contour
 62
   7
 39
0.004
  6
CONTINUOUS
 10
1.49409
 20
3.00000
 30
 0
 40
0.14764
  0
CIRCLE
  8
Contour
 62
   7
 39
0.004
  6
CONTINUOUS
 10
1.49409
 20
3.75000
 30
 0
 40
0.14764
  0
CIRCLE
  8
Contour
 62
   7
 39
0.004
  6
CONTINUOUS
 10
1.49409
 20
4.50000
 30
 0
 40
0.14764
  0
ARC
  8
Contour
 62
   7
 39
0.004
  6
CONTINUOUS
 10
1.49409
 20
5.25000
 30
 0
 40
0.16400
 50
51.06093
 51
128.93907
  0
ARC
  8
Contour
 62
   7
 39
0.004
  6
CONTINUOUS
 10
1.42815
 20
5.33163
 30
 0
 40
0.05906
 50
128.95182
 51
180.01863
  0
LINE
  8
Contour
 62
   7
 39
0.004
  6
CONTINUOUS
 10
1.36909
 20
5.33161
 30
 0
 11
1.36909
 21
5.16839
  0
ARC
  8
Contour
 62
   7
 39
0.004
  6
CONTINUOUS
 10
1.42815
 20
5.16837
 30
 0
 40
0.05906
 50
179.98137
 51
231.04818
  0
ARC
  8
Contour
 62
   7
 39
0.004
  6
CONTINUOUS
 10
1.49409
 20
5.25000
 30
 0
 40
0.16400
 50
231.06093
 51
308.93907
  0
ARC
  8
Contour
 62
   7
 39
0.004
  6
CONTINUOUS
 10
1.56004
 20
5.16837
 30
 0
 40
0.05906
 50
308.95182
 51
360.01863
  0
LINE
  8
Contour
 62
   7
 39
0.004
  6
CONTINUOUS
 10
1.61909
 20
5.16839
 30
 0
 11
1.61909
 21
5.33161
  0
ARC
  8
Contour
 62
   7
 39
0.004
  6
CONTINUOUS
 10
1.56004
 20
5.33163
 30
 0
 40
0.05906
 50
359.98137
 51
411.04818
  0
ARC
  8
Contour
 62
   7
 39
0.004
  6
CONTINUOUS
 10
1.49409
 20
6.00000
 30
 0
 40
0.16400
 50
51.06093
 51
128.93907
  0
ARC
  8
Contour
 62
   7
 39
0.004
  6
CONTINUOUS
 10
1.42815
 20
6.08163
 30
 0
 40
0.05906
 50
128.95182
 51
180.01863
  0
LINE
  8
Contour
 62
   7
 39
0.004
  6
CONTINUOUS
 10
1.36909
 20
6.08161
 30
 0
 11
1.36909
 21
5.91839
  0
ARC
  8
Contour
 62
   7
 39
0.004
  6
CONTINUOUS
 10
1.42815
 20
5.91837
 30
 0
 40
0.05906
 50
179.98137
 51
231.04818
  0
ARC
  8
Contour
 62
   7
 39
0.004
  6
CONTINUOUS
 10
1.49409
 20
6.00000
 30
 0
 40
0.16400
 50
231.06093
 51
308.93907
  0
ARC
  8
Contour
 62
   7
 39
0.004
  6
CONTINUOUS
 10
1.56004
 20
5.91837
 30
 0
 40
0.05906
 50
308.95182
 51
360.01863
  0
LINE
  8
Contour
 62
   7
 39
0.004
  6
CONTINUOUS
 10
1.61909
 20
5.91839
 30
 0
 11
1.61909
 21
6.08161
  0
ARC
  8
Contour
 62
   7
 39
0.004
  6
CONTINUOUS
 10
1.56004
 20
6.08163
 30
 0
 40
0.05906
 50
359.98137
 51
411.04818
  0
ARC
  8
Contour
 62
   7
 39
0.004
  6
CONTINUOUS
 10
0.49409
 20
6.00000
 30
 0
 40
0.16400
 50
51.06093
 51
128.93907
  0
ARC
  8
Contour
 62
   7
 39
0.004
  6
CONTINUOUS
 10
0.42815
 20
6.08163
 30
 0
 40
0.05906
 50
128.95182
 51
180.01863
  0
LINE
  8
Contour
 62
   7
 39
0.004
  6
CONTINUOUS
 10
0.36909
 20
6.08161
 30
 0
 11
0.36909
 21
5.91839
  0
ARC
  8
Contour
 62
   7
 39
0.004
  6
CONTINUOUS
 10
0.42815
 20
5.91837
 30
 0
 40
0.05906
 50
179.98137
 51
231.04818
  0
ARC
  8
Contour
 62
   7
 39
0.004
  6
CONTINUOUS
 10
0.49409
 20
6.00000
 30
 0
 40
0.16400
 50
231.06093
 51
308.93907
  0
ARC
  8
Contour
 62
   7
 39
0.004
  6
CONTINUOUS
 10
0.56004
 20
5.91837
 30
 0
 40
0.05906
 50
308.95182
 51
360.01863
  0
LINE
  8
Contour
 62
   7
 39
0.004
  6
CONTINUOUS
 10
0.61909
 20
5.91839
 30
 0
 11
0.61909
 21
6.08161
  0
ARC
  8
Contour
 62
   7
 39
0.004
  6
CONTINUOUS
 10
0.56004
 20
6.08163
 30
 0
 40
0.05906
 50
359.98137
 51
411.04818
  0
CIRCLE
  8
Contour
 62
   7
 39
0.004
  6
CONTINUOUS
 10
0.49409
 20
5.25000
 30
 0
 40
0.14764
  0
CIRCLE
  8
Contour
 62
   7
 39
0.004
  6
CONTINUOUS
 10
0.49409
 20
4.50000
 30
 0
 40
0.12500
  0
CIRCLE
  8
Contour
 62
   7
 39
0.004
  6
CONTINUOUS
 10
0.99409
 20
1.87500
 30
 0
 40
0.12500
  0
LINE
  8
Reference_points
 62
   1
 39
0.004
  6
CONTINUOUS
 10
-0.02732
 20
0.00000
 30
 0
 11
0.02732
 21
0.00000
  0
LINE
  8
Reference_points
 62
   1
 39
0.004
  6
CONTINUOUS
 10
0.00000
 20
-0.02732
 30
 0
 11
0.00000
 21
0.02732
  0
LINE
  8
Reference_points
 62
   1
 39
0.004
  6
CONTINUOUS
 10
0.46677
 20
6.77165
 30
 0
 11
0.52142
 21
6.77165
  0
LINE
  8
Reference_points
 62
   1
 39
0.004
  6
CONTINUOUS
 10
0.49409
 20
6.74433
 30
 0
 11
0.49409
 21
6.79898
  0
LINE
  8
Reference_points
 62
   1
 39
0.004
  6
CONTINUOUS
 10
1.46677
 20
6.77165
 30
 0
 11
1.52142
 21
6.77165
  0
LINE
  8
Reference_points
 62
   1
 39
0.004
  6
CONTINUOUS
 10
1.49409
 20
6.74433
 30
 0
 11
1.49409
 21
6.79898
  0
LINE
  8
Reference_points
 62
   1
 39
0.004
  6
CONTINUOUS
 10
1.46677
 20
0.11811
 30
 0
 11
1.52142
 21
0.11811
  0
LINE
  8
Reference_points
 62
   1
 39
0.004
  6
CONTINUOUS
 10
1.49409
 20
0.09079
 30
 0
 11
1.49409
 21
0.14543
  0
LINE
  8
Reference_points
 62
   1
 39
0.004
  6
CONTINUOUS
 10
0.46677
 20
0.11811
 30
 0
 11
0.52142
 21
0.11811
  0
LINE
  8
Reference_points
 62
   1
 39
0.004
  6
CONTINUOUS
 10
0.49409
 20
0.09079
 30
 0
 11
0.49409
 21
0.14543
  0
LINE
  8
Reference_points
 62
   1
 39
0.004
  6
CONTINUOUS
 10
0.46677
 20
3.00000
 30
 0
 11
0.52142
 21
3.00000
  0
LINE
  8
Reference_points
 62
   1
 39
0.004
  6
CONTINUOUS
 10
0.49409
 20
2.97268
 30
 0
 11
0.49409
 21
3.02732
  0
LINE
  8
Reference_points
 62
   1
 39
0.004
  6
CONTINUOUS
 10
1.46677
 20
0.75000
 30
 0
 11
1.52142
 21
0.75000
  0
LINE
  8
Reference_points
 62
   1
 39
0.004
  6
CONTINUOUS
 10
1.49409
 20
0.72268
 30
 0
 11
1.49409
 21
0.77732
  0
LINE
  8
Reference_points
 62
   1
 39
0.004
  6
CONTINUOUS
 10
0.46677
 20
0.75000
 30
 0
 11
0.52142
 21
0.75000
  0
LINE
  8
Reference_points
 62
   1
 39
0.004
  6
CONTINUOUS
 10
0.49409
 20
0.72268
 30
 0
 11
0.49409
 21
0.77732
  0
LINE
  8
Reference_points
 62
   1
 39
0.004
  6
CONTINUOUS
 10
0.46677
 20
1.50000
 30
 0
 11
0.52142
 21
1.50000
  0
LINE
  8
Reference_points
 62
   1
 39
0.004
  6
CONTINUOUS
 10
0.49409
 20
1.47268
 30
 0
 11
0.49409
 21
1.52732
  0
LINE
  8
Reference_points
 62
   1
 39
0.004
  6
CONTINUOUS
 10
1.46677
 20
1.50000
 30
 0
 11
1.52142
 21
1.50000
  0
LINE
  8
Reference_points
 62
   1
 39
0.004
  6
CONTINUOUS
 10
1.49409
 20
1.47268
 30
 0
 11
1.49409
 21
1.52732
  0
LINE
  8
Reference_points
 62
   1
 39
0.004
  6
CONTINUOUS
 10
0.46677
 20
2.25000
 30
 0
 11
0.52142
 21
2.25000
  0
LINE
  8
Reference_points
 62
   1
 39
0.004
  6
CONTINUOUS
 10
0.49409
 20
2.22268
 30
 0
 11
0.49409
 21
2.27732
  0
LINE
  8
Reference_points
 62
   1
 39
0.004
  6
CONTINUOUS
 10
1.46677
 20
2.25000
 30
 0
 11
1.52142
 21
2.25000
  0
LINE
  8
Reference_points
 62
   1
 39
0.004
  6
CONTINUOUS
 10
1.49409
 20
2.22268
 30
 0
 11
1.49409
 21
2.27732
  0
LINE
  8
Reference_points
 62
   1
 39
0.004
  6
CONTINUOUS
 10
0.46677
 20
3.75000
 30
 0
 11
0.52142
 21
3.75000
  0
LINE
  8
Reference_points
 62
   1
 39
0.004
  6
CONTINUOUS
 10
0.49409
 20
3.72268
 30
 0
 11
0.49409
 21
3.77732
  0
LINE
  8
Reference_points
 62
   1
 39
0.004
  6
CONTINUOUS
 10
1.46677
 20
3.00000
 30
 0
 11
1.52142
 21
3.00000
  0
LINE
  8
Reference_points
 62
   1
 39
0.004
  6
CONTINUOUS
 10
1.49409
 20
2.97268
 30
 0
 11
1.49409
 21
3.02732
  0
LINE
  8
Reference_points
 62
   1
 39
0.004
  6
CONTINUOUS
 10
1.46677
 20
3.75000
 30
 0
 11
1.52142
 21
3.75000
  0
LINE
  8
Reference_points
 62
   1
 39
0.004
  6
CONTINUOUS
 10
1.49409
 20
3.72268
 30
 0
 11
1.49409
 21
3.77732
  0
LINE
  8
Reference_points
 62
   1
 39
0.004
  6
CONTINUOUS
 10
1.46677
 20
4.50000
 30
 0
 11
1.52142
 21
4.50000
  0
LINE
  8
Reference_points
 62
   1
 39
0.004
  6
CONTINUOUS
 10
1.49409
 20
4.47268
 30
 0
 11
1.49409
 21
4.52732
  0
LINE
  8
Reference_points
 62
   1
 39
0.004
  6
CONTINUOUS
 10
1.46677
 20
5.25000
 30
 0
 11
1.52142
 21
5.25000
  0
LINE
  8
Reference_points
 62
   1
 39
0.004
  6
CONTINUOUS
 10
1.49409
 20
5.22268
 30
 0
 11
1.49409
 21
5.27732
  0
LINE
  8
Reference_points
 62
   1
 39
0.004
  6
CONTINUOUS
 10
1.46677
 20
6.00000
 30
 0
 11
1.52142
 21
6.00000
  0
LINE
  8
Reference_points
 62
   1
 39
0.004
  6
CONTINUOUS
 10
1.49409
 20
5.97268
 30
 0
 11
1.49409
 21
6.02732
  0
LINE
  8
Reference_points
 62
   1
 39
0.004
  6
CONTINUOUS
 10
0.46677
 20
6.00000
 30
 0
 11
0.52142
 21
6.00000
  0
LINE
  8
Reference_points
 62
   1
 39
0.004
  6
CONTINUOUS
 10
0.49409
 20
5.97268
 30
 0
 11
0.49409
 21
6.02732
  0
LINE
  8
Reference_points
 62
   1
 39
0.004
  6
CONTINUOUS
 10
0.46677
 20
5.25000
 30
 0
 11
0.52142
 21
5.25000
  0
LINE
  8
Reference_points
 62
   1
 39
0.004
  6
CONTINUOUS
 10
0.49409
 20
5.22268
 30
 0
 11
0.49409
 21
5.27732
  0
LINE
  8
Reference_points
 62
   1
 39
0.004
  6
CONTINUOUS
 10
0.46677
 20
4.50000
 30
 0
 11
0.52142
 21
4.50000
  0
LINE
  8
Reference_points
 62
   1
 39
0.004
  6
CONTINUOUS
 10
0.49409
 20
4.47268
 30
 0
 11
0.49409
 21
4.52732
  0
LINE
  8
Reference_points
 62
   1
 39
0.004
  6
CONTINUOUS
 10
0.96677
 20
1.87500
 30
 0
 11
1.02142
 21
1.87500
  0
LINE
  8
Reference_points
 62
   1
 39
0.004
  6
CONTINUOUS
 10
0.99409
 20
1.84768
 30
 0
 11
0.99409
 21
1.90232
  0
ENDSEC
  0
EOF
