<?xml version="1.0" standalone="no"?>
<!DOCTYPE svg PUBLIC "-//W3C//DTD SVG 1.1//EN" 
  "http://www.w3.org/Graphics/SVG/1.1/DTD/svg11.dtd">
<svg width="25.000mm" height="175.000mm" version="1.1"
     viewBox="0 0 25.000 175.000"
     xmlns="http://www.w3.org/2000/svg"  xmlns:xlink="http://www.w3.org/1999/xlink" 
     xmlns:fpd="http://www.schaeffer-ag.de">
  <desc>Created with the Front Panel Designer by the export of the file 'serge-r6-ring-mod.fpd'.</desc>
  <defs>
    <pattern id="revside-fill" x="1" y="1" width="1.750" height="1.750" patternUnits="userSpaceOnUse">
      <line x1="0" y1="0" x2="1.750" y2="1.750" style="stroke-width:0.175; stroke:black; stroke-dasharray:none;" />
      <line x1="0" y1="1.750" x2="1.750" y2="0" style="stroke-width:0.175; stroke:black; stroke-dasharray:none;" />
    </pattern>
    <pattern id="revside-fill-silver" x="1" y="1" width="1.750" height="1.750" patternUnits="userSpaceOnUse">
      <line x1="0" y1="0" x2="1.750" y2="1.750" style="stroke-width:0.175; stroke:#e0e0e0; stroke-dasharray:none;" />
      <line x1="0" y1="1.750" x2="1.750" y2="0" style="stroke-width:0.175; stroke:#e0e0e0; stroke-dasharray:none;" />
    </pattern>
  </defs>
<g transform="scale(1,-1) translate( -0.000, -175.000)" 
   fill-rule="evenodd"
   style="stroke-linecap:round; stroke-linejoin:round; stroke-opacity:1.0; stroke-opacity:1.0;">
<path d="
M24.500 175.000
A0.500,0.500 0 0,0 25.000,174.500
L25.000 0.500
A0.500,0.500 0 0,0 24.500,0.000
L0.500 0.000
A0.500,0.500 0 0,0 0.000,0.500
L0.000 174.500
A0.500,0.500 0 0,0 0.500,175.000
L24.500 175.000
" 
fill="#c0c0c0" fill-opacity="1.000000" vector-effect="non-scaling-stroke" stroke="#000000" stroke-width="0.100mm" stroke-opacity="1.000000" fpd:visible="front back" />
<path d="
M9.325 171.912
A1.500,1.500 0 0,1 10.825,170.412
L14.175 170.412
A1.500,1.500 0 0,1 15.675,171.912
L15.675 172.088
A1.500,1.500 0 0,1 14.175,173.588
L10.825 173.588
A1.500,1.500 0 0,1 9.325,172.088
L9.325 171.912
" 
fill="#ffffff" fill-opacity="1.000000" vector-effect="non-scaling-stroke" stroke="#000000" stroke-width="0.100mm" stroke-opacity="1.000000" fpd:visible="front back" fpd:print_element="0" />
<path d="
M9.375 2.913
A1.500,1.500 0 0,1 10.875,1.413
L14.225 1.413
A1.500,1.500 0 0,1 15.725,2.913
L15.725 3.087
A1.500,1.500 0 0,1 14.225,4.588
L10.875 4.588
A1.500,1.500 0 0,1 9.375,3.087
L9.375 2.913
" 
fill="#ffffff" fill-opacity="1.000000" vector-effect="non-scaling-stroke" stroke="#000000" stroke-width="0.100mm" stroke-opacity="1.000000" fpd:visible="front back" fpd:print_element="0" />
<path d="
M15.318 54.040
A4.166,4.166 0 0,1 10.082,54.040
A1.500,1.500 0 0,1 9.525,52.873
L9.525 48.727
A1.500,1.500 0 0,1 10.082,47.560
A4.166,4.166 0 0,1 15.318,47.560
A1.500,1.500 0 0,1 15.875,48.727
L15.875 52.873
A1.500,1.500 0 0,1 15.318,54.040
" 
fill="#ffffff" fill-opacity="1.000000" vector-effect="non-scaling-stroke" stroke="#000000" stroke-width="0.100mm" stroke-opacity="1.000000" fpd:visible="front back" fpd:print_element="0" />
<path d="
M8.750 25.400
A3.750,3.750 0 1,0 16.250,25.400
A3.750,3.750 0 1,0 8.750,25.400
" 
fill="#ffffff" fill-opacity="1.000000" vector-effect="non-scaling-stroke" stroke="#000000" stroke-width="0.100mm" stroke-opacity="1.000000" fpd:visible="front back" fpd:print_element="0" />
<path d="
M15.118 79.440
A4.166,4.166 0 0,1 9.882,79.440
A1.500,1.500 0 0,1 9.325,78.273
L9.325 74.127
A1.500,1.500 0 0,1 9.882,72.960
A4.166,4.166 0 0,1 15.118,72.960
A1.500,1.500 0 0,1 15.675,74.127
L15.675 78.273
A1.500,1.500 0 0,1 15.118,79.440
" 
fill="#ffffff" fill-opacity="1.000000" vector-effect="non-scaling-stroke" stroke="#000000" stroke-width="0.100mm" stroke-opacity="1.000000" fpd:visible="front back" fpd:print_element="0" />
<path d="
M15.118 104.840
A4.166,4.166 0 0,1 9.882,104.840
A1.500,1.500 0 0,1 9.325,103.673
L9.325 99.527
A1.500,1.500 0 0,1 9.882,98.360
A4.166,4.166 0 0,1 15.118,98.360
A1.500,1.500 0 0,1 15.675,99.527
L15.675 103.673
A1.500,1.500 0 0,1 15.118,104.840
" 
fill="#ffffff" fill-opacity="1.000000" vector-effect="non-scaling-stroke" stroke="#000000" stroke-width="0.100mm" stroke-opacity="1.000000" fpd:visible="front back" fpd:print_element="0" />
<path d="
M15.118 130.240
A4.166,4.166 0 0,1 9.882,130.240
A1.500,1.500 0 0,1 9.325,129.073
L9.325 124.927
A1.500,1.500 0 0,1 9.882,123.760
A4.166,4.166 0 0,1 15.118,123.760
A1.500,1.500 0 0,1 15.675,124.927
L15.675 129.073
A1.500,1.500 0 0,1 15.118,130.240
" 
fill="#ffffff" fill-opacity="1.000000" vector-effect="non-scaling-stroke" stroke="#000000" stroke-width="0.100mm" stroke-opacity="1.000000" fpd:visible="front back" fpd:print_element="0" />
<path d="
M15.118 155.640
A4.166,4.166 0 0,1 9.882,155.640
A1.500,1.500 0 0,1 9.325,154.473
L9.325 150.327
A1.500,1.500 0 0,1 9.882,149.160
A4.166,4.166 0 0,1 15.118,149.160
A1.500,1.500 0 0,1 15.675,150.327
L15.675 154.473
A1.500,1.500 0 0,1 15.118,155.640
" 
fill="#ffffff" fill-opacity="1.000000" vector-effect="non-scaling-stroke" stroke="#000000" stroke-width="0.100mm" stroke-opacity="1.000000" fpd:visible="front back" fpd:print_element="0" />
<path d="
M24.500 175.000
A0.500,0.500 0 0,0 25.000,174.500
L25.000 0.500
A0.500,0.500 0 0,0 24.500,0.000
L0.500 0.000
A0.500,0.500 0 0,0 0.000,0.500
L0.000 174.500
A0.500,0.500 0 0,0 0.500,175.000
L24.500 175.000
" 
fill="none" vector-effect="non-scaling-stroke" stroke="#000000" stroke-width="0.100mm" stroke-opacity="1.000000" fpd:visible="front back" />
</g>
</svg>
